<svg width="1057" height="73" viewBox="0 0 1057 73" fill="none" xmlns="http://www.w3.org/2000/svg">
<path d="M682.027 28.0148C685.606 31.6043 695.712 31.5142 695.712 31.5142H1052.41C1054.95 31.5142 1057 33.5671 1057 36.0994C1057 38.6292 1054.95 40.681 1052.42 40.6846L695.712 41.188C695.712 41.188 685.606 41.0979 682.027 44.6875L678.226 48.4986C672.799 53.9409 664.079 54.1884 658.354 49.0623L649.806 41.4087C648.21 39.979 645.779 40.0431 644.259 41.5545L621.784 63.9031C610.255 75.3666 591.762 75.6662 579.868 64.5843C570.887 56.2171 561.051 47.5393 556.107 43.2144C554.32 41.6516 551.811 41.2815 549.669 42.2188C548.449 42.8598 547.312 43.6818 546.31 44.6875L542.509 48.4986C537.082 53.9409 528.362 54.1884 522.637 49.0623L514.089 41.4087C512.492 39.979 510.061 40.0431 508.542 41.5545L486.067 63.9031C474.538 75.3666 456.045 75.6662 444.151 64.5843C435.17 56.2171 425.334 47.5393 420.389 43.2144C418.462 41.5286 415.695 41.2278 413.452 42.4616C410.365 44.1605 405.698 46.72 400.786 49.382V49.382C387.238 56.7248 369.298 41 353.888 41H5C2.23858 41 0 38.7614 0 36V36C0 33.2385 2.23858 31 5 31H354.881C369.998 31 387.496 16.1176 400.786 23.3202V23.3202C405.698 25.9822 410.365 28.5417 413.452 30.2406C415.695 31.4744 418.462 31.1736 420.389 29.4879C425.334 25.1629 435.17 16.4852 444.151 8.11788C456.045 -2.96399 474.538 -2.66435 486.067 8.79914L508.542 31.1477C510.061 32.6591 512.492 32.7233 514.089 31.2935L522.637 23.6399C528.362 18.5139 537.082 18.7613 542.509 24.2037L546.31 28.0148C547.312 29.0204 548.449 29.8424 549.669 30.4838C551.811 31.4211 554.32 31.0507 556.107 29.4879C561.051 25.1629 570.887 16.4852 579.868 8.11788C591.762 -2.96399 610.255 -2.66435 621.784 8.79914L644.259 31.1477C645.779 32.6591 648.21 32.7233 649.806 31.2935L658.354 23.6399C664.079 18.5139 672.799 18.7613 678.226 24.2037L682.027 28.0148Z" fill="url(#paint0_linear_2522_8386)"/>
<defs>
<linearGradient id="paint0_linear_2522_8386" x1="311.016" y1="0.0346063" x2="307.663" y2="69.2874" gradientUnits="userSpaceOnUse">
<stop stop-color="#F2E6A7"/>
<stop offset="0.943353" stop-color="#5DABCD"/>
</linearGradient>
</defs>
</svg>
