<?xml version="1.0" encoding="UTF-8"?>
<svg id="Layer_1" data-name="Layer 1" xmlns="http://www.w3.org/2000/svg" xmlns:xlink="http://www.w3.org/1999/xlink" version="1.1" viewBox="0 0 1057 73">
  <defs>
    <style>
      .cls-1 {
        fill: url(#linear-gradient);
        stroke-width: 0px;
      }
    </style>
    <linearGradient id="linear-gradient" x1="529.7" y1="63.4" x2="526.4" y2="-5.9" gradientTransform="translate(0 74) scale(1 -1)" gradientUnits="userSpaceOnUse">
      <stop offset="0" stop-color="#77b7c2"/>
      <stop offset=".9" stop-color="#649ccf"/>
    </linearGradient>
  </defs>
  <path class="cls-1" d="M682,28c3.6,3.6,13.7,3.5,13.7,3.5h356.7c2.5,0,4.6,2.1,4.6,4.6s-2.1,4.6-4.6,4.6l-356.7.5s-10.1,0-13.7,3.5l-3.8,3.8c-5.4,5.4-14.1,5.7-19.9.6l-8.5-7.7c-1.6-1.4-4-1.4-5.5.1l-22.5,22.3c-11.5,11.5-30,11.8-41.9.7-9-8.4-18.8-17-23.8-21.4-1.8-1.6-4.3-1.9-6.4-1-1.2.6-2.4,1.5-3.4,2.5l-3.8,3.8c-5.4,5.4-14.1,5.7-19.9.6l-8.5-7.7c-1.6-1.4-4-1.4-5.5.1l-22.5,22.3c-11.5,11.5-30,11.8-41.9.7-9-8.4-18.8-17-23.8-21.4-1.9-1.7-4.7-2-6.9-.8-3.1,1.7-7.8,4.3-12.7,6.9h0c-13.5,7.3-31.5-8.4-46.9-8.4H5c-2.8,0-5-2.2-5-5h0c0-2.8,2.2-5,5-5h349.9c15.1,0,32.6-14.9,45.9-7.7h0c4.9,2.7,9.6,5.2,12.7,6.9,2.2,1.2,5,.9,6.9-.8,4.9-4.3,14.8-13,23.8-21.4,11.9-11.1,30.4-10.8,41.9.7l22.5,22.3c1.5,1.5,4,1.6,5.5.1l8.5-7.7c5.7-5.1,14.4-4.9,19.9.6l3.8,3.8c1,1,2.1,1.8,3.4,2.5,2.1.9,4.7.6,6.4-1,4.9-4.3,14.8-13,23.8-21.4,11.9-11.1,30.4-10.8,41.9.7l22.5,22.3c1.5,1.5,4,1.6,5.5.1l8.5-7.7c5.7-5.1,14.4-4.9,19.9.6l3.8,3.8Z"/>
</svg>