<?xml version="1.0" encoding="utf-8"?>
<!-- Generator: Adobe Illustrator 27.7.0, SVG Export Plug-In . SVG Version: 6.00 Build 0)  -->
<svg version="1.1" id="Camada_1" xmlns="http://www.w3.org/2000/svg" xmlns:xlink="http://www.w3.org/1999/xlink" x="0px" y="0px"
	 viewBox="0 0 421 421" style="enable-background:new 0 0 421 421;" xml:space="preserve">
<style type="text/css">
	.st0{fill:none;}
	.st1{fill:url(#SVGID_1_);}
</style>
<g>
	<path class="st0" d="M241.8,217.1h-34.7c-3.6,0-7.1,0.2-10.5,0.6c-1.7,0.3-3.4,0.5-5.1,0.7c-44.2,7.4-70.1,45.7-70.1,92V324
		c0,5.7,4.6,10.3,10.3,10.3h110.2c32.4,0,58.7-26.2,58.7-58.6S274.2,217.1,241.8,217.1z"/>
	
		<linearGradient id="SVGID_1_" gradientUnits="userSpaceOnUse" x1="191.0329" y1="-440.8226" x2="237.6067" y2="-817.5337" gradientTransform="matrix(1 0 0 -1 0 -298)">
		<stop  offset="0" style="stop-color:#639BCE"/>
		<stop  offset="0.9434" style="stop-color:#84BE95"/>
	</linearGradient>
	<path class="st1" d="M280.8,163c12.8-19.6,20.4-43.1,20.4-68.4v-4.2c0-35.6-28.8-64.4-64.3-64.4h-80.3c-53.3,0-96.6,43.3-96.6,96.6
		c0,36.8,0.2,62.9,0.4,89.5c0.2,27.9,0.4,56.3,0.4,98.3v24.8c0,33,26.8,59.8,59.8,59.8h121.2c65.9,0,119.3-53.3,119.3-119.2
		C361.1,223.6,327.6,179.3,280.8,163z M156.5,86.7h78.6c4.4,0,5.4,4.9,5.3,7.9c0,35.4-28.6,63.9-63.8,63.9h-20.2
		c-19.8,0-35.9-16.1-35.9-36S136.7,86.7,156.5,86.7z M241.8,334.3H131.7c-5.7,0-10.3-4.6-10.3-10.3v-13.6c0-46.3,25.9-84.6,70.1-92
		c1.7-0.2,3.4-0.4,5.1-0.7c3.4-0.4,6.9-0.6,10.5-0.6h34.7c32.4,0,58.7,26.2,58.7,58.6S274.2,334.3,241.8,334.3z"/>
</g>
</svg>
