<svg width="251" height="298" viewBox="0 0 251 298" fill="none" xmlns="http://www.w3.org/2000/svg">
<path d="M237 71.5625V267.562C237 283.579 224.016 296.562 208 296.562H30C13.9837 296.562 1 283.579 1 267.563V41.5625C1 25.5462 13.9837 12.5625 30 12.5625H194" stroke="white" stroke-width="2"/>
<rect x="29" y="225" width="80" height="40" rx="20" stroke="white" stroke-width="2"/>
<rect x="124" y="225" width="39" height="40" rx="19.5" stroke="white" stroke-width="2"/>
<rect x="174" y="225" width="39" height="40" rx="19.5" stroke="white" stroke-width="2"/>
<path d="M193.689 237V245.689M193.689 245.689V254M193.689 245.689H202M193.689 245.689L185 245.689" stroke="white" stroke-width="2" stroke-linecap="round"/>
<path d="M152 245.688H143.689L135 245.688" stroke="white" stroke-width="2" stroke-linecap="round"/>
<path d="M169.832 176.385H79.204C69.7025 176.385 62 168.683 62 159.181V89.4629M95.1789 153.732V142.983M142.183 153.755V140.16M118.681 153.742V133.709M95.1784 117.716L114.502 98.2494C115.325 97.4208 116.617 97.2852 117.593 97.9248L142.182 114.03M172.596 106V87M172.596 87L152 87M172.596 87L142.182 114.035" stroke="white" stroke-width="2" stroke-linecap="round" stroke-linejoin="round"/>
<path d="M225.872 43.7469C225.872 44.2992 226.319 44.7469 226.872 44.7469C227.424 44.7469 227.872 44.2992 227.872 43.7469H225.872ZM227.872 37.8833C227.872 37.331 227.424 36.8833 226.872 36.8833C226.319 36.8833 225.872 37.331 225.872 37.8833H227.872ZM211.854 24.0028H241.098V22.0028H211.854V24.0028ZM248.998 31.9033V49.313H250.998V31.9033H248.998ZM241.098 57.2135H211.854V59.2135H241.098V57.2135ZM203.953 49.313V31.9033H201.953V49.313H203.953ZM211.854 57.2135C207.49 57.2135 203.953 53.6763 203.953 49.313H201.953C201.953 54.7809 206.386 59.2135 211.854 59.2135V57.2135ZM248.998 49.313C248.998 53.6763 245.461 57.2135 241.098 57.2135V59.2135C246.566 59.2135 250.998 54.7809 250.998 49.313H248.998ZM241.098 24.0028C245.461 24.0028 248.998 27.54 248.998 31.9033H250.998C250.998 26.4354 246.566 22.0028 241.098 22.0028V24.0028ZM211.854 22.0028C206.386 22.0028 201.953 26.4354 201.953 31.9033H203.953C203.953 27.54 207.49 24.0028 211.854 24.0028V22.0028ZM221.522 2H231.43V0H221.522V2ZM213.621 23.0356V9.90047H211.621V23.0356H213.621ZM239.33 9.90047V15.3333H241.33V9.90047H239.33ZM231.43 2C235.793 2 239.33 5.53716 239.33 9.90047H241.33C241.33 4.43259 236.898 0 231.43 0V2ZM221.522 0C216.054 0 211.621 4.43259 211.621 9.90047H213.621C213.621 5.53716 217.158 2 221.522 2V0ZM227.872 43.7469V37.8833H225.872V43.7469H227.872Z" fill="white"/>
</svg>
