<?xml version="1.0" encoding="utf-8"?>
<!-- Generator: Adobe Illustrator 28.2.0, SVG Export Plug-In . SVG Version: 6.00 Build 0)  -->
<svg version="1.1" id="Layer_1" xmlns="http://www.w3.org/2000/svg" xmlns:xlink="http://www.w3.org/1999/xlink" x="0px" y="0px"
	 viewBox="0 0 1440 674.7" style="enable-background:new 0 0 1440 674.7;" xml:space="preserve">
<style type="text/css">
	.st0{fill:#2D2D2D;}
</style>
<g id="acmpdj-2">
	<path class="st0" d="M1440,45.6c-12.5-1.5-25.1-2.9-37.6-4.4c-36.1-4.2-72.1-8.8-108.1-12.6c-40.2-4.2-80.5-8.2-120.8-11.6
		c-34.8-3-69.7-5.6-104.7-7.5c-53-2.9-106.1-6.4-159.2-7.4C827.3,0.4,745-0.6,662.7,0.3c-66.8,0.7-133.5,4-200.2,7.3
		c-49.9,2.5-99.8,6-149.5,10.4C255.7,23,198.6,29.1,141.5,35.7C95.2,41,49.1,47.7,2.9,53.8C1.9,54,1,54.3,0,54.6
		c0-28,0,633.5,0,621.6c0-2,1440-2,1440,0C1440,677.2,1440,21.3,1440,45.6L1440,45.6z"/>
</g>
</svg>
