<?xml version="1.0" encoding="UTF-8"?>
<svg id="Layer_1" data-name="Layer 1" xmlns="http://www.w3.org/2000/svg" viewBox="0 0 1440 89">
  <defs>
    <style>
      .cls-1 {
        fill: #fff;
        stroke-width: 0px;
      }
    </style>
  </defs>
  <g id="acmpdj">
    <path class="cls-1" d="M1440,80c-12.54-1.46-25.08-2.9-37.62-4.37-36.05-4.22-72.05-8.78-108.14-12.6-40.23-4.25-80.51-8.17-120.82-11.62-34.84-2.98-69.74-5.55-104.66-7.49-53.05-2.94-106.12-6.38-159.22-7.45-82.27-1.66-164.59-2.63-246.86-1.75-66.77.72-133.53,3.99-200.23,7.28-49.89,2.46-99.76,5.99-149.53,10.39-57.21,5.06-114.35,11.1-171.41,17.67-46.29,5.33-92.42,12.06-138.62,18.19-.98.13-1.93.49-2.89.74,0-29.67,0-59.33,0-89h1440v80Z"/>
  </g>
</svg>