<svg width="170" height="171" viewBox="0 0 170 171" fill="none" xmlns="http://www.w3.org/2000/svg">
<g filter="url(#filter0_b_2843_48)">
<path d="M0 28.05C0 12.5584 12.5584 0 28.05 0H141.95C157.442 0 170 12.5584 170 28.05V135.94C170 151.431 157.442 163.99 141.95 163.99H100.188C97.2859 163.99 94.5219 165.231 92.5942 167.401C88.5532 171.95 81.4468 171.95 77.4058 167.401C75.4781 165.231 72.7141 163.99 69.8115 163.99H28.05C12.5584 163.99 0 151.431 0 135.94V28.05Z" fill="white" fill-opacity="0.1"/>
<path fill-rule="evenodd" clip-rule="evenodd" d="M141.95 2.55H28.05C13.9667 2.55 2.55 13.9667 2.55 28.05V135.94C2.55 150.023 13.9667 161.44 28.05 161.44H69.8115C73.4428 161.44 76.9005 162.993 79.3122 165.708C82.3388 169.115 87.6612 169.115 90.6878 165.708C93.0995 162.993 96.5572 161.44 100.188 161.44H141.95C156.033 161.44 167.45 150.023 167.45 135.94V28.05C167.45 13.9667 156.033 2.55 141.95 2.55ZM28.05 0C12.5584 0 0 12.5584 0 28.05V135.94C0 151.431 12.5584 163.99 28.05 163.99H69.8115C72.7141 163.99 75.4781 165.231 77.4058 167.401C81.4468 171.95 88.5532 171.95 92.5942 167.401C94.5219 165.231 97.2859 163.99 100.188 163.99H141.95C157.442 163.99 170 151.431 170 135.94V28.05C170 12.5584 157.442 0 141.95 0H28.05Z" fill="#DFE5EC"/>
</g>
<path fill-rule="evenodd" clip-rule="evenodd" d="M54.687 42.9268C54.687 40.7089 56.4624 38.8906 58.6774 38.8906C60.8924 38.8906 62.6679 40.7089 62.6679 42.9268V42.929C62.6679 43.9632 62.2819 44.9104 61.6453 45.627C64.004 46.4347 65.6931 48.6959 65.6931 51.3438C65.6931 52.9209 64.4298 54.2197 62.8464 54.2197H54.5084C54.0265 54.2197 53.3383 54.1357 52.7397 53.7962C52.0874 53.4263 51.5703 52.7598 51.5703 51.7572C51.5703 50.3519 51.9727 48.7588 52.9408 47.4964C53.6016 46.6347 54.5101 45.9502 55.6768 45.5897C55.0598 44.8777 54.687 43.9453 54.687 42.929V42.9268ZM58.6774 40.546C57.3989 40.546 56.3423 41.6007 56.3423 42.9268V42.929C56.3423 44.2552 57.3989 45.3098 58.6774 45.3098C59.9559 45.3098 61.0125 44.2552 61.0125 42.929V42.9268C61.0125 41.6007 59.9559 40.546 58.6774 40.546ZM54.2544 48.5038C53.5523 49.4193 53.2257 50.6358 53.2257 51.7572C53.2257 52.0922 53.3569 52.2432 53.5563 52.3563C53.8094 52.4998 54.1764 52.5643 54.5084 52.5643H62.8464C63.4932 52.5643 64.0377 52.0291 64.0377 51.3438C64.0377 48.9146 62.0996 46.9657 59.7338 46.9657H57.621C55.997 46.9657 54.9336 47.6181 54.2544 48.5038ZM97.8644 55.9583C97.8644 52.5322 100.605 49.7344 104.011 49.7344C107.417 49.7344 110.158 52.5322 110.158 55.9583V55.962C110.158 57.8962 109.285 59.6301 107.911 60.7735C112.119 61.7506 115.246 65.5698 115.246 70.1144C115.246 72.4628 113.367 74.3869 111.023 74.3869H96.9996C96.2403 74.3869 95.1924 74.2522 94.3034 73.748C93.3607 73.2134 92.6227 72.2683 92.6227 70.8096C92.6227 68.543 93.2736 65.992 94.8111 63.9871C96.0202 62.4105 97.7562 61.2025 100.07 60.7383C98.7202 59.5947 97.8644 57.8765 97.8644 55.962V55.9583ZM104.011 51.3898C101.542 51.3898 99.5197 53.4239 99.5197 55.9583V55.962C99.5197 58.4964 101.542 60.5305 104.011 60.5305C106.481 60.5305 108.503 58.4964 108.503 55.962V55.9583C108.503 53.4239 106.481 51.3898 104.011 51.3898ZM96.1247 64.9945C94.8532 66.6525 94.278 68.8268 94.278 70.8096C94.278 71.6007 94.6303 72.0304 95.12 72.3081C95.6635 72.6163 96.3902 72.7315 96.9996 72.7315H111.023C112.43 72.7315 113.591 71.571 113.591 70.1144C113.591 65.7248 110.086 62.1867 105.788 62.1867H102.235C99.3271 62.1867 97.3733 63.3663 96.1247 64.9945ZM62.6008 89.6827C62.6008 85.8478 65.6683 82.7188 69.4772 82.7188C73.2862 82.7188 76.3537 85.8479 76.3537 89.6827V89.6869C76.3537 91.9366 75.2979 93.9434 73.6561 95.2181C78.5054 96.2298 82.1394 100.582 82.1394 105.78C82.1394 108.389 80.0512 110.525 77.4504 110.525H61.504C60.6508 110.525 59.4812 110.373 58.494 109.813C57.4531 109.223 56.6403 108.184 56.6403 106.571C56.6403 104.013 57.3752 101.138 59.1054 98.8816C60.5046 97.0571 62.532 95.6701 65.2553 95.1844C63.6381 93.9082 62.6008 91.9169 62.6008 89.6869V89.6827ZM69.4772 84.3741C66.6049 84.3741 64.2562 86.7396 64.2562 89.6827V89.6869C64.2562 92.6299 66.6049 94.9954 69.4772 94.9954C72.3496 94.9954 74.6983 92.6299 74.6983 89.6869V89.6827C74.6983 86.7396 72.3496 84.3741 69.4772 84.3741ZM60.419 99.8889C58.9549 101.798 58.2956 104.296 58.2956 106.571C58.2956 107.516 58.7226 108.04 59.3106 108.373C59.9523 108.737 60.8007 108.87 61.504 108.87H77.4504C79.1147 108.87 80.484 107.498 80.484 105.78C80.484 100.727 76.4495 96.6517 71.4976 96.6517H67.4568C64.1151 96.6517 61.8602 98.0096 60.419 99.8889Z" fill="black"/>
<path d="M71.9423 39.1783C67.4721 31.9758 58.0093 29.7607 50.8066 34.2309C43.6039 38.701 41.3889 48.1637 45.8591 55.3662C50.3293 62.5688 59.7921 64.7838 66.9948 60.3137C67.4743 60.0161 67.9315 59.6965 68.3659 59.3572C68.7262 59.0758 69.2463 59.1397 69.5277 59.4999C69.8091 59.8602 69.7452 60.3803 69.385 60.6617C68.9038 61.0376 68.3978 61.3912 67.8677 61.7202C59.8883 66.6724 49.4049 64.2185 44.4526 56.2391C39.5002 48.2598 41.9542 37.7766 49.9337 32.8244C57.9132 27.8721 68.3965 30.326 73.3488 38.3054C74.9599 40.9011 75.7877 43.7641 75.8954 46.6155C75.9127 47.0722 75.5563 47.4565 75.0995 47.4738C74.6427 47.491 74.2584 47.1347 74.2412 46.6779C74.1441 44.1061 73.3979 41.5236 71.9423 39.1783Z" fill="url(#paint0_linear_2843_48)"/>
<path fill-rule="evenodd" clip-rule="evenodd" d="M120.899 82.859C117.614 85.5875 113.679 87.4179 109.476 88.1717L108.746 88.3026C104.669 89.0275 100.627 88.8029 96.8562 87.7811C97.1421 88.7049 97.3857 89.6511 97.5844 90.6181C100.885 106.68 90.5389 122.377 74.4764 125.677C58.414 128.977 42.7174 118.631 39.4171 102.569C36.1169 86.507 46.4627 70.8107 62.5251 67.5105C67.7074 66.4457 72.8516 66.8014 77.5537 68.3112C77.4539 67.9282 77.3619 67.5414 77.2779 67.1509C74.1059 52.4033 83.4899 37.8767 98.2377 34.7047C112.986 31.5327 127.512 40.9166 130.684 55.6642C132.949 66.1932 128.814 76.6081 120.899 82.859ZM79.47 68.9999C79.2489 68.2831 79.0571 67.5504 78.8963 66.8028C75.9165 52.949 84.7318 39.3028 98.5858 36.323C112.44 33.3433 126.086 42.1585 129.066 56.0122C131.194 65.9031 127.31 75.6897 119.868 81.564L119.855 81.5743L119.849 81.5794C116.783 84.1284 113.108 85.8385 109.183 86.5424L108.456 86.6729C104.257 87.4192 100.101 87.0941 96.2774 85.8867C96.2485 85.8775 96.2195 85.8701 96.1905 85.8643C93.1585 78.0117 86.9868 71.996 79.47 68.9999ZM78.207 70.288C78.3878 70.5054 78.6721 70.6193 78.9589 70.5786C87.3815 73.9735 93.9983 81.3897 95.9629 90.9512C99.0791 106.118 89.3102 120.939 74.1433 124.055C58.9763 127.172 44.1549 117.403 41.0387 102.236C37.9224 87.0694 47.6914 72.2482 62.8583 69.132C68.1807 68.0384 73.4606 68.5316 78.207 70.288Z" fill="url(#paint1_linear_2843_48)"/>
<path fill-rule="evenodd" clip-rule="evenodd" d="M108.911 94.2491C108.149 94.2491 107.532 94.8667 107.532 95.6286V109.975C107.532 111.042 106.667 111.906 105.6 111.906H102.842C101.516 111.906 100.953 113.594 102.014 114.389L113.05 122.666C113.54 123.034 114.215 123.034 114.705 122.666L125.741 114.389C126.802 113.594 126.239 111.906 124.913 111.906H122.706C121.64 111.906 120.775 111.042 120.775 109.975V95.6286C120.775 94.8667 120.157 94.2491 119.395 94.2491H108.911ZM105.876 95.6286C105.876 93.9525 107.235 92.5938 108.911 92.5938H119.395C121.072 92.5938 122.43 93.9525 122.43 95.6286V109.975C122.43 110.127 122.554 110.251 122.706 110.251H124.913C127.83 110.251 129.068 113.964 126.734 115.714L115.698 123.991C114.619 124.8 113.136 124.8 112.057 123.991L101.021 115.714C98.6874 113.964 99.925 110.251 102.842 110.251H105.6C105.753 110.251 105.876 110.127 105.876 109.975V95.6286Z" fill="black"/>
<defs>
<filter id="filter0_b_2843_48" x="-32.3" y="-32.3" width="234.6" height="235.412" filterUnits="userSpaceOnUse" color-interpolation-filters="sRGB">
<feFlood flood-opacity="0" result="BackgroundImageFix"/>
<feGaussianBlur in="BackgroundImageFix" stdDeviation="16.15"/>
<feComposite in2="SourceAlpha" operator="in" result="effect1_backgroundBlur_2843_48"/>
<feBlend mode="normal" in="SourceGraphic" in2="effect1_backgroundBlur_2843_48" result="shape"/>
</filter>
<linearGradient id="paint0_linear_2843_48" x1="85.0523" y1="30.2656" x2="137.446" y2="91.1698" gradientUnits="userSpaceOnUse">
<stop stop-color="#77B9C2"/>
<stop offset="1" stop-color="#649CCF"/>
</linearGradient>
<linearGradient id="paint1_linear_2843_48" x1="85.0523" y1="30.2656" x2="137.446" y2="91.1698" gradientUnits="userSpaceOnUse">
<stop stop-color="#77B9C2"/>
<stop offset="1" stop-color="#649CCF"/>
</linearGradient>
</defs>
</svg>
