<svg width="433" height="122" viewBox="0 0 433 122" fill="none" xmlns="http://www.w3.org/2000/svg">
<path d="M19.5596 1.63037L11.4846 24.1172H8.85449L0.779541 1.63037H3.51733L8.77759 16.4421C8.99292 17.0369 9.18262 17.606 9.34668 18.1494C9.521 18.6929 9.6748 19.2158 9.80811 19.7183C9.94141 20.2207 10.0593 20.7078 10.1619 21.1794C10.2644 20.7078 10.3823 20.2207 10.5156 19.7183C10.6489 19.2056 10.8027 18.6775 10.9771 18.134C11.1514 17.5803 11.3462 17.001 11.5615 16.396L16.791 1.63037H19.5596ZM28.7573 6.95215C30.1929 6.95215 31.4233 7.27002 32.4487 7.90576C33.4741 8.5415 34.2585 9.43359 34.802 10.582C35.3455 11.7202 35.6172 13.0532 35.6172 14.5811V16.1653H23.9739C24.0046 18.1443 24.4968 19.6516 25.4504 20.6873C26.4041 21.7229 27.7473 22.2407 29.4802 22.2407C30.5466 22.2407 31.49 22.1433 32.3103 21.9485C33.1306 21.7537 33.9817 21.4666 34.8635 21.0872V23.3328C34.0125 23.7122 33.1665 23.989 32.3257 24.1633C31.4951 24.3376 30.5107 24.4248 29.3726 24.4248C27.7524 24.4248 26.3374 24.0967 25.1274 23.4404C23.9277 22.7739 22.9946 21.7998 22.3281 20.5181C21.6616 19.2363 21.3284 17.6675 21.3284 15.8115C21.3284 13.9966 21.6309 12.4277 22.2358 11.105C22.8511 9.77197 23.7124 8.74658 24.8198 8.02881C25.9375 7.31104 27.25 6.95215 28.7573 6.95215ZM28.7266 9.04395C27.3628 9.04395 26.2759 9.48999 25.4658 10.3821C24.6558 11.2742 24.1738 12.52 24.02 14.1196H32.9409C32.9307 13.1147 32.7717 12.2329 32.4641 11.4741C32.1667 10.7051 31.7104 10.1104 31.0952 9.68994C30.48 9.25928 29.6904 9.04395 28.7266 9.04395ZM47.9373 6.95215C49.9368 6.95215 51.4492 7.44434 52.4746 8.42871C53.5 9.40283 54.0127 10.9717 54.0127 13.1353V24.1172H51.4902V13.3044C51.4902 11.8997 51.1672 10.8486 50.5212 10.1514C49.8855 9.4541 48.9062 9.10547 47.5835 9.10547C45.7173 9.10547 44.4048 9.63354 43.646 10.6897C42.8872 11.7458 42.5078 13.2788 42.5078 15.2886V24.1172H39.9546V7.25977H42.0156L42.4001 9.68994H42.5386C42.8975 9.09521 43.3538 8.5979 43.9075 8.198C44.4612 7.78784 45.0815 7.48022 45.7686 7.27515C46.4556 7.05981 47.1785 6.95215 47.9373 6.95215ZM65.2715 24.4248C63.1387 24.4248 61.4468 23.6968 60.1958 22.2407C58.9551 20.7847 58.3347 18.6211 58.3347 15.75C58.3347 12.8481 58.9705 10.6589 60.2419 9.18237C61.5134 7.69556 63.2053 6.95215 65.3176 6.95215C66.2097 6.95215 66.989 7.07007 67.6555 7.30591C68.322 7.54175 68.8962 7.85962 69.3782 8.25952C69.8601 8.64917 70.2651 9.09521 70.5933 9.59766H70.7778C70.7368 9.27979 70.6958 8.84399 70.6548 8.29028C70.6138 7.73657 70.5933 7.2854 70.5933 6.93677V0.18457H73.1465V24.1172H71.0854L70.7009 21.7178H70.5933C70.2754 22.2202 69.8704 22.6765 69.3782 23.0867C68.8962 23.4968 68.3169 23.825 67.6401 24.071C66.9736 24.3069 66.1841 24.4248 65.2715 24.4248ZM65.6714 22.3022C67.4761 22.3022 68.7527 21.7896 69.5012 20.7642C70.2498 19.7388 70.624 18.2161 70.624 16.196V15.7346C70.624 13.5916 70.2651 11.9458 69.5474 10.7974C68.8398 9.64893 67.5479 9.07471 65.6714 9.07471C64.1025 9.07471 62.9285 9.67969 62.1492 10.8896C61.3699 12.0894 60.9802 13.73 60.9802 15.8115C60.9802 17.8828 61.3647 19.4824 62.1338 20.6104C62.9131 21.7383 64.0923 22.3022 65.6714 22.3022ZM84.8667 6.98291C86.8765 6.98291 88.3684 7.43408 89.3425 8.33643C90.3167 9.23877 90.8037 10.6794 90.8037 12.6584V24.1172H88.9426L88.4504 21.6255H88.3274C87.8557 22.2407 87.3635 22.7585 86.8508 23.179C86.3381 23.5891 85.7434 23.9019 85.0667 24.1172C84.4001 24.3223 83.5798 24.4248 82.6057 24.4248C81.5803 24.4248 80.6677 24.2454 79.8679 23.8865C79.0784 23.5276 78.4529 22.9841 77.9915 22.2561C77.5403 21.5281 77.3147 20.6052 77.3147 19.4875C77.3147 17.8059 77.9812 16.5139 79.3142 15.6116C80.6472 14.7092 82.6775 14.217 85.405 14.135L88.312 14.012V12.9814C88.312 11.5254 87.9993 10.5051 87.3738 9.92065C86.7483 9.33618 85.8665 9.04395 84.7283 9.04395C83.8464 9.04395 83.0056 9.17212 82.2058 9.42847C81.406 9.68481 80.6472 9.9873 79.9294 10.3359L79.145 8.39795C79.9038 8.0083 80.7754 7.67505 81.7598 7.39819C82.7441 7.12134 83.7798 6.98291 84.8667 6.98291ZM88.2812 15.8115L85.7126 15.9192C83.6106 16.0012 82.1289 16.3447 81.2676 16.9497C80.4062 17.5547 79.9756 18.4109 79.9756 19.5183C79.9756 20.4822 80.2678 21.1948 80.8523 21.6562C81.4368 22.1177 82.2109 22.3484 83.1748 22.3484C84.6719 22.3484 85.8972 21.9331 86.8508 21.1025C87.8044 20.272 88.2812 19.0261 88.2812 17.365V15.8115ZM112.229 6.95215C114.229 6.95215 115.741 7.44434 116.767 8.42871C117.792 9.40283 118.305 10.9717 118.305 13.1353V24.1172H115.782V13.3044C115.782 11.8997 115.459 10.8486 114.813 10.1514C114.177 9.4541 113.198 9.10547 111.875 9.10547C110.009 9.10547 108.697 9.63354 107.938 10.6897C107.179 11.7458 106.8 13.2788 106.8 15.2886V24.1172H104.247V7.25977H106.308L106.692 9.68994H106.831C107.189 9.09521 107.646 8.5979 108.199 8.198C108.753 7.78784 109.374 7.48022 110.061 7.27515C110.748 7.05981 111.47 6.95215 112.229 6.95215ZM138.1 15.6577C138.1 17.042 137.92 18.2776 137.562 19.3645C137.203 20.4514 136.685 21.3691 136.008 22.1177C135.331 22.8662 134.511 23.4404 133.547 23.8403C132.594 24.23 131.512 24.4248 130.302 24.4248C129.174 24.4248 128.138 24.23 127.195 23.8403C126.262 23.4404 125.452 22.8662 124.765 22.1177C124.088 21.3691 123.56 20.4514 123.18 19.3645C122.811 18.2776 122.627 17.042 122.627 15.6577C122.627 13.812 122.939 12.2432 123.565 10.9512C124.19 9.64893 125.083 8.65942 126.241 7.98267C127.41 7.29565 128.8 6.95215 130.409 6.95215C131.948 6.95215 133.291 7.29565 134.439 7.98267C135.598 8.66968 136.495 9.66431 137.131 10.9666C137.777 12.2585 138.1 13.8223 138.1 15.6577ZM125.272 15.6577C125.272 17.0112 125.452 18.1853 125.811 19.1799C126.169 20.1746 126.723 20.9436 127.472 21.4871C128.22 22.0305 129.184 22.3022 130.363 22.3022C131.532 22.3022 132.491 22.0305 133.24 21.4871C133.998 20.9436 134.557 20.1746 134.916 19.1799C135.275 18.1853 135.454 17.0112 135.454 15.6577C135.454 14.3145 135.275 13.1558 134.916 12.1816C134.557 11.1973 134.003 10.4385 133.255 9.90527C132.506 9.37207 131.537 9.10547 130.348 9.10547C128.594 9.10547 127.308 9.68481 126.487 10.8435C125.677 12.0022 125.272 13.6069 125.272 15.6577ZM157.264 6.76758C159.418 6.76758 161.043 7.24438 162.14 8.198C163.248 9.15161 163.801 10.6384 163.801 12.6584V24.1172H161.233L160.541 21.7024H160.417C159.936 22.3176 159.438 22.8252 158.926 23.2251C158.413 23.625 157.818 23.9224 157.141 24.1172C156.475 24.3223 155.66 24.4248 154.696 24.4248C153.681 24.4248 152.773 24.2402 151.973 23.8711C151.174 23.4917 150.543 22.9175 150.082 22.1484C149.62 21.3794 149.389 20.4053 149.389 19.2261C149.389 17.4727 150.041 16.155 151.343 15.2732C152.655 14.3914 154.634 13.9043 157.28 13.812L160.233 13.7043V12.8123C160.233 11.6331 159.956 10.7922 159.402 10.2898C158.859 9.78735 158.09 9.53613 157.095 9.53613C156.244 9.53613 155.419 9.65918 154.619 9.90527C153.819 10.1514 153.04 10.4539 152.281 10.8127L151.112 8.25952C151.943 7.8186 152.886 7.45972 153.942 7.18286C155.009 6.90601 156.116 6.76758 157.264 6.76758ZM160.218 15.9807L158.018 16.0576C156.213 16.1191 154.947 16.4268 154.219 16.9805C153.491 17.5342 153.127 18.293 153.127 19.2568C153.127 20.0977 153.378 20.7129 153.881 21.1025C154.383 21.4819 155.044 21.6716 155.865 21.6716C157.116 21.6716 158.151 21.3179 158.972 20.6104C159.802 19.8926 160.218 18.8416 160.218 17.4573V15.9807ZM175.198 21.5024C175.67 21.5024 176.137 21.4614 176.598 21.3794C177.06 21.2871 177.48 21.1794 177.859 21.0564V23.7942C177.459 23.9685 176.942 24.1172 176.306 24.2402C175.67 24.3633 175.009 24.4248 174.322 24.4248C173.358 24.4248 172.491 24.2659 171.722 23.948C170.953 23.6199 170.343 23.061 169.892 22.2715C169.441 21.4819 169.215 20.3899 169.215 18.9954V9.84375H166.893V8.22876L169.385 6.95215L170.569 3.30688H172.845V7.09058H177.721V9.84375H172.845V18.9492C172.845 19.8105 173.061 20.4514 173.491 20.8718C173.922 21.2922 174.491 21.5024 175.198 21.5024ZM187.995 6.76758C190.149 6.76758 191.774 7.24438 192.871 8.198C193.979 9.15161 194.532 10.6384 194.532 12.6584V24.1172H191.964L191.271 21.7024H191.148C190.667 22.3176 190.169 22.8252 189.656 23.2251C189.144 23.625 188.549 23.9224 187.872 24.1172C187.206 24.3223 186.391 24.4248 185.427 24.4248C184.412 24.4248 183.504 24.2402 182.704 23.8711C181.905 23.4917 181.274 22.9175 180.812 22.1484C180.351 21.3794 180.12 20.4053 180.12 19.2261C180.12 17.4727 180.771 16.155 182.074 15.2732C183.386 14.3914 185.365 13.9043 188.011 13.812L190.964 13.7043V12.8123C190.964 11.6331 190.687 10.7922 190.133 10.2898C189.59 9.78735 188.821 9.53613 187.826 9.53613C186.975 9.53613 186.15 9.65918 185.35 9.90527C184.55 10.1514 183.771 10.4539 183.012 10.8127L181.843 8.25952C182.674 7.8186 183.617 7.45972 184.673 7.18286C185.74 6.90601 186.847 6.76758 187.995 6.76758ZM190.948 15.9807L188.749 16.0576C186.944 16.1191 185.678 16.4268 184.95 16.9805C184.222 17.5342 183.858 18.293 183.858 19.2568C183.858 20.0977 184.109 20.7129 184.612 21.1025C185.114 21.4819 185.775 21.6716 186.596 21.6716C187.847 21.6716 188.882 21.3179 189.703 20.6104C190.533 19.8926 190.948 18.8416 190.948 17.4573V15.9807ZM206.452 24.4248C204.843 24.4248 203.448 24.1121 202.269 23.4866C201.09 22.8611 200.182 21.9023 199.546 20.6104C198.911 19.3184 198.593 17.6777 198.593 15.6885C198.593 13.6172 198.941 11.9253 199.639 10.6128C200.336 9.30029 201.3 8.3313 202.53 7.70581C203.771 7.08032 205.191 6.76758 206.791 6.76758C207.806 6.76758 208.724 6.87012 209.544 7.0752C210.375 7.27002 211.077 7.51099 211.651 7.7981L210.574 10.6897C209.949 10.4333 209.308 10.218 208.652 10.0437C207.996 9.86938 207.365 9.78223 206.76 9.78223C205.765 9.78223 204.935 10.0027 204.268 10.4436C203.612 10.8845 203.12 11.5408 202.792 12.4124C202.474 13.2839 202.315 14.3657 202.315 15.6577C202.315 16.9087 202.479 17.9648 202.807 18.8262C203.135 19.6772 203.622 20.3232 204.268 20.7642C204.914 21.1948 205.709 21.4102 206.652 21.4102C207.585 21.4102 208.421 21.2974 209.159 21.0718C209.898 20.8462 210.595 20.554 211.251 20.1951V23.3328C210.605 23.7019 209.913 23.9736 209.175 24.1479C208.437 24.3325 207.529 24.4248 206.452 24.4248ZM221.926 6.76758C224.079 6.76758 225.704 7.24438 226.801 8.198C227.909 9.15161 228.462 10.6384 228.462 12.6584V24.1172H225.894L225.202 21.7024H225.079C224.597 22.3176 224.099 22.8252 223.587 23.2251C223.074 23.625 222.479 23.9224 221.802 24.1172C221.136 24.3223 220.321 24.4248 219.357 24.4248C218.342 24.4248 217.434 24.2402 216.635 23.8711C215.835 23.4917 215.204 22.9175 214.743 22.1484C214.281 21.3794 214.051 20.4053 214.051 19.2261C214.051 17.4727 214.702 16.155 216.004 15.2732C217.316 14.3914 219.295 13.9043 221.941 13.812L224.894 13.7043V12.8123C224.894 11.6331 224.617 10.7922 224.063 10.2898C223.52 9.78735 222.751 9.53613 221.756 9.53613C220.905 9.53613 220.08 9.65918 219.28 9.90527C218.48 10.1514 217.701 10.4539 216.942 10.8127L215.773 8.25952C216.604 7.8186 217.547 7.45972 218.603 7.18286C219.67 6.90601 220.777 6.76758 221.926 6.76758ZM224.879 15.9807L222.679 16.0576C220.875 16.1191 219.608 16.4268 218.88 16.9805C218.152 17.5342 217.788 18.293 217.788 19.2568C217.788 20.0977 218.039 20.7129 218.542 21.1025C219.044 21.4819 219.706 21.6716 220.526 21.6716C221.777 21.6716 222.812 21.3179 223.633 20.6104C224.463 19.8926 224.879 18.8416 224.879 17.4573V15.9807ZM239.244 24.4248C237.214 24.4248 235.584 23.6865 234.353 22.21C233.133 20.7231 232.523 18.5339 232.523 15.6423C232.523 12.72 233.143 10.5103 234.384 9.01318C235.635 7.51611 237.281 6.76758 239.321 6.76758C240.183 6.76758 240.936 6.8855 241.582 7.12134C242.228 7.34692 242.782 7.65454 243.243 8.04419C243.715 8.43384 244.115 8.86963 244.443 9.35156H244.612C244.561 9.03369 244.5 8.57739 244.428 7.98267C244.366 7.37769 244.335 6.81885 244.335 6.30615V0.18457H247.965V24.1172H245.135L244.489 21.7947H244.335C244.028 22.2869 243.638 22.7329 243.167 23.1328C242.705 23.5225 242.151 23.8352 241.505 24.071C240.87 24.3069 240.116 24.4248 239.244 24.4248ZM240.26 21.4871C241.808 21.4871 242.9 21.041 243.536 20.1489C244.171 19.2568 244.5 17.9187 244.52 16.1345V15.6577C244.52 13.7505 244.212 12.2893 243.597 11.2742C242.982 10.2488 241.859 9.73608 240.229 9.73608C238.927 9.73608 237.932 10.2642 237.245 11.3203C236.568 12.3662 236.23 13.8274 236.23 15.7039C236.23 17.5803 236.568 19.0159 237.245 20.0105C237.932 20.9949 238.937 21.4871 240.26 21.4871ZM268.222 15.5654C268.222 16.9805 268.037 18.2366 267.668 19.3337C267.299 20.4309 266.761 21.3589 266.053 22.1177C265.346 22.8662 264.495 23.4404 263.5 23.8403C262.505 24.23 261.383 24.4248 260.132 24.4248C258.963 24.4248 257.891 24.23 256.917 23.8403C255.943 23.4404 255.097 22.8662 254.379 22.1177C253.672 21.3589 253.123 20.4309 252.733 19.3337C252.344 18.2366 252.149 16.9805 252.149 15.5654C252.149 13.689 252.472 12.0996 253.118 10.7974C253.774 9.48486 254.707 8.48511 255.917 7.7981C257.127 7.11108 258.568 6.76758 260.239 6.76758C261.808 6.76758 263.192 7.11108 264.392 7.7981C265.592 8.48511 266.53 9.48486 267.207 10.7974C267.884 12.1099 268.222 13.6992 268.222 15.5654ZM255.871 15.5654C255.871 16.8062 256.02 17.8674 256.317 18.7493C256.625 19.6311 257.096 20.3079 257.732 20.7795C258.368 21.241 259.188 21.4717 260.193 21.4717C261.198 21.4717 262.018 21.241 262.654 20.7795C263.29 20.3079 263.756 19.6311 264.054 18.7493C264.351 17.8674 264.5 16.8062 264.5 15.5654C264.5 14.3247 264.351 13.2737 264.054 12.4124C263.756 11.5408 263.29 10.8794 262.654 10.4282C262.018 9.9668 261.193 9.73608 260.178 9.73608C258.681 9.73608 257.589 10.2385 256.902 11.2434C256.215 12.2483 255.871 13.689 255.871 15.5654ZM287.417 24.4248C285.9 24.4248 284.562 24.1121 283.403 23.4866C282.244 22.8611 281.342 21.9075 280.696 20.6257C280.05 19.344 279.727 17.729 279.727 15.7808C279.727 13.7402 280.065 12.074 280.742 10.782C281.429 9.47974 282.372 8.51587 283.572 7.89038C284.772 7.26489 286.135 6.95215 287.663 6.95215C288.504 6.95215 289.314 7.03931 290.094 7.21362C290.883 7.37769 291.529 7.58789 292.031 7.84424L291.262 9.98218C290.75 9.7771 290.155 9.59253 289.478 9.42847C288.812 9.2644 288.186 9.18237 287.602 9.18237C286.433 9.18237 285.459 9.43359 284.679 9.93604C283.91 10.4385 283.331 11.1768 282.941 12.1509C282.562 13.125 282.372 14.3247 282.372 15.75C282.372 17.1138 282.557 18.2776 282.926 19.2415C283.305 20.2053 283.864 20.9436 284.603 21.4563C285.351 21.9587 286.284 22.21 287.402 22.21C288.294 22.21 289.099 22.1177 289.817 21.9331C290.534 21.7383 291.186 21.5127 291.77 21.2563V23.5327C291.206 23.8198 290.575 24.0403 289.878 24.1941C289.191 24.3479 288.371 24.4248 287.417 24.4248ZM310.304 15.6577C310.304 17.042 310.125 18.2776 309.766 19.3645C309.407 20.4514 308.889 21.3691 308.212 22.1177C307.535 22.8662 306.715 23.4404 305.751 23.8403C304.798 24.23 303.716 24.4248 302.506 24.4248C301.378 24.4248 300.342 24.23 299.399 23.8403C298.466 23.4404 297.656 22.8662 296.969 22.1177C296.292 21.3691 295.764 20.4514 295.385 19.3645C295.015 18.2776 294.831 17.042 294.831 15.6577C294.831 13.812 295.144 12.2432 295.769 10.9512C296.395 9.64893 297.287 8.65942 298.445 7.98267C299.614 7.29565 301.004 6.95215 302.614 6.95215C304.152 6.95215 305.495 7.29565 306.643 7.98267C307.802 8.66968 308.699 9.66431 309.335 10.9666C309.981 12.2585 310.304 13.8223 310.304 15.6577ZM297.476 15.6577C297.476 17.0112 297.656 18.1853 298.015 19.1799C298.374 20.1746 298.927 20.9436 299.676 21.4871C300.424 22.0305 301.388 22.3022 302.567 22.3022C303.736 22.3022 304.695 22.0305 305.444 21.4871C306.202 20.9436 306.761 20.1746 307.12 19.1799C307.479 18.1853 307.658 17.0112 307.658 15.6577C307.658 14.3145 307.479 13.1558 307.12 12.1816C306.761 11.1973 306.208 10.4385 305.459 9.90527C304.71 9.37207 303.741 9.10547 302.552 9.10547C300.799 9.10547 299.512 9.68481 298.691 10.8435C297.881 12.0022 297.476 13.6069 297.476 15.6577ZM333.021 6.95215C334.877 6.95215 336.277 7.43921 337.22 8.41333C338.164 9.3772 338.635 10.9307 338.635 13.0737V24.1172H336.113V13.1968C336.113 11.833 335.816 10.8127 335.221 10.136C334.636 9.44897 333.765 9.10547 332.606 9.10547C330.976 9.10547 329.792 9.57715 329.053 10.5205C328.315 11.4639 327.946 12.8533 327.946 14.6887V24.1172H325.408V13.1968C325.408 12.2842 325.275 11.5254 325.008 10.9204C324.752 10.3154 324.362 9.86426 323.839 9.56689C323.326 9.25928 322.675 9.10547 321.886 9.10547C320.768 9.10547 319.871 9.33618 319.194 9.79761C318.517 10.259 318.025 10.946 317.718 11.8586C317.42 12.761 317.271 13.8735 317.271 15.1963V24.1172H314.718V7.25977H316.779L317.164 9.6438H317.302C317.641 9.05933 318.066 8.56714 318.579 8.16724C319.092 7.76733 319.666 7.46484 320.302 7.25977C320.937 7.05469 321.614 6.95215 322.332 6.95215C323.614 6.95215 324.685 7.19312 325.546 7.67505C326.418 8.14673 327.049 8.86963 327.438 9.84375H327.577C328.13 8.86963 328.889 8.14673 329.853 7.67505C330.817 7.19312 331.873 6.95215 333.021 6.95215ZM360.046 6.95215C362.045 6.95215 363.558 7.44434 364.583 8.42871C365.608 9.40283 366.121 10.9717 366.121 13.1353V24.1172H363.599V13.3044C363.599 11.8997 363.276 10.8486 362.63 10.1514C361.994 9.4541 361.015 9.10547 359.692 9.10547C357.826 9.10547 356.513 9.63354 355.754 10.6897C354.996 11.7458 354.616 13.2788 354.616 15.2886V24.1172H352.063V7.25977H354.124L354.509 9.68994H354.647C355.006 9.09521 355.462 8.5979 356.016 8.198C356.57 7.78784 357.19 7.48022 357.877 7.27515C358.564 7.05981 359.287 6.95215 360.046 6.95215ZM385.916 15.6577C385.916 17.042 385.737 18.2776 385.378 19.3645C385.019 20.4514 384.501 21.3691 383.824 22.1177C383.148 22.8662 382.327 23.4404 381.364 23.8403C380.41 24.23 379.328 24.4248 378.118 24.4248C376.99 24.4248 375.955 24.23 375.011 23.8403C374.078 23.4404 373.268 22.8662 372.581 22.1177C371.904 21.3691 371.376 20.4514 370.997 19.3645C370.628 18.2776 370.443 17.042 370.443 15.6577C370.443 13.812 370.756 12.2432 371.381 10.9512C372.007 9.64893 372.899 8.65942 374.058 7.98267C375.227 7.29565 376.616 6.95215 378.226 6.95215C379.764 6.95215 381.107 7.29565 382.256 7.98267C383.414 8.66968 384.312 9.66431 384.947 10.9666C385.593 12.2585 385.916 13.8223 385.916 15.6577ZM373.089 15.6577C373.089 17.0112 373.268 18.1853 373.627 19.1799C373.986 20.1746 374.54 20.9436 375.288 21.4871C376.037 22.0305 377 22.3022 378.18 22.3022C379.349 22.3022 380.307 22.0305 381.056 21.4871C381.815 20.9436 382.374 20.1746 382.732 19.1799C383.091 18.1853 383.271 17.0112 383.271 15.6577C383.271 14.3145 383.091 13.1558 382.732 12.1816C382.374 11.1973 381.82 10.4385 381.071 9.90527C380.323 9.37207 379.354 9.10547 378.164 9.10547C376.411 9.10547 375.124 9.68481 374.304 10.8435C373.494 12.0022 373.089 13.6069 373.089 15.6577ZM401.236 19.5029C401.236 20.5796 400.964 21.4871 400.42 22.2253C399.887 22.9534 399.118 23.502 398.113 23.8711C397.119 24.2402 395.929 24.4248 394.545 24.4248C393.366 24.4248 392.345 24.3325 391.484 24.1479C390.623 23.9634 389.869 23.7019 389.223 23.3635V21.0103C389.91 21.3486 390.73 21.6562 391.684 21.9331C392.638 22.21 393.612 22.3484 394.606 22.3484C396.062 22.3484 397.119 22.1125 397.775 21.6409C398.431 21.1692 398.759 20.5283 398.759 19.7183C398.759 19.2568 398.626 18.8518 398.359 18.5032C398.103 18.1443 397.667 17.8008 397.052 17.4727C396.437 17.1343 395.586 16.7651 394.499 16.3652C393.422 15.9551 392.489 15.55 391.699 15.1501C390.92 14.74 390.315 14.2427 389.885 13.6582C389.464 13.0737 389.254 12.3149 389.254 11.3818C389.254 9.95654 389.828 8.8645 390.977 8.10571C392.135 7.33667 393.653 6.95215 395.529 6.95215C396.544 6.95215 397.493 7.05469 398.375 7.25977C399.267 7.45459 400.097 7.72119 400.866 8.05957L400.005 10.1052C399.308 9.80786 398.564 9.55664 397.775 9.35156C396.985 9.14648 396.18 9.04395 395.36 9.04395C394.181 9.04395 393.273 9.23877 392.638 9.62842C392.012 10.0181 391.699 10.5513 391.699 11.228C391.699 11.751 391.843 12.1816 392.13 12.52C392.427 12.8584 392.899 13.1763 393.545 13.4736C394.191 13.771 395.042 14.1196 396.098 14.5195C397.155 14.9092 398.067 15.3142 398.836 15.7346C399.605 16.1448 400.195 16.6472 400.605 17.2419C401.025 17.8264 401.236 18.5801 401.236 19.5029ZM416.247 19.5029C416.247 20.5796 415.976 21.4871 415.432 22.2253C414.899 22.9534 414.13 23.502 413.125 23.8711C412.13 24.2402 410.941 24.4248 409.557 24.4248C408.377 24.4248 407.357 24.3325 406.496 24.1479C405.635 23.9634 404.881 23.7019 404.235 23.3635V21.0103C404.922 21.3486 405.742 21.6562 406.696 21.9331C407.649 22.21 408.624 22.3484 409.618 22.3484C411.074 22.3484 412.13 22.1125 412.787 21.6409C413.443 21.1692 413.771 20.5283 413.771 19.7183C413.771 19.2568 413.638 18.8518 413.371 18.5032C413.115 18.1443 412.679 17.8008 412.064 17.4727C411.448 17.1343 410.597 16.7651 409.51 16.3652C408.434 15.9551 407.501 15.55 406.711 15.1501C405.932 14.74 405.327 14.2427 404.896 13.6582C404.476 13.0737 404.266 12.3149 404.266 11.3818C404.266 9.95654 404.84 8.8645 405.988 8.10571C407.147 7.33667 408.665 6.95215 410.541 6.95215C411.556 6.95215 412.505 7.05469 413.386 7.25977C414.279 7.45459 415.109 7.72119 415.878 8.05957L415.017 10.1052C414.32 9.80786 413.576 9.55664 412.787 9.35156C411.997 9.14648 411.192 9.04395 410.372 9.04395C409.193 9.04395 408.285 9.23877 407.649 9.62842C407.024 10.0181 406.711 10.5513 406.711 11.228C406.711 11.751 406.855 12.1816 407.142 12.52C407.439 12.8584 407.911 13.1763 408.557 13.4736C409.203 13.771 410.054 14.1196 411.11 14.5195C412.166 14.9092 413.079 15.3142 413.848 15.7346C414.617 16.1448 415.207 16.6472 415.617 17.2419C416.037 17.8264 416.247 18.5801 416.247 19.5029ZM426.66 6.98291C428.67 6.98291 430.162 7.43408 431.136 8.33643C432.11 9.23877 432.597 10.6794 432.597 12.6584V24.1172H430.736L430.244 21.6255H430.121C429.649 22.2407 429.157 22.7585 428.644 23.179C428.132 23.5891 427.537 23.9019 426.86 24.1172C426.194 24.3223 425.373 24.4248 424.399 24.4248C423.374 24.4248 422.461 24.2454 421.661 23.8865C420.872 23.5276 420.246 22.9841 419.785 22.2561C419.334 21.5281 419.108 20.6052 419.108 19.4875C419.108 17.8059 419.775 16.5139 421.108 15.6116C422.441 14.7092 424.471 14.217 427.198 14.135L430.105 14.012V12.9814C430.105 11.5254 429.793 10.5051 429.167 9.92065C428.542 9.33618 427.66 9.04395 426.522 9.04395C425.64 9.04395 424.799 9.17212 423.999 9.42847C423.199 9.68481 422.441 9.9873 421.723 10.3359L420.938 8.39795C421.697 8.0083 422.569 7.67505 423.553 7.39819C424.538 7.12134 425.573 6.98291 426.66 6.98291ZM430.075 15.8115L427.506 15.9192C425.404 16.0012 423.922 16.3447 423.061 16.9497C422.2 17.5547 421.769 18.4109 421.769 19.5183C421.769 20.4822 422.061 21.1948 422.646 21.6562C423.23 22.1177 424.004 22.3484 424.968 22.3484C426.465 22.3484 427.691 21.9331 428.644 21.1025C429.598 20.272 430.075 19.0261 430.075 17.365V15.8115Z" fill="black"/>
<path d="M6.00826 68.1172V39.7572H12.0217V68.1172H6.00826ZM31.8069 46.0228C34.1218 46.0228 35.984 46.6564 37.3936 47.9238C38.8032 49.1782 39.508 51.1956 39.508 53.976V68.1172H33.5916V55.4502C33.5916 53.8984 33.307 52.728 32.738 51.9392C32.182 51.1503 31.3026 50.7559 30.0999 50.7559C28.2894 50.7559 27.0544 51.3702 26.3949 52.5987C25.7353 53.8273 25.4056 55.599 25.4056 57.9138V68.1172H19.4891V46.4301H24.0089L24.8042 49.2041H25.134C25.5995 48.454 26.175 47.8462 26.8604 47.3806C27.5588 46.9151 28.3282 46.5724 29.1688 46.3525C30.0223 46.1327 30.9017 46.0228 31.8069 46.0228ZM55.53 63.7914C56.1766 63.7914 56.8038 63.7268 57.4116 63.5974C58.0324 63.4681 58.6466 63.3065 59.2544 63.1125V67.5158C58.6208 67.8004 57.8319 68.0331 56.8879 68.2142C55.9568 68.4082 54.9351 68.5051 53.823 68.5051C52.5298 68.5051 51.3659 68.2982 50.3313 67.8844C49.3097 67.4577 48.5014 66.727 47.9066 65.6924C47.3246 64.6449 47.0336 63.1901 47.0336 61.3279V50.8723H44.2015V48.3699L47.4604 46.3913L49.1674 41.8134H52.9501V46.4301H59.0217V50.8723H52.9501V61.3279C52.9501 62.1555 53.1828 62.7762 53.6484 63.1901C54.1269 63.591 54.7541 63.7914 55.53 63.7914ZM73.3949 46.0228C75.3993 46.0228 77.1258 46.4107 78.5742 47.1867C80.0225 47.9496 81.1412 49.0618 81.93 50.5231C82.7189 51.9844 83.1133 53.7691 83.1133 55.877V58.7479H69.1273C69.1919 60.4161 69.6898 61.7288 70.6209 62.6857C71.565 63.6298 72.8711 64.1018 74.5394 64.1018C75.9231 64.1018 77.1904 63.9595 78.3414 63.675C79.4923 63.3905 80.6756 62.9638 81.8912 62.3948V66.9727C80.8179 67.5029 79.6928 67.8909 78.516 68.1366C77.3521 68.3823 75.936 68.5051 74.2678 68.5051C72.0952 68.5051 70.1683 68.1043 68.4871 67.3025C66.8189 66.5007 65.5063 65.2786 64.5493 63.6362C63.6053 61.9939 63.1333 59.9247 63.1333 57.4288C63.1333 54.8942 63.56 52.7862 64.4136 51.1051C65.28 49.411 66.4827 48.1436 68.0216 47.303C69.5605 46.4495 71.3516 46.0228 73.3949 46.0228ZM73.4337 50.2322C72.2827 50.2322 71.3257 50.6007 70.5627 51.3378C69.8127 52.075 69.3795 53.2324 69.2631 54.8101H77.5655C77.5525 53.9307 77.3909 53.1483 77.0805 52.4629C76.7831 51.7775 76.3304 51.2344 75.7226 50.8335C75.1278 50.4326 74.3648 50.2322 73.4337 50.2322ZM94.635 68.1172H88.7186V37.9338H94.635V68.1172ZM107.573 46.4301V68.1172H101.656V46.4301H107.573ZM104.624 37.9338C105.504 37.9338 106.26 38.1407 106.894 38.5545C107.527 38.9554 107.844 39.7119 107.844 40.8241C107.844 41.9233 107.527 42.6863 106.894 43.1131C106.26 43.5269 105.504 43.7338 104.624 43.7338C103.732 43.7338 102.969 43.5269 102.335 43.1131C101.715 42.6863 101.404 41.9233 101.404 40.8241C101.404 39.7119 101.715 38.9554 102.335 38.5545C102.969 38.1407 103.732 37.9338 104.624 37.9338ZM120.937 77.661C117.911 77.661 115.596 77.1308 113.993 76.0704C112.402 75.0229 111.607 73.5487 111.607 71.6476C111.607 70.3415 112.014 69.2487 112.829 68.3694C113.644 67.49 114.84 66.8628 116.417 66.4877C115.81 66.2291 115.279 65.8088 114.827 65.2269C114.374 64.632 114.148 64.0048 114.148 63.3453C114.148 62.5176 114.387 61.8322 114.866 61.2891C115.344 60.733 116.036 60.1898 116.941 59.6596C115.803 59.1682 114.898 58.3794 114.226 57.2931C113.566 56.2068 113.236 54.9265 113.236 53.4522C113.236 51.8745 113.579 50.5361 114.264 49.4368C114.963 48.3247 115.971 47.4776 117.29 46.8957C118.622 46.3137 120.239 46.0228 122.14 46.0228C122.541 46.0228 123.006 46.0486 123.537 46.1004C124.067 46.1521 124.552 46.2103 124.991 46.2749C125.444 46.3396 125.748 46.3913 125.903 46.4301H133.468V49.4368L130.074 50.3097C130.384 50.7882 130.617 51.2991 130.772 51.8422C130.927 52.3853 131.005 52.9608 131.005 53.5686C131.005 55.8964 130.19 57.7133 128.561 59.0195C126.944 60.3127 124.694 60.9593 121.81 60.9593C121.125 60.9205 120.478 60.8688 119.87 60.8041C119.573 61.0369 119.347 61.2826 119.191 61.5412C119.036 61.7999 118.959 62.0715 118.959 62.356C118.959 62.6405 119.075 62.8797 119.308 63.0737C119.554 63.2547 119.916 63.397 120.394 63.5004C120.886 63.591 121.493 63.6362 122.218 63.6362H125.903C128.283 63.6362 130.093 64.147 131.335 65.1687C132.589 66.1903 133.216 67.6904 133.216 69.669C133.216 72.2037 132.156 74.1694 130.035 75.5661C127.927 76.9627 124.894 77.661 120.937 77.661ZM121.189 73.8008C122.599 73.8008 123.808 73.665 124.817 73.3935C125.838 73.1348 126.621 72.7598 127.164 72.2684C127.707 71.7899 127.979 71.2144 127.979 70.5419C127.979 69.9988 127.817 69.5656 127.494 69.2423C127.183 68.9319 126.705 68.7121 126.058 68.5827C125.425 68.4534 124.61 68.3888 123.614 68.3888H120.549C119.825 68.3888 119.172 68.5051 118.59 68.7379C118.021 68.9707 117.568 69.294 117.232 69.7078C116.896 70.1346 116.728 70.626 116.728 71.1821C116.728 71.9968 117.116 72.6369 117.892 73.1025C118.681 73.568 119.78 73.8008 121.189 73.8008ZM122.14 57.3513C123.252 57.3513 124.067 57.0086 124.584 56.3232C125.101 55.6378 125.36 54.7066 125.36 53.5298C125.36 52.2237 125.088 51.2473 124.545 50.6007C124.015 49.9412 123.213 49.6114 122.14 49.6114C121.054 49.6114 120.239 49.9412 119.696 50.6007C119.153 51.2473 118.881 52.2237 118.881 53.5298C118.881 54.7066 119.146 55.6378 119.676 56.3232C120.22 57.0086 121.041 57.3513 122.14 57.3513ZM146.794 46.0228C148.799 46.0228 150.525 46.4107 151.973 47.1867C153.422 47.9496 154.54 49.0618 155.329 50.5231C156.118 51.9844 156.513 53.7691 156.513 55.877V58.7479H142.527C142.591 60.4161 143.089 61.7288 144.02 62.6857C144.964 63.6298 146.27 64.1018 147.939 64.1018C149.322 64.1018 150.59 63.9595 151.741 63.675C152.892 63.3905 154.075 62.9638 155.29 62.3948V66.9727C154.217 67.5029 153.092 67.8909 151.915 68.1366C150.751 68.3823 149.335 68.5051 147.667 68.5051C145.494 68.5051 143.568 68.1043 141.886 67.3025C140.218 66.5007 138.906 65.2786 137.949 63.6362C137.005 61.9939 136.533 59.9247 136.533 57.4288C136.533 54.8942 136.959 52.7862 137.813 51.1051C138.679 49.411 139.882 48.1436 141.421 47.303C142.96 46.4495 144.751 46.0228 146.794 46.0228ZM146.833 50.2322C145.682 50.2322 144.725 50.6007 143.962 51.3378C143.212 52.075 142.779 53.2324 142.662 54.8101H150.965C150.952 53.9307 150.79 53.1483 150.48 52.4629C150.182 51.7775 149.73 51.2344 149.122 50.8335C148.527 50.4326 147.764 50.2322 146.833 50.2322ZM149.995 37.6816C150.37 38.2765 150.855 38.936 151.45 39.6602C152.057 40.3844 152.678 41.0892 153.312 41.7746C153.946 42.46 154.495 43.0419 154.961 43.5204V44.0442H151.042C150.344 43.6303 149.581 43.1389 148.753 42.5699C147.939 41.988 147.189 41.3414 146.503 40.6301C145.805 41.3414 145.061 41.9815 144.272 42.5505C143.483 43.1066 142.746 43.6045 142.061 44.0442H138.123V43.5204C138.615 43.029 139.177 42.4471 139.811 41.7746C140.444 41.0892 141.059 40.3844 141.654 39.6602C142.248 38.936 142.727 38.2765 143.089 37.6816H149.995ZM174.436 46.0228C176.75 46.0228 178.613 46.6564 180.022 47.9238C181.432 49.1782 182.137 51.1956 182.137 53.976V68.1172H176.22V55.4502C176.22 53.8984 175.936 52.728 175.367 51.9392C174.811 51.1503 173.931 50.7559 172.729 50.7559C170.918 50.7559 169.683 51.3702 169.024 52.5987C168.364 53.8273 168.034 55.599 168.034 57.9138V68.1172H162.118V46.4301H166.638L167.433 49.2041H167.763C168.228 48.454 168.804 47.8462 169.489 47.3806C170.187 46.9151 170.957 46.5724 171.797 46.3525C172.651 46.1327 173.53 46.0228 174.436 46.0228ZM197.829 68.5051C195.682 68.5051 193.852 68.1172 192.339 67.3413C190.826 66.5524 189.675 65.3368 188.886 63.6944C188.098 62.0521 187.703 59.9506 187.703 57.39C187.703 54.739 188.149 52.5793 189.042 50.9111C189.947 49.2299 191.195 47.9949 192.785 47.2061C194.389 46.4172 196.245 46.0228 198.353 46.0228C199.853 46.0228 201.146 46.1715 202.232 46.4689C203.331 46.7534 204.288 47.0961 205.103 47.497L203.357 52.075C202.426 51.6999 201.56 51.396 200.758 51.1633C199.956 50.9176 199.154 50.7947 198.353 50.7947C197.318 50.7947 196.458 51.0404 195.773 51.5318C195.087 52.0103 194.576 52.7345 194.24 53.7044C193.904 54.6743 193.736 55.8899 193.736 57.3513C193.736 58.7867 193.917 59.9765 194.279 60.9205C194.641 61.8645 195.165 62.5693 195.85 63.0349C196.536 63.4875 197.37 63.7138 198.353 63.7138C199.581 63.7138 200.674 63.5522 201.631 63.2289C202.588 62.8926 203.519 62.4271 204.424 61.8322V66.8951C203.519 67.4641 202.569 67.8715 201.573 68.1172C200.59 68.3758 199.342 68.5051 197.829 68.5051ZM216.179 46.4301V68.1172H210.262V46.4301H216.179ZM213.23 37.9338C214.11 37.9338 214.866 38.1407 215.5 38.5545C216.133 38.9554 216.45 39.7119 216.45 40.8241C216.45 41.9233 216.133 42.6863 215.5 43.1131C214.866 43.5269 214.11 43.7338 213.23 43.7338C212.338 43.7338 211.575 43.5269 210.941 43.1131C210.32 42.6863 210.01 41.9233 210.01 40.8241C210.01 39.7119 210.32 38.9554 210.941 38.5545C211.575 38.1407 212.338 37.9338 213.23 37.9338ZM232.084 45.984C234.994 45.984 237.225 46.6176 238.777 47.885C240.329 49.1523 241.104 51.0792 241.104 53.6656V68.1172H236.973L235.828 65.1687H235.673C235.052 65.9446 234.419 66.5783 233.772 67.0697C233.125 67.5611 232.382 67.9232 231.541 68.156C230.701 68.3888 229.679 68.5051 228.476 68.5051C227.196 68.5051 226.045 68.2594 225.023 67.768C224.015 67.2766 223.219 66.5265 222.637 65.5178C222.056 64.4962 221.765 63.203 221.765 61.6382C221.765 59.3363 222.573 57.6422 224.189 56.5559C225.806 55.4567 228.231 54.8489 231.464 54.7325L235.227 54.6161V53.6656C235.227 52.5276 234.929 51.6935 234.335 51.1633C233.74 50.633 232.912 50.3679 231.852 50.3679C230.804 50.3679 229.776 50.5167 228.767 50.8141C227.759 51.1115 226.75 51.4866 225.741 51.9392L223.782 47.9432C224.933 47.3354 226.22 46.8569 227.642 46.5077C229.078 46.1586 230.558 45.984 232.084 45.984ZM235.227 58.069L232.938 58.1466C231.024 58.1983 229.692 58.541 228.942 59.1747C228.205 59.8083 227.836 60.6425 227.836 61.677C227.836 62.5823 228.101 63.2289 228.632 63.6168C229.162 63.9919 229.854 64.1794 230.707 64.1794C231.974 64.1794 233.041 63.8043 233.908 63.0543C234.787 62.3042 235.227 61.2373 235.227 59.8536V58.069ZM276.951 68.1172L274.894 61.3667H264.555L262.499 68.1172H256.02L266.029 39.6408H273.381L283.43 68.1172H276.951ZM273.459 56.3232L271.403 49.7278C271.273 49.2881 271.099 48.7256 270.879 48.0402C270.672 47.3418 270.459 46.637 270.239 45.9258C270.032 45.2016 269.864 44.5744 269.734 44.0442C269.605 44.5744 269.424 45.2339 269.191 46.0228C268.972 46.7987 268.758 47.5358 268.551 48.2342C268.344 48.9325 268.196 49.4304 268.105 49.7278L266.068 56.3232H273.459ZM299.452 46.0228C299.749 46.0228 300.092 46.0422 300.48 46.081C300.881 46.1068 301.204 46.1456 301.45 46.1974L301.003 51.7452C300.809 51.6805 300.531 51.6353 300.169 51.6094C299.82 51.5706 299.516 51.5512 299.258 51.5512C298.495 51.5512 297.751 51.6482 297.027 51.8422C296.316 52.0362 295.675 52.353 295.106 52.7927C294.537 53.2195 294.085 53.7885 293.749 54.4997C293.425 55.1981 293.264 56.058 293.264 57.0797V68.1172H287.347V46.4301H291.828L292.701 50.077H292.992C293.419 49.3398 293.949 48.6674 294.583 48.0596C295.229 47.4388 295.96 46.9474 296.775 46.5853C297.602 46.2103 298.495 46.0228 299.452 46.0228ZM315.318 63.7914C315.965 63.7914 316.592 63.7268 317.2 63.5974C317.821 63.4681 318.435 63.3065 319.043 63.1125V67.5158C318.409 67.8004 317.62 68.0331 316.676 68.2142C315.745 68.4082 314.724 68.5051 313.611 68.5051C312.318 68.5051 311.154 68.2982 310.12 67.8844C309.098 67.4577 308.29 66.727 307.695 65.6924C307.113 64.6449 306.822 63.1901 306.822 61.3279V50.8723H303.99V48.3699L307.249 46.3913L308.956 41.8134H312.738V46.4301H318.81V50.8723H312.738V61.3279C312.738 62.1555 312.971 62.7762 313.437 63.1901C313.915 63.591 314.543 63.7914 315.318 63.7914ZM330.157 46.4301V68.1172H324.241V46.4301H330.157ZM327.209 37.9338C328.088 37.9338 328.845 38.1407 329.478 38.5545C330.112 38.9554 330.429 39.7119 330.429 40.8241C330.429 41.9233 330.112 42.6863 329.478 43.1131C328.845 43.5269 328.088 43.7338 327.209 43.7338C326.316 43.7338 325.553 43.5269 324.92 43.1131C324.299 42.6863 323.989 41.9233 323.989 40.8241C323.989 39.7119 324.299 38.9554 324.92 38.5545C325.553 38.1407 326.316 37.9338 327.209 37.9338ZM349.167 50.8723H344.045V68.1172H338.129V50.8723H334.87V48.0208L338.129 46.4301V44.8395C338.129 42.9902 338.439 41.5547 339.06 40.5331C339.694 39.4986 340.58 38.7744 341.718 38.3605C342.869 37.9338 344.226 37.7204 345.791 37.7204C346.942 37.7204 347.99 37.8174 348.934 38.0114C349.878 38.1924 350.647 38.3993 351.242 38.6321L349.729 42.9773C349.276 42.835 348.785 42.7057 348.255 42.5893C347.725 42.4729 347.117 42.4147 346.431 42.4147C345.604 42.4147 344.996 42.6669 344.608 43.1713C344.233 43.6627 344.045 44.2963 344.045 45.0723V46.4301H349.167V50.8723ZM358.478 46.4301V68.1172H352.561V46.4301H358.478ZM355.529 37.9338C356.408 37.9338 357.165 38.1407 357.799 38.5545C358.432 38.9554 358.749 39.7119 358.749 40.8241C358.749 41.9233 358.432 42.6863 357.799 43.1131C357.165 43.5269 356.408 43.7338 355.529 43.7338C354.637 43.7338 353.874 43.5269 353.24 43.1131C352.619 42.6863 352.309 41.9233 352.309 40.8241C352.309 39.7119 352.619 38.9554 353.24 38.5545C353.874 38.1407 354.637 37.9338 355.529 37.9338ZM374.286 68.5051C372.14 68.5051 370.31 68.1172 368.797 67.3413C367.284 66.5524 366.133 65.3368 365.344 63.6944C364.555 62.0521 364.16 59.9506 364.16 57.39C364.16 54.739 364.607 52.5793 365.499 50.9111C366.404 49.2299 367.652 47.9949 369.243 47.2061C370.846 46.4172 372.702 46.0228 374.81 46.0228C376.31 46.0228 377.603 46.1715 378.69 46.4689C379.789 46.7534 380.746 47.0961 381.561 47.497L379.815 52.075C378.884 51.6999 378.017 51.396 377.215 51.1633C376.414 50.9176 375.612 50.7947 374.81 50.7947C373.775 50.7947 372.915 51.0404 372.23 51.5318C371.545 52.0103 371.034 52.7345 370.698 53.7044C370.361 54.6743 370.193 55.8899 370.193 57.3513C370.193 58.7867 370.374 59.9765 370.736 60.9205C371.099 61.8645 371.622 62.5693 372.308 63.0349C372.993 63.4875 373.827 63.7138 374.81 63.7138C376.039 63.7138 377.131 63.5522 378.088 63.2289C379.045 62.8926 379.976 62.4271 380.882 61.8322V66.8951C379.976 67.4641 379.026 67.8715 378.03 68.1172C377.047 68.3758 375.799 68.5051 374.286 68.5051ZM392.636 46.4301V68.1172H386.72V46.4301H392.636ZM389.688 37.9338C390.567 37.9338 391.323 38.1407 391.957 38.5545C392.591 38.9554 392.908 39.7119 392.908 40.8241C392.908 41.9233 392.591 42.6863 391.957 43.1131C391.323 43.5269 390.567 43.7338 389.688 43.7338C388.795 43.7338 388.032 43.5269 387.399 43.1131C386.778 42.6863 386.467 41.9233 386.467 40.8241C386.467 39.7119 386.778 38.9554 387.399 38.5545C388.032 38.1407 388.795 37.9338 389.688 37.9338ZM408.542 45.984C411.451 45.984 413.682 46.6176 415.234 47.885C416.786 49.1523 417.562 51.0792 417.562 53.6656V68.1172H413.43L412.286 65.1687H412.13C411.51 65.9446 410.876 66.5783 410.229 67.0697C409.583 67.5611 408.839 67.9232 407.999 68.156C407.158 68.3888 406.136 68.5051 404.934 68.5051C403.653 68.5051 402.502 68.2594 401.481 67.768C400.472 67.2766 399.677 66.5265 399.095 65.5178C398.513 64.4962 398.222 63.203 398.222 61.6382C398.222 59.3363 399.03 57.6422 400.647 56.5559C402.263 55.4567 404.688 54.8489 407.921 54.7325L411.684 54.6161V53.6656C411.684 52.5276 411.387 51.6935 410.792 51.1633C410.197 50.633 409.369 50.3679 408.309 50.3679C407.261 50.3679 406.233 50.5167 405.225 50.8141C404.216 51.1115 403.207 51.4866 402.199 51.9392L400.239 47.9432C401.39 47.3354 402.677 46.8569 404.1 46.5077C405.535 46.1586 407.016 45.984 408.542 45.984ZM411.684 58.069L409.395 58.1466C407.481 58.1983 406.149 58.541 405.399 59.1747C404.662 59.8083 404.294 60.6425 404.294 61.677C404.294 62.5823 404.559 63.2289 405.089 63.6168C405.619 63.9919 406.311 64.1794 407.164 64.1794C408.432 64.1794 409.499 63.8043 410.365 63.0543C411.245 62.3042 411.684 61.2373 411.684 59.8536V58.069ZM430.383 68.1172H424.467V37.9338H430.383V68.1172ZM13.7023 90.3591C16.5627 90.3591 18.7556 90.982 20.2812 92.2279C21.8067 93.4738 22.5695 95.368 22.5695 97.9106V112.117H18.5077L17.3827 109.219H17.2301C16.6199 109.981 15.997 110.604 15.3613 111.087C14.7257 111.571 13.9947 111.926 13.1683 112.155C12.342 112.384 11.3377 112.499 10.1554 112.499C8.89681 112.499 7.76537 112.257 6.76105 111.774C5.76945 111.291 4.98761 110.554 4.41553 109.562C3.84345 108.558 3.55741 107.286 3.55741 105.748C3.55741 103.485 4.35196 101.82 5.94107 100.752C7.53018 99.6713 9.91384 99.0738 13.0921 98.9594L16.7915 98.845V97.9106C16.7915 96.7918 16.4991 95.9718 15.9143 95.4506C15.3295 94.9294 14.5159 94.6688 13.4734 94.6688C12.4437 94.6688 11.433 94.815 10.4414 95.1074C9.44982 95.3998 8.45822 95.7684 7.46662 96.2134L5.54062 92.2851C6.67206 91.6876 7.93699 91.2172 9.33541 90.874C10.7465 90.5307 12.2022 90.3591 13.7023 90.3591ZM16.7915 102.239L14.5413 102.316C12.6598 102.366 11.3504 102.703 10.6131 103.326C9.88842 103.949 9.5261 104.769 9.5261 105.786C9.5261 106.676 9.78672 107.312 10.3079 107.693C10.8292 108.062 11.5093 108.246 12.3484 108.246C13.5942 108.246 14.643 107.877 15.4948 107.14C16.3593 106.403 16.7915 105.354 16.7915 103.994V102.239ZM40.4374 90.3973C42.8402 90.3973 44.7789 91.3316 46.2536 93.2004C47.741 95.0692 48.4847 97.8089 48.4847 101.419C48.4847 103.835 48.1351 105.869 47.4359 107.521C46.7367 109.161 45.7705 110.401 44.5373 111.24C43.3042 112.079 41.8867 112.499 40.2849 112.499C39.2551 112.499 38.3716 112.371 37.6343 112.117C36.8969 111.85 36.2676 111.513 35.7464 111.107C35.2252 110.687 34.7739 110.242 34.3925 109.772H34.0874C34.1891 110.28 34.2653 110.801 34.3162 111.335C34.367 111.869 34.3925 112.391 34.3925 112.899V121.499H28.5763V90.7977H33.3055L34.1255 93.5628H34.3925C34.7739 92.9907 35.2379 92.4631 35.7845 91.98C36.3312 91.4969 36.9859 91.1155 37.7487 90.8358C38.5242 90.5434 39.4204 90.3973 40.4374 90.3973ZM38.5687 95.0502C37.5516 95.0502 36.7444 95.2599 36.1468 95.6794C35.5493 96.099 35.1108 96.7283 34.8311 97.5673C34.5641 98.4064 34.4179 99.4679 34.3925 100.752V101.381C34.3925 102.754 34.5196 103.917 34.7739 104.871C35.0408 105.824 35.4794 106.549 36.0896 107.045C36.7126 107.541 37.5643 107.788 38.6449 107.788C39.5348 107.788 40.2658 107.541 40.8379 107.045C41.41 106.549 41.8359 105.824 42.1155 104.871C42.4079 103.905 42.5541 102.729 42.5541 101.343C42.5541 99.2581 42.23 97.6881 41.5816 96.6329C40.9332 95.5777 39.9289 95.0502 38.5687 95.0502ZM59.1063 112.117H53.2902V82.4454H59.1063V112.117ZM71.0437 90.7977V112.117H65.2275V90.7977H71.0437ZM68.1451 82.4454C69.0096 82.4454 69.7533 82.6488 70.3762 83.0556C70.9992 83.4497 71.3106 84.1934 71.3106 85.2867C71.3106 86.3673 70.9992 87.1173 70.3762 87.5369C69.7533 87.9437 69.0096 88.1471 68.1451 88.1471C67.2679 88.1471 66.5179 87.9437 65.895 87.5369C65.2847 87.1173 64.9796 86.3673 64.9796 85.2867C64.9796 84.1934 65.2847 83.4497 65.895 83.0556C66.5179 82.6488 67.2679 82.4454 68.1451 82.4454ZM85.8224 112.499C83.712 112.499 81.9132 112.117 80.4258 111.354C78.9384 110.579 77.8069 109.384 77.0314 107.769C76.2559 106.155 75.8682 104.089 75.8682 101.572C75.8682 98.9657 76.3068 96.8427 77.184 95.2027C78.0739 93.55 79.3007 92.336 80.8644 91.5605C82.4408 90.785 84.2651 90.3973 86.3373 90.3973C87.8119 90.3973 89.0832 90.5434 90.1511 90.8358C91.2317 91.1155 92.1725 91.4524 92.9734 91.8465L91.2571 96.3469C90.3418 95.9782 89.49 95.6794 88.7018 95.4506C87.9136 95.2091 87.1255 95.0883 86.3373 95.0883C85.3202 95.0883 84.4748 95.3298 83.801 95.8129C83.1273 96.2833 82.6251 96.9952 82.2946 97.9487C81.964 98.9022 81.7988 100.097 81.7988 101.534C81.7988 102.945 81.9767 104.114 82.3327 105.042C82.6887 105.971 83.2035 106.663 83.8773 107.121C84.5511 107.566 85.3711 107.788 86.3373 107.788C87.545 107.788 88.6192 107.63 89.56 107.312C90.5007 106.981 91.416 106.524 92.3059 105.939V110.916C91.416 111.475 90.4816 111.876 89.5028 112.117C88.5366 112.371 87.3098 112.499 85.8224 112.499ZM105.998 90.3591C108.858 90.3591 111.051 90.982 112.577 92.2279C114.102 93.4738 114.865 95.368 114.865 97.9106V112.117H110.803L109.678 109.219H109.526C108.915 109.981 108.292 110.604 107.657 111.087C107.021 111.571 106.29 111.926 105.464 112.155C104.637 112.384 103.633 112.499 102.451 112.499C101.192 112.499 100.061 112.257 99.0565 111.774C98.0649 111.291 97.283 110.554 96.711 109.562C96.1389 108.558 95.8528 107.286 95.8528 105.748C95.8528 103.485 96.6474 101.82 98.2365 100.752C99.8256 99.6713 102.209 99.0738 105.387 98.9594L109.087 98.845V97.9106C109.087 96.7918 108.795 95.9718 108.21 95.4506C107.625 94.9294 106.811 94.6688 105.769 94.6688C104.739 94.6688 103.728 94.815 102.737 95.1074C101.745 95.3998 100.754 95.7684 99.762 96.2134L97.836 92.2851C98.9675 91.6876 100.232 91.2172 101.631 90.874C103.042 90.5307 104.498 90.3591 105.998 90.3591ZM109.087 102.239L106.837 102.316C104.955 102.366 103.646 102.703 102.908 103.326C102.184 103.949 101.822 104.769 101.822 105.786C101.822 106.676 102.082 107.312 102.603 107.693C103.125 108.062 103.805 108.246 104.644 108.246C105.89 108.246 106.938 107.877 107.79 107.14C108.655 106.403 109.087 105.354 109.087 103.994V102.239ZM127.622 112.499C125.245 112.499 123.306 111.571 121.806 109.714C120.319 107.846 119.575 105.106 119.575 101.496C119.575 97.847 120.331 95.0883 121.844 93.2195C123.357 91.338 125.334 90.3973 127.775 90.3973C128.792 90.3973 129.688 90.5371 130.464 90.8168C131.239 91.0965 131.907 91.4715 132.466 91.9419C133.038 92.4122 133.521 92.9398 133.915 93.5246H134.106C134.03 93.1178 133.934 92.5203 133.82 91.7321C133.718 90.9312 133.667 90.1112 133.667 89.2722V82.4454H139.502V112.117H135.04L133.915 109.352H133.667C133.299 109.937 132.835 110.471 132.275 110.954C131.729 111.424 131.074 111.799 130.311 112.079C129.548 112.359 128.652 112.499 127.622 112.499ZM129.663 107.865C131.252 107.865 132.371 107.394 133.019 106.454C133.68 105.5 134.03 104.07 134.068 102.163V101.534C134.068 99.4615 133.75 97.8788 133.114 96.7855C132.479 95.6794 131.296 95.1264 129.567 95.1264C128.283 95.1264 127.279 95.6794 126.554 96.7855C125.83 97.8915 125.467 99.487 125.467 101.572C125.467 103.657 125.83 105.227 126.554 106.282C127.292 107.337 128.328 107.865 129.663 107.865ZM154.319 90.3591C157.18 90.3591 159.373 90.982 160.898 92.2279C162.424 93.4738 163.187 95.368 163.187 97.9106V112.117H159.125L158 109.219H157.847C157.237 109.981 156.614 110.604 155.978 111.087C155.343 111.571 154.612 111.926 153.785 112.155C152.959 112.384 151.955 112.499 150.772 112.499C149.514 112.499 148.382 112.257 147.378 111.774C146.386 111.291 145.605 110.554 145.033 109.562C144.46 108.558 144.174 107.286 144.174 105.748C144.174 103.485 144.969 101.82 146.558 100.752C148.147 99.6713 150.531 99.0738 153.709 98.9594L157.409 98.845V97.9106C157.409 96.7918 157.116 95.9718 156.531 95.4506C155.947 94.9294 155.133 94.6688 154.09 94.6688C153.061 94.6688 152.05 94.815 151.058 95.1074C150.067 95.3998 149.075 95.7684 148.084 96.2134L146.158 92.2851C147.289 91.6876 148.554 91.2172 149.952 90.874C151.364 90.5307 152.819 90.3591 154.319 90.3591ZM157.409 102.239L155.158 102.316C153.277 102.366 151.967 102.703 151.23 103.326C150.505 103.949 150.143 104.769 150.143 105.786C150.143 106.676 150.404 107.312 150.925 107.693C151.446 108.062 152.126 108.246 152.965 108.246C154.211 108.246 155.26 107.877 156.112 107.14C156.976 106.403 157.409 105.354 157.409 103.994V102.239ZM188.072 90.3591C190.932 90.3591 193.125 90.982 194.651 92.2279C196.176 93.4738 196.939 95.368 196.939 97.9106V112.117H192.877L191.752 109.219H191.6C190.99 109.981 190.367 110.604 189.731 111.087C189.095 111.571 188.364 111.926 187.538 112.155C186.712 112.384 185.707 112.499 184.525 112.499C183.267 112.499 182.135 112.257 181.131 111.774C180.139 111.291 179.357 110.554 178.785 109.562C178.213 108.558 177.927 107.286 177.927 105.748C177.927 103.485 178.722 101.82 180.311 100.752C181.9 99.6713 184.284 99.0738 187.462 98.9594L191.161 98.845V97.9106C191.161 96.7918 190.869 95.9718 190.284 95.4506C189.699 94.9294 188.886 94.6688 187.843 94.6688C186.813 94.6688 185.803 94.815 184.811 95.1074C183.82 95.3998 182.828 95.7684 181.836 96.2134L179.91 92.2851C181.042 91.6876 182.307 91.2172 183.705 90.874C185.116 90.5307 186.572 90.3591 188.072 90.3591ZM191.161 102.239L188.911 102.316C187.03 102.366 185.72 102.703 184.983 103.326C184.258 103.949 183.896 104.769 183.896 105.786C183.896 106.676 184.156 107.312 184.678 107.693C185.199 108.062 185.879 108.246 186.718 108.246C187.964 108.246 189.013 107.877 189.864 107.14C190.729 106.403 191.161 105.354 191.161 103.994V102.239ZM222.32 101.419C222.32 103.199 222.079 104.776 221.596 106.148C221.125 107.521 220.433 108.685 219.517 109.638C218.615 110.579 217.521 111.291 216.237 111.774C214.966 112.257 213.53 112.499 211.928 112.499C210.428 112.499 209.048 112.257 207.79 111.774C206.544 111.291 205.457 110.579 204.529 109.638C203.613 108.685 202.902 107.521 202.393 106.148C201.897 104.776 201.649 103.199 201.649 101.419C201.649 99.0547 202.069 97.0524 202.908 95.4125C203.747 93.7725 204.942 92.5267 206.493 91.6749C208.044 90.8231 209.894 90.3973 212.042 90.3973C214.038 90.3973 215.805 90.8231 217.343 91.6749C218.894 92.5267 220.108 93.7725 220.986 95.4125C221.876 97.0524 222.32 99.0547 222.32 101.419ZM207.58 101.419C207.58 102.818 207.732 103.994 208.038 104.947C208.343 105.901 208.819 106.619 209.468 107.102C210.116 107.585 210.962 107.827 212.004 107.827C213.034 107.827 213.866 107.585 214.502 107.102C215.15 106.619 215.621 105.901 215.913 104.947C216.218 103.994 216.371 102.818 216.371 101.419C216.371 100.008 216.218 98.8386 215.913 97.9106C215.621 96.9698 215.15 96.2642 214.502 95.7939C213.854 95.3235 213.008 95.0883 211.966 95.0883C210.428 95.0883 209.309 95.6159 208.61 96.6711C207.923 97.7262 207.58 99.309 207.58 101.419ZM271.977 84.2379L264.883 112.117H258.152L254.376 97.472C254.3 97.1923 254.198 96.7664 254.071 96.1943C253.944 95.6222 253.81 94.9993 253.67 94.3255C253.531 93.639 253.403 92.997 253.289 92.3995C253.187 91.7893 253.117 91.3062 253.079 90.9503C253.041 91.3062 252.965 91.783 252.85 92.3805C252.749 92.978 252.628 93.6136 252.488 94.2874C252.361 94.9612 252.234 95.5905 252.107 96.1753C251.98 96.76 251.878 97.205 251.802 97.5101L248.045 112.117H241.333L234.22 84.2379H240.036L243.602 99.4552C243.703 99.9128 243.818 100.459 243.945 101.095C244.085 101.731 244.218 102.398 244.345 103.097C244.485 103.784 244.606 104.451 244.708 105.1C244.822 105.735 244.905 106.288 244.956 106.759C245.019 106.276 245.102 105.716 245.204 105.081C245.305 104.432 245.413 103.778 245.528 103.116C245.655 102.443 245.782 101.82 245.909 101.248C246.036 100.676 246.151 100.212 246.252 99.8556L250.314 84.2379H255.901L259.963 99.8556C260.052 100.199 260.154 100.663 260.268 101.248C260.395 101.82 260.523 102.443 260.65 103.116C260.777 103.79 260.891 104.451 260.993 105.1C261.107 105.735 261.19 106.288 261.241 106.759C261.33 106.123 261.451 105.354 261.603 104.451C261.768 103.536 261.94 102.627 262.118 101.724C262.309 100.822 262.474 100.065 262.614 99.4552L266.161 84.2379H271.977ZM280.844 82.4454V88.4903C280.844 89.5455 280.806 90.5498 280.73 91.5033C280.666 92.4567 280.615 93.1305 280.577 93.5246H280.882C281.34 92.7873 281.88 92.1898 282.503 91.7321C283.139 91.2744 283.838 90.9375 284.601 90.7214C285.364 90.5053 286.184 90.3973 287.061 90.3973C288.599 90.3973 289.94 90.6706 291.084 91.2172C292.229 91.7512 293.118 92.5966 293.754 93.7534C294.39 94.8976 294.708 96.385 294.708 98.2157V112.117H288.891V99.6649C288.891 98.1394 288.612 96.9889 288.052 96.2134C287.493 95.4379 286.629 95.0502 285.459 95.0502C284.289 95.0502 283.368 95.3235 282.694 95.8701C282.02 96.4041 281.543 97.1986 281.264 98.2538C280.984 99.2963 280.844 100.574 280.844 102.087V112.117H275.028V82.4454H280.844ZM309.429 90.3591C312.289 90.3591 314.482 90.982 316.008 92.2279C317.533 93.4738 318.296 95.368 318.296 97.9106V112.117H314.234L313.109 109.219H312.957C312.347 109.981 311.724 110.604 311.088 111.087C310.452 111.571 309.721 111.926 308.895 112.155C308.069 112.384 307.064 112.499 305.882 112.499C304.624 112.499 303.492 112.257 302.488 111.774C301.496 111.291 300.714 110.554 300.142 109.562C299.57 108.558 299.284 107.286 299.284 105.748C299.284 103.485 300.079 101.82 301.668 100.752C303.257 99.6713 305.641 99.0738 308.819 98.9594L312.518 98.845V97.9106C312.518 96.7918 312.226 95.9718 311.641 95.4506C311.056 94.9294 310.243 94.6688 309.2 94.6688C308.17 94.6688 307.16 94.815 306.168 95.1074C305.177 95.3998 304.185 95.7684 303.193 96.2134L301.267 92.2851C302.399 91.6876 303.664 91.2172 305.062 90.874C306.473 90.5307 307.929 90.3591 309.429 90.3591ZM312.518 102.239L310.268 102.316C308.387 102.366 307.077 102.703 306.34 103.326C305.615 103.949 305.253 104.769 305.253 105.786C305.253 106.676 305.513 107.312 306.035 107.693C306.556 108.062 307.236 108.246 308.075 108.246C309.321 108.246 310.37 107.877 311.222 107.14C312.086 106.403 312.518 105.354 312.518 103.994V102.239ZM333.285 107.865C333.92 107.865 334.537 107.801 335.134 107.674C335.745 107.547 336.349 107.388 336.946 107.197V111.526C336.323 111.806 335.548 112.035 334.62 112.213C333.704 112.403 332.7 112.499 331.607 112.499C330.335 112.499 329.191 112.295 328.174 111.888C327.17 111.469 326.375 110.751 325.79 109.734C325.218 108.704 324.932 107.274 324.932 105.443V95.1646H322.148V92.7046L325.352 90.7596L327.03 86.2592H330.748V90.7977H336.717V95.1646H330.748V105.443C330.748 106.257 330.977 106.867 331.435 107.274C331.905 107.668 332.522 107.865 333.285 107.865ZM356.149 105.786C356.149 107.235 355.806 108.462 355.119 109.467C354.445 110.458 353.435 111.215 352.087 111.736C350.739 112.244 349.061 112.499 347.053 112.499C345.565 112.499 344.288 112.403 343.22 112.213C342.165 112.022 341.097 111.704 340.016 111.259V106.454C341.173 106.975 342.413 107.407 343.735 107.75C345.07 108.081 346.239 108.246 347.243 108.246C348.375 108.246 349.182 108.081 349.665 107.75C350.161 107.407 350.409 106.962 350.409 106.415C350.409 106.06 350.307 105.742 350.104 105.462C349.913 105.17 349.494 104.845 348.845 104.489C348.197 104.121 347.18 103.644 345.794 103.059C344.459 102.5 343.36 101.934 342.495 101.362C341.643 100.79 341.008 100.116 340.588 99.3408C340.181 98.5526 339.978 97.5546 339.978 96.3469C339.978 94.3764 340.741 92.8953 342.266 91.9037C343.805 90.8994 345.858 90.3973 348.426 90.3973C349.748 90.3973 351.006 90.5307 352.201 90.7977C353.409 91.0647 354.649 91.4906 355.92 92.0754L354.166 96.2706C353.11 95.8129 352.112 95.4379 351.172 95.1455C350.244 94.8531 349.297 94.7069 348.33 94.7069C347.479 94.7069 346.837 94.8213 346.404 95.0502C345.972 95.279 345.756 95.6286 345.756 96.099C345.756 96.4422 345.864 96.7473 346.08 97.0143C346.309 97.2813 346.741 97.58 347.377 97.9106C348.025 98.2284 348.972 98.6415 350.218 99.1501C351.426 99.6459 352.475 100.167 353.365 100.714C354.255 101.248 354.941 101.915 355.424 102.716C355.907 103.504 356.149 104.528 356.149 105.786ZM378.212 112.117L376.191 105.481H366.027L364.005 112.117H357.636L367.476 84.1235H374.703L384.581 112.117H378.212ZM374.78 100.523L372.758 94.0395C372.631 93.6073 372.459 93.0542 372.243 92.3805C372.04 91.694 371.83 91.0011 371.614 90.3019C371.411 89.59 371.245 88.9734 371.118 88.4522C370.991 88.9734 370.813 89.6218 370.584 90.3973C370.368 91.16 370.158 91.8847 369.955 92.5712C369.752 93.2576 369.605 93.7471 369.516 94.0395L367.514 100.523H374.78ZM399.512 90.3973C401.915 90.3973 403.854 91.3316 405.329 93.2004C406.816 95.0692 407.56 97.8089 407.56 101.419C407.56 103.835 407.21 105.869 406.511 107.521C405.812 109.161 404.845 110.401 403.612 111.24C402.379 112.079 400.962 112.499 399.36 112.499C398.33 112.499 397.447 112.371 396.709 112.117C395.972 111.85 395.343 111.513 394.821 111.107C394.3 110.687 393.849 110.242 393.467 109.772H393.162C393.264 110.28 393.34 110.801 393.391 111.335C393.442 111.869 393.467 112.391 393.467 112.899V121.499H387.651V90.7977H392.38L393.2 93.5628H393.467C393.849 92.9907 394.313 92.4631 394.86 91.98C395.406 91.4969 396.061 91.1155 396.824 90.8358C397.599 90.5434 398.495 90.3973 399.512 90.3973ZM397.644 95.0502C396.627 95.0502 395.819 95.2599 395.222 95.6794C394.624 96.099 394.186 96.7283 393.906 97.5673C393.639 98.4064 393.493 99.4679 393.467 100.752V101.381C393.467 102.754 393.595 103.917 393.849 104.871C394.116 105.824 394.554 106.549 395.165 107.045C395.788 107.541 396.639 107.788 397.72 107.788C398.61 107.788 399.341 107.541 399.913 107.045C400.485 106.549 400.911 105.824 401.191 104.871C401.483 103.905 401.629 102.729 401.629 101.343C401.629 99.2581 401.305 97.6881 400.657 96.6329C400.008 95.5777 399.004 95.0502 397.644 95.0502ZM424.226 90.3973C426.629 90.3973 428.568 91.3316 430.042 93.2004C431.53 95.0692 432.273 97.8089 432.273 101.419C432.273 103.835 431.924 105.869 431.225 107.521C430.525 109.161 429.559 110.401 428.326 111.24C427.093 112.079 425.675 112.499 424.074 112.499C423.044 112.499 422.16 112.371 421.423 112.117C420.686 111.85 420.056 111.513 419.535 111.107C419.014 110.687 418.563 110.242 418.181 109.772H417.876C417.978 110.28 418.054 110.801 418.105 111.335C418.156 111.869 418.181 112.391 418.181 112.899V121.499H412.365V90.7977H417.094L417.914 93.5628H418.181C418.563 92.9907 419.027 92.4631 419.573 91.98C420.12 91.4969 420.775 91.1155 421.537 90.8358C422.313 90.5434 423.209 90.3973 424.226 90.3973ZM422.357 95.0502C421.34 95.0502 420.533 95.2599 419.936 95.6794C419.338 96.099 418.9 96.7283 418.62 97.5673C418.353 98.4064 418.207 99.4679 418.181 100.752V101.381C418.181 102.754 418.308 103.917 418.563 104.871C418.83 105.824 419.268 106.549 419.878 107.045C420.501 107.541 421.353 107.788 422.434 107.788C423.324 107.788 424.055 107.541 424.627 107.045C425.199 106.549 425.625 105.824 425.904 104.871C426.197 103.905 426.343 102.729 426.343 101.343C426.343 99.2581 426.019 97.6881 425.37 96.6329C424.722 95.5777 423.718 95.0502 422.357 95.0502Z" fill="url(#paint0_linear_4196_104)"/>
<defs>
<linearGradient id="paint0_linear_4196_104" x1="217.973" y1="-3.88281" x2="247.539" y2="123.921" gradientUnits="userSpaceOnUse">
<stop stop-color="#77B9C2"/>
<stop offset="1" stop-color="#649CCF"/>
</linearGradient>
</defs>
</svg>
