<svg width="170" height="171" viewBox="0 0 170 171" fill="none" xmlns="http://www.w3.org/2000/svg">
<g filter="url(#filter0_b_2843_47)">
<path d="M0 28.05C0 12.5584 12.5584 0 28.05 0H141.95C157.442 0 170 12.5584 170 28.05V135.94C170 151.431 157.442 163.99 141.95 163.99H100.188C97.2859 163.99 94.5219 165.231 92.5942 167.401C88.5532 171.95 81.4468 171.95 77.4058 167.401C75.4781 165.231 72.7141 163.99 69.8115 163.99H28.05C12.5584 163.99 0 151.431 0 135.94V28.05Z" fill="white" fill-opacity="0.1"/>
<path fill-rule="evenodd" clip-rule="evenodd" d="M141.95 2.55H28.05C13.9667 2.55 2.55 13.9667 2.55 28.05V135.94C2.55 150.023 13.9667 161.44 28.05 161.44H69.8115C73.4428 161.44 76.9005 162.993 79.3122 165.708C82.3388 169.115 87.6612 169.115 90.6878 165.708C93.0995 162.993 96.5572 161.44 100.188 161.44H141.95C156.033 161.44 167.45 150.023 167.45 135.94V28.05C167.45 13.9667 156.033 2.55 141.95 2.55ZM28.05 0C12.5584 0 0 12.5584 0 28.05V135.94C0 151.431 12.5584 163.99 28.05 163.99H69.8115C72.7141 163.99 75.4781 165.231 77.4058 167.401C81.4468 171.95 88.5532 171.95 92.5942 167.401C94.5219 165.231 97.2859 163.99 100.188 163.99H141.95C157.442 163.99 170 151.431 170 135.94V28.05C170 12.5584 157.442 0 141.95 0H28.05Z" fill="#DFE5EC"/>
</g>
<path fill-rule="evenodd" clip-rule="evenodd" d="M75.0366 32.7344L73.1324 32.6719L73.1304 32.7344H44.3444C39.6208 32.7344 35.7915 36.5636 35.7915 41.2873V98.7867C35.7915 103.51 39.6208 107.34 44.3444 107.34H70.5767C71.0338 107.34 71.4044 106.969 71.4044 106.512C71.4044 106.055 71.0338 105.684 70.5767 105.684H44.3444C40.535 105.684 37.4469 102.596 37.4469 98.7867V41.2873C37.4469 37.4779 40.535 34.3898 44.3444 34.3898H75.0095L76.9669 34.454C80.5093 34.5703 83.3354 37.449 83.3865 40.9929L83.3933 41.4671C83.4381 44.5714 85.9673 47.0645 89.0719 47.0645C92.1732 47.0645 94.7216 49.4315 95.0093 52.4574V53.3688C95.0093 53.4416 95.0187 53.5122 95.0363 53.5794V53.7292H95.0917C95.2257 54.0058 95.5091 54.1965 95.837 54.1965C96.165 54.1965 96.4484 54.0058 96.5823 53.7292H96.6917V53.0289C96.6917 52.8112 96.6826 52.5956 96.6647 52.3826V52.3232C96.6647 41.5046 87.8945 32.7344 77.0758 32.7344H75.0366ZM82.6675 35.2787C84.1113 36.7494 85.0098 38.7554 85.0417 40.969L85.0486 41.4433C85.0802 43.6427 86.8723 45.4091 89.0719 45.4091C91.1292 45.4091 92.996 46.2244 94.367 47.5495C92.7715 41.7577 88.3441 37.1398 82.6675 35.2787Z" fill="url(#paint0_linear_2843_47)"/>
<path fill-rule="evenodd" clip-rule="evenodd" d="M82.2428 56.1562C77.5192 56.1562 73.6899 59.9855 73.6899 64.7091V122.626C73.6899 127.35 77.5192 131.179 82.2428 131.179H126.01C130.734 131.179 134.563 127.35 134.563 122.626V75.7451C134.563 64.9265 125.793 56.1562 114.974 56.1562H82.2428ZM75.3453 64.7091C75.3453 60.8998 78.4334 57.8116 82.2428 57.8116H109.451V57.8585H114.184C117.958 57.8585 121.032 60.8923 121.081 64.6664L121.091 65.4599C121.132 68.6018 123.691 71.1274 126.833 71.1274C130.176 71.1274 132.885 73.8373 132.885 77.18V81.1625H132.908V122.626C132.908 126.436 129.82 129.524 126.01 129.524H82.2428C78.4334 129.524 75.3453 126.436 75.3453 122.626V64.7091ZM122.736 64.6449C122.705 62.2402 121.683 60.0779 120.063 58.5438C126.305 60.3875 131.129 65.5368 132.509 71.9647C131.1 70.4324 129.078 69.472 126.833 69.472C124.596 69.472 122.775 67.6745 122.746 65.4384L122.736 64.6449Z" fill="url(#paint1_linear_2843_47)"/>
<path d="M46.982 47.2109C46.5249 47.2109 46.1543 47.5815 46.1543 48.0386C46.1543 48.4958 46.5249 48.8663 46.982 48.8663H70.4055C70.8626 48.8663 71.2332 48.4958 71.2332 48.0386C71.2332 47.5815 70.8626 47.2109 70.4055 47.2109H46.982Z" fill="black"/>
<path fill-rule="evenodd" clip-rule="evenodd" d="M122.702 82.9677C122.702 83.0329 122.699 83.0972 122.693 83.1605C122.699 83.2271 122.702 83.2945 122.702 83.3628C122.702 83.4202 122.7 83.4783 122.695 83.5369L122.627 83.5318C122.615 83.5767 122.601 83.6211 122.587 83.665H122.702V103.672C122.702 104.813 121.94 105.736 120.958 106.438C119.955 107.154 118.558 107.765 116.906 108.265C113.591 109.266 109.061 109.874 104.093 109.874C99.1255 109.874 94.5958 109.266 91.281 108.265C89.6287 107.765 88.2314 107.154 87.2287 106.438C86.2464 105.736 85.4849 104.813 85.4849 103.672C85.4849 102.513 85.486 101.354 85.4872 100.195V100.192C85.4893 98.0331 85.4915 95.8739 85.4862 93.7151C85.4853 93.6889 85.4849 93.6626 85.4849 93.6362L85.4849 93.2435C85.4851 92.2662 85.4862 91.2891 85.4872 90.3121C85.4895 88.0971 85.4918 85.8826 85.4849 83.6676L85.6007 83.6672C85.5672 83.5683 85.5404 83.4669 85.5211 83.3628H85.4849C85.4849 83.2945 85.4877 83.2271 85.4934 83.1606C85.4878 83.0972 85.4849 83.0329 85.4849 82.9677C85.4849 81.8657 86.3098 81.0263 87.2684 80.4219C88.2685 79.7914 89.6606 79.2542 91.3071 78.8152C94.6124 77.9337 99.1327 77.3984 104.093 77.3984C109.054 77.3984 113.574 77.9337 116.879 78.8152C118.526 79.2542 119.918 79.7914 120.918 80.4219C121.877 81.0263 122.702 81.8657 122.702 82.9677ZM116.436 80.5258C113.312 79.6233 108.948 79.0538 104.093 79.0538C99.2384 79.0538 94.8741 79.6233 91.7501 80.5258C90.1826 80.9787 88.9742 81.5021 88.1767 82.0469C87.5329 82.4866 87.2627 82.8629 87.1751 83.1464C87.2575 83.3739 87.5083 83.7078 88.1513 84.1131C88.9508 84.6172 90.1626 85.1017 91.7337 85.5207C94.8638 86.3554 99.2339 86.8815 104.093 86.8815C108.953 86.8815 113.323 86.3554 116.453 85.5207C118.024 85.1017 119.236 84.6172 120.035 84.1131C120.678 83.7078 120.929 83.3739 121.011 83.1464C120.924 82.8629 120.654 82.4866 120.01 82.0469C119.212 81.5021 118.004 80.9787 116.436 80.5258ZM120.918 85.5135C120.961 85.4863 121.004 85.4588 121.046 85.4307V93.6362C121.046 93.9296 120.835 94.3888 120.01 94.9521C119.212 95.4968 118.004 96.0203 116.436 96.4732C113.312 97.3756 108.948 97.9451 104.093 97.9451C99.2384 97.9451 94.8741 97.3756 91.7501 96.4732C90.1826 96.0203 88.9742 95.4968 88.1767 94.9521C87.3873 94.4129 87.1595 93.9691 87.1415 93.6748L87.1403 93.2546C87.1405 92.2814 87.1415 91.3071 87.1426 90.332V90.3066C87.1443 88.6833 87.146 87.058 87.144 85.4332C87.1852 85.4604 87.2267 85.4871 87.2684 85.5135C88.2685 86.144 89.6606 86.6811 91.3071 87.1202C94.6124 88.0016 99.1327 88.5369 104.093 88.5369C109.054 88.5369 113.574 88.0016 116.879 87.1202C118.526 86.6811 119.918 86.144 120.918 85.5135ZM120.944 96.3191C120.978 96.2955 121.012 96.2716 121.046 96.2475V103.672C121.046 104.016 120.813 104.507 119.995 105.091C119.199 105.66 117.992 106.207 116.427 106.68C113.306 107.623 108.945 108.218 104.093 108.218C99.2411 108.218 94.8803 107.623 91.7599 106.68C90.1944 106.207 88.9879 105.66 88.1911 105.091C87.3738 104.507 87.1403 104.016 87.1403 103.672C87.1403 102.521 87.1414 101.368 87.1426 100.215V100.201L87.1426 100.195C87.1439 98.8812 87.1452 97.566 87.1448 96.2507C87.1773 96.2738 87.2101 96.2966 87.243 96.3191C88.245 97.0034 89.6406 97.5868 91.2907 98.0635C94.602 99.0201 99.1282 99.6005 104.093 99.6005C109.058 99.6005 113.585 99.0201 116.896 98.0635C118.546 97.5868 119.942 97.0034 120.944 96.3191Z" fill="black"/>
<path d="M46.1543 62.8043C46.1543 62.3471 46.5249 61.9766 46.982 61.9766H66.0678C66.5249 61.9766 66.8955 62.3471 66.8955 62.8043C66.8955 63.2614 66.5249 63.632 66.0678 63.632H46.982C46.5249 63.632 46.1543 63.2614 46.1543 62.8043Z" fill="black"/>
<path d="M46.982 55.0234C46.5249 55.0234 46.1543 55.394 46.1543 55.8511C46.1543 56.3083 46.5249 56.6788 46.982 56.6788H59.1275C59.5846 56.6788 59.9552 56.3083 59.9552 55.8511C59.9552 55.394 59.5846 55.0234 59.1275 55.0234H46.982Z" fill="black"/>
<path d="M46.1543 69.7339C46.1543 69.2768 46.5249 68.9062 46.982 68.9062H55.6574C56.1145 68.9062 56.4851 69.2768 56.4851 69.7339C56.4851 70.1911 56.1145 70.5616 55.6574 70.5616H46.982C46.5249 70.5616 46.1543 70.1911 46.1543 69.7339Z" fill="black"/>
<path d="M50.1377 111.226C50.1377 110.769 50.5083 110.398 50.9654 110.398C51.4225 110.398 51.7931 110.769 51.7931 111.226L51.7931 120.59C51.7931 122.571 53.3987 124.176 55.3798 124.176H62.7621L58.9076 120.322C58.5844 119.998 58.5844 119.474 58.9076 119.151C59.2309 118.828 59.7549 118.828 60.0782 119.151L65.3456 124.419C65.6688 124.742 65.6688 125.266 65.3456 125.589L60.0782 130.857C59.7549 131.18 59.2309 131.18 58.9076 130.857C58.5844 130.533 58.5844 130.009 58.9076 129.686L62.7621 125.831H55.3798C52.4848 125.831 50.1377 123.485 50.1377 120.59L50.1377 111.226Z" fill="black"/>
<defs>
<filter id="filter0_b_2843_47" x="-32.3" y="-32.3" width="234.6" height="235.412" filterUnits="userSpaceOnUse" color-interpolation-filters="sRGB">
<feFlood flood-opacity="0" result="BackgroundImageFix"/>
<feGaussianBlur in="BackgroundImageFix" stdDeviation="16.15"/>
<feComposite in2="SourceAlpha" operator="in" result="effect1_backgroundBlur_2843_47"/>
<feBlend mode="normal" in="SourceGraphic" in2="effect1_backgroundBlur_2843_47" result="shape"/>
</filter>
<linearGradient id="paint0_linear_2843_47" x1="85.1773" y1="32.6719" x2="138.562" y2="97.2684" gradientUnits="userSpaceOnUse">
<stop stop-color="#77B9C2"/>
<stop offset="1" stop-color="#649CCF"/>
</linearGradient>
<linearGradient id="paint1_linear_2843_47" x1="85.1773" y1="32.6719" x2="138.562" y2="97.2684" gradientUnits="userSpaceOnUse">
<stop stop-color="#77B9C2"/>
<stop offset="1" stop-color="#649CCF"/>
</linearGradient>
</defs>
</svg>
