<svg width="433" height="122" viewBox="0 0 433 122" fill="none" xmlns="http://www.w3.org/2000/svg">
<path d="M19.0869 1.63037L11.012 24.1172H8.38184L0.306885 1.63037H3.04468L8.30493 16.4421C8.52026 17.0369 8.70996 17.606 8.87402 18.1494C9.04834 18.6929 9.20215 19.2158 9.33545 19.7183C9.46875 20.2207 9.58667 20.7078 9.68921 21.1794C9.79175 20.7078 9.90967 20.2207 10.043 19.7183C10.1763 19.2056 10.3301 18.6775 10.5044 18.134C10.6787 17.5803 10.8735 17.001 11.0889 16.396L16.3184 1.63037H19.0869ZM28.2847 6.95215C29.7202 6.95215 30.9507 7.27002 31.9761 7.90576C33.0015 8.5415 33.7859 9.43359 34.3293 10.582C34.8728 11.7202 35.1445 13.0532 35.1445 14.5811V16.1653H23.5012C23.532 18.1443 24.0242 19.6516 24.9778 20.6873C25.9314 21.7229 27.2747 22.2407 29.0076 22.2407C30.074 22.2407 31.0173 22.1433 31.8376 21.9485C32.658 21.7537 33.509 21.4666 34.3909 21.0872V23.3328C33.5398 23.7122 32.6938 23.989 31.853 24.1633C31.0225 24.3376 30.0381 24.4248 28.8999 24.4248C27.2798 24.4248 25.8647 24.0967 24.6548 23.4404C23.4551 22.7739 22.522 21.7998 21.8555 20.5181C21.189 19.2363 20.8557 17.6675 20.8557 15.8115C20.8557 13.9966 21.1582 12.4277 21.7632 11.105C22.3784 9.77197 23.2397 8.74658 24.3472 8.02881C25.4648 7.31104 26.7773 6.95215 28.2847 6.95215ZM28.2539 9.04395C26.8901 9.04395 25.8032 9.48999 24.9932 10.3821C24.1831 11.2742 23.7012 12.52 23.5474 14.1196H32.4683C32.458 13.1147 32.2991 12.2329 31.9915 11.4741C31.6941 10.7051 31.2378 10.1104 30.6226 9.68994C30.0073 9.25928 29.2178 9.04395 28.2539 9.04395ZM47.4646 6.95215C49.4641 6.95215 50.9766 7.44434 52.002 8.42871C53.0273 9.40283 53.54 10.9717 53.54 13.1353V24.1172H51.0176V13.3044C51.0176 11.8997 50.6946 10.8486 50.0486 10.1514C49.4128 9.4541 48.4336 9.10547 47.1108 9.10547C45.2446 9.10547 43.9321 9.63354 43.1733 10.6897C42.4146 11.7458 42.0352 13.2788 42.0352 15.2886V24.1172H39.4819V7.25977H41.543L41.9275 9.68994H42.0659C42.4248 9.09521 42.8811 8.5979 43.4348 8.198C43.9885 7.78784 44.6089 7.48022 45.2959 7.27515C45.9829 7.05981 46.7058 6.95215 47.4646 6.95215ZM64.7988 24.4248C62.666 24.4248 60.9741 23.6968 59.7231 22.2407C58.4824 20.7847 57.8621 18.6211 57.8621 15.75C57.8621 12.8481 58.4978 10.6589 59.7693 9.18237C61.0408 7.69556 62.7327 6.95215 64.845 6.95215C65.7371 6.95215 66.5164 7.07007 67.1829 7.30591C67.8494 7.54175 68.4236 7.85962 68.9055 8.25952C69.3875 8.64917 69.7925 9.09521 70.1206 9.59766H70.3052C70.2642 9.27979 70.2231 8.84399 70.1821 8.29028C70.1411 7.73657 70.1206 7.2854 70.1206 6.93677V0.18457H72.6738V24.1172H70.6128L70.2283 21.7178H70.1206C69.8027 22.2202 69.3977 22.6765 68.9055 23.0867C68.4236 23.4968 67.8442 23.825 67.1675 24.071C66.501 24.3069 65.7114 24.4248 64.7988 24.4248ZM65.1987 22.3022C67.0034 22.3022 68.28 21.7896 69.0286 20.7642C69.7771 19.7388 70.1514 18.2161 70.1514 16.196V15.7346C70.1514 13.5916 69.7925 11.9458 69.0747 10.7974C68.3672 9.64893 67.0752 9.07471 65.1987 9.07471C63.6299 9.07471 62.4558 9.67969 61.6765 10.8896C60.8972 12.0894 60.5076 13.73 60.5076 15.8115C60.5076 17.8828 60.8921 19.4824 61.6611 20.6104C62.4404 21.7383 63.6196 22.3022 65.1987 22.3022ZM84.394 6.98291C86.4038 6.98291 87.8958 7.43408 88.8699 8.33643C89.844 9.23877 90.3311 10.6794 90.3311 12.6584V24.1172H88.47L87.9778 21.6255H87.8547C87.3831 22.2407 86.8909 22.7585 86.3782 23.179C85.8655 23.5891 85.2708 23.9019 84.594 24.1172C83.9275 24.3223 83.1072 24.4248 82.1331 24.4248C81.1077 24.4248 80.1951 24.2454 79.3953 23.8865C78.6057 23.5276 77.9802 22.9841 77.5188 22.2561C77.0676 21.5281 76.842 20.6052 76.842 19.4875C76.842 17.8059 77.5085 16.5139 78.8416 15.6116C80.1746 14.7092 82.2048 14.217 84.9324 14.135L87.8394 14.012V12.9814C87.8394 11.5254 87.5266 10.5051 86.9011 9.92065C86.2756 9.33618 85.3938 9.04395 84.2556 9.04395C83.3738 9.04395 82.533 9.17212 81.7332 9.42847C80.9333 9.68481 80.1746 9.9873 79.4568 10.3359L78.6724 8.39795C79.4312 8.0083 80.3027 7.67505 81.2871 7.39819C82.2715 7.12134 83.3071 6.98291 84.394 6.98291ZM87.8086 15.8115L85.24 15.9192C83.1379 16.0012 81.6562 16.3447 80.7949 16.9497C79.9336 17.5547 79.5029 18.4109 79.5029 19.5183C79.5029 20.4822 79.7952 21.1948 80.3796 21.6562C80.9641 22.1177 81.7383 22.3484 82.7021 22.3484C84.1992 22.3484 85.4246 21.9331 86.3782 21.1025C87.3318 20.272 87.8086 19.0261 87.8086 17.365V15.8115ZM111.757 6.95215C113.756 6.95215 115.269 7.44434 116.294 8.42871C117.319 9.40283 117.832 10.9717 117.832 13.1353V24.1172H115.31V13.3044C115.31 11.8997 114.987 10.8486 114.341 10.1514C113.705 9.4541 112.726 9.10547 111.403 9.10547C109.537 9.10547 108.224 9.63354 107.465 10.6897C106.707 11.7458 106.327 13.2788 106.327 15.2886V24.1172H103.774V7.25977H105.835L106.219 9.68994H106.358C106.717 9.09521 107.173 8.5979 107.727 8.198C108.281 7.78784 108.901 7.48022 109.588 7.27515C110.275 7.05981 110.998 6.95215 111.757 6.95215ZM137.627 15.6577C137.627 17.042 137.448 18.2776 137.089 19.3645C136.73 20.4514 136.212 21.3691 135.535 22.1177C134.859 22.8662 134.038 23.4404 133.074 23.8403C132.121 24.23 131.039 24.4248 129.829 24.4248C128.701 24.4248 127.666 24.23 126.722 23.8403C125.789 23.4404 124.979 22.8662 124.292 22.1177C123.615 21.3691 123.087 20.4514 122.708 19.3645C122.339 18.2776 122.154 17.042 122.154 15.6577C122.154 13.812 122.467 12.2432 123.092 10.9512C123.718 9.64893 124.61 8.65942 125.769 7.98267C126.938 7.29565 128.327 6.95215 129.937 6.95215C131.475 6.95215 132.818 7.29565 133.967 7.98267C135.125 8.66968 136.022 9.66431 136.658 10.9666C137.304 12.2585 137.627 13.8223 137.627 15.6577ZM124.8 15.6577C124.8 17.0112 124.979 18.1853 125.338 19.1799C125.697 20.1746 126.25 20.9436 126.999 21.4871C127.748 22.0305 128.711 22.3022 129.891 22.3022C131.06 22.3022 132.018 22.0305 132.767 21.4871C133.526 20.9436 134.084 20.1746 134.443 19.1799C134.802 18.1853 134.982 17.0112 134.982 15.6577C134.982 14.3145 134.802 13.1558 134.443 12.1816C134.084 11.1973 133.531 10.4385 132.782 9.90527C132.034 9.37207 131.065 9.10547 129.875 9.10547C128.122 9.10547 126.835 9.68481 126.015 10.8435C125.205 12.0022 124.8 13.6069 124.8 15.6577ZM156.792 6.76758C158.945 6.76758 160.57 7.24438 161.667 8.198C162.775 9.15161 163.329 10.6384 163.329 12.6584V24.1172H160.76L160.068 21.7024H159.945C159.463 22.3176 158.966 22.8252 158.453 23.2251C157.94 23.625 157.345 23.9224 156.669 24.1172C156.002 24.3223 155.187 24.4248 154.223 24.4248C153.208 24.4248 152.301 24.2402 151.501 23.8711C150.701 23.4917 150.07 22.9175 149.609 22.1484C149.147 21.3794 148.917 20.4053 148.917 19.2261C148.917 17.4727 149.568 16.155 150.87 15.2732C152.183 14.3914 154.162 13.9043 156.807 13.812L159.76 13.7043V12.8123C159.76 11.6331 159.483 10.7922 158.93 10.2898C158.386 9.78735 157.617 9.53613 156.623 9.53613C155.771 9.53613 154.946 9.65918 154.146 9.90527C153.346 10.1514 152.567 10.4539 151.808 10.8127L150.639 8.25952C151.47 7.8186 152.413 7.45972 153.469 7.18286C154.536 6.90601 155.643 6.76758 156.792 6.76758ZM159.745 15.9807L157.545 16.0576C155.741 16.1191 154.474 16.4268 153.746 16.9805C153.018 17.5342 152.654 18.293 152.654 19.2568C152.654 20.0977 152.906 20.7129 153.408 21.1025C153.91 21.4819 154.572 21.6716 155.392 21.6716C156.643 21.6716 157.679 21.3179 158.499 20.6104C159.33 19.8926 159.745 18.8416 159.745 17.4573V15.9807ZM174.726 21.5024C175.198 21.5024 175.664 21.4614 176.125 21.3794C176.587 21.2871 177.007 21.1794 177.387 21.0564V23.7942C176.987 23.9685 176.469 24.1172 175.833 24.2402C175.198 24.3633 174.536 24.4248 173.849 24.4248C172.885 24.4248 172.019 24.2659 171.25 23.948C170.481 23.6199 169.871 23.061 169.419 22.2715C168.968 21.4819 168.743 20.3899 168.743 18.9954V9.84375H166.42V8.22876L168.912 6.95215L170.096 3.30688H172.373V7.09058H177.248V9.84375H172.373V18.9492C172.373 19.8105 172.588 20.4514 173.019 20.8718C173.449 21.2922 174.018 21.5024 174.726 21.5024ZM187.523 6.76758C189.676 6.76758 191.301 7.24438 192.398 8.198C193.506 9.15161 194.06 10.6384 194.06 12.6584V24.1172H191.491L190.799 21.7024H190.676C190.194 22.3176 189.697 22.8252 189.184 23.2251C188.671 23.625 188.076 23.9224 187.4 24.1172C186.733 24.3223 185.918 24.4248 184.954 24.4248C183.939 24.4248 183.031 24.2402 182.232 23.8711C181.432 23.4917 180.801 22.9175 180.34 22.1484C179.878 21.3794 179.648 20.4053 179.648 19.2261C179.648 17.4727 180.299 16.155 181.601 15.2732C182.914 14.3914 184.893 13.9043 187.538 13.812L190.491 13.7043V12.8123C190.491 11.6331 190.214 10.7922 189.661 10.2898C189.117 9.78735 188.348 9.53613 187.354 9.53613C186.502 9.53613 185.677 9.65918 184.877 9.90527C184.077 10.1514 183.298 10.4539 182.539 10.8127L181.37 8.25952C182.201 7.8186 183.144 7.45972 184.2 7.18286C185.267 6.90601 186.374 6.76758 187.523 6.76758ZM190.476 15.9807L188.276 16.0576C186.472 16.1191 185.205 16.4268 184.477 16.9805C183.749 17.5342 183.385 18.293 183.385 19.2568C183.385 20.0977 183.636 20.7129 184.139 21.1025C184.641 21.4819 185.303 21.6716 186.123 21.6716C187.374 21.6716 188.41 21.3179 189.23 20.6104C190.061 19.8926 190.476 18.8416 190.476 17.4573V15.9807ZM205.98 24.4248C204.37 24.4248 202.975 24.1121 201.796 23.4866C200.617 22.8611 199.709 21.9023 199.074 20.6104C198.438 19.3184 198.12 17.6777 198.12 15.6885C198.12 13.6172 198.469 11.9253 199.166 10.6128C199.863 9.30029 200.827 8.3313 202.058 7.70581C203.298 7.08032 204.719 6.76758 206.318 6.76758C207.333 6.76758 208.251 6.87012 209.071 7.0752C209.902 7.27002 210.604 7.51099 211.178 7.7981L210.102 10.6897C209.476 10.4333 208.835 10.218 208.179 10.0437C207.523 9.86938 206.892 9.78223 206.287 9.78223C205.293 9.78223 204.462 10.0027 203.796 10.4436C203.139 10.8845 202.647 11.5408 202.319 12.4124C202.001 13.2839 201.842 14.3657 201.842 15.6577C201.842 16.9087 202.006 17.9648 202.334 18.8262C202.663 19.6772 203.15 20.3232 203.796 20.7642C204.442 21.1948 205.236 21.4102 206.18 21.4102C207.113 21.4102 207.948 21.2974 208.687 21.0718C209.425 20.8462 210.122 20.554 210.779 20.1951V23.3328C210.133 23.7019 209.44 23.9736 208.702 24.1479C207.964 24.3325 207.056 24.4248 205.98 24.4248ZM221.453 6.76758C223.606 6.76758 225.231 7.24438 226.329 8.198C227.436 9.15161 227.99 10.6384 227.99 12.6584V24.1172H225.421L224.729 21.7024H224.606C224.124 22.3176 223.627 22.8252 223.114 23.2251C222.601 23.625 222.007 23.9224 221.33 24.1172C220.663 24.3223 219.848 24.4248 218.884 24.4248C217.869 24.4248 216.962 24.2402 216.162 23.8711C215.362 23.4917 214.731 22.9175 214.27 22.1484C213.809 21.3794 213.578 20.4053 213.578 19.2261C213.578 17.4727 214.229 16.155 215.531 15.2732C216.844 14.3914 218.823 13.9043 221.468 13.812L224.421 13.7043V12.8123C224.421 11.6331 224.145 10.7922 223.591 10.2898C223.047 9.78735 222.278 9.53613 221.284 9.53613C220.433 9.53613 219.607 9.65918 218.807 9.90527C218.008 10.1514 217.228 10.4539 216.469 10.8127L215.301 8.25952C216.131 7.8186 217.074 7.45972 218.131 7.18286C219.197 6.90601 220.304 6.76758 221.453 6.76758ZM224.406 15.9807L222.207 16.0576C220.402 16.1191 219.135 16.4268 218.407 16.9805C217.679 17.5342 217.315 18.293 217.315 19.2568C217.315 20.0977 217.567 20.7129 218.069 21.1025C218.572 21.4819 219.233 21.6716 220.053 21.6716C221.304 21.6716 222.34 21.3179 223.16 20.6104C223.991 19.8926 224.406 18.8416 224.406 17.4573V15.9807ZM238.772 24.4248C236.741 24.4248 235.111 23.6865 233.881 22.21C232.66 20.7231 232.05 18.5339 232.05 15.6423C232.05 12.72 232.671 10.5103 233.911 9.01318C235.162 7.51611 236.808 6.76758 238.849 6.76758C239.71 6.76758 240.464 6.8855 241.11 7.12134C241.756 7.34692 242.309 7.65454 242.771 8.04419C243.242 8.43384 243.642 8.86963 243.97 9.35156H244.14C244.088 9.03369 244.027 8.57739 243.955 7.98267C243.894 7.37769 243.863 6.81885 243.863 6.30615V0.18457H247.493V24.1172H244.663L244.017 21.7947H243.863C243.555 22.2869 243.166 22.7329 242.694 23.1328C242.232 23.5225 241.679 23.8352 241.033 24.071C240.397 24.3069 239.643 24.4248 238.772 24.4248ZM239.787 21.4871C241.335 21.4871 242.427 21.041 243.063 20.1489C243.699 19.2568 244.027 17.9187 244.047 16.1345V15.6577C244.047 13.7505 243.74 12.2893 243.125 11.2742C242.509 10.2488 241.386 9.73608 239.756 9.73608C238.454 9.73608 237.459 10.2642 236.772 11.3203C236.095 12.3662 235.757 13.8274 235.757 15.7039C235.757 17.5803 236.095 19.0159 236.772 20.0105C237.459 20.9949 238.464 21.4871 239.787 21.4871ZM267.749 15.5654C267.749 16.9805 267.565 18.2366 267.196 19.3337C266.826 20.4309 266.288 21.3589 265.581 22.1177C264.873 22.8662 264.022 23.4404 263.027 23.8403C262.033 24.23 260.91 24.4248 259.659 24.4248C258.49 24.4248 257.418 24.23 256.444 23.8403C255.47 23.4404 254.624 22.8662 253.906 22.1177C253.199 21.3589 252.65 20.4309 252.261 19.3337C251.871 18.2366 251.676 16.9805 251.676 15.5654C251.676 13.689 251.999 12.0996 252.645 10.7974C253.302 9.48486 254.235 8.48511 255.445 7.7981C256.655 7.11108 258.095 6.76758 259.767 6.76758C261.335 6.76758 262.72 7.11108 263.919 7.7981C265.119 8.48511 266.057 9.48486 266.734 10.7974C267.411 12.1099 267.749 13.6992 267.749 15.5654ZM255.398 15.5654C255.398 16.8062 255.547 17.8674 255.844 18.7493C256.152 19.6311 256.624 20.3079 257.26 20.7795C257.895 21.241 258.716 21.4717 259.72 21.4717C260.725 21.4717 261.546 21.241 262.181 20.7795C262.817 20.3079 263.284 19.6311 263.581 18.7493C263.878 17.8674 264.027 16.8062 264.027 15.5654C264.027 14.3247 263.878 13.2737 263.581 12.4124C263.284 11.5408 262.817 10.8794 262.181 10.4282C261.546 9.9668 260.72 9.73608 259.705 9.73608C258.208 9.73608 257.116 10.2385 256.429 11.2434C255.742 12.2483 255.398 13.689 255.398 15.5654ZM286.945 24.4248C285.427 24.4248 284.089 24.1121 282.93 23.4866C281.771 22.8611 280.869 21.9075 280.223 20.6257C279.577 19.344 279.254 17.729 279.254 15.7808C279.254 13.7402 279.593 12.074 280.269 10.782C280.956 9.47974 281.9 8.51587 283.099 7.89038C284.299 7.26489 285.663 6.95215 287.191 6.95215C288.031 6.95215 288.842 7.03931 289.621 7.21362C290.41 7.37769 291.056 7.58789 291.559 7.84424L290.79 9.98218C290.277 9.7771 289.682 9.59253 289.006 9.42847C288.339 9.2644 287.714 9.18237 287.129 9.18237C285.96 9.18237 284.986 9.43359 284.207 9.93604C283.438 10.4385 282.858 11.1768 282.469 12.1509C282.089 13.125 281.9 14.3247 281.9 15.75C281.9 17.1138 282.084 18.2776 282.453 19.2415C282.833 20.2053 283.392 20.9436 284.13 21.4563C284.878 21.9587 285.812 22.21 286.929 22.21C287.821 22.21 288.626 22.1177 289.344 21.9331C290.062 21.7383 290.713 21.5127 291.297 21.2563V23.5327C290.733 23.8198 290.103 24.0403 289.406 24.1941C288.719 24.3479 287.898 24.4248 286.945 24.4248ZM309.831 15.6577C309.831 17.042 309.652 18.2776 309.293 19.3645C308.934 20.4514 308.416 21.3691 307.74 22.1177C307.063 22.8662 306.242 23.4404 305.279 23.8403C304.325 24.23 303.243 24.4248 302.033 24.4248C300.905 24.4248 299.87 24.23 298.926 23.8403C297.993 23.4404 297.183 22.8662 296.496 22.1177C295.819 21.3691 295.291 20.4514 294.912 19.3645C294.543 18.2776 294.358 17.042 294.358 15.6577C294.358 13.812 294.671 12.2432 295.296 10.9512C295.922 9.64893 296.814 8.65942 297.973 7.98267C299.142 7.29565 300.531 6.95215 302.141 6.95215C303.679 6.95215 305.022 7.29565 306.171 7.98267C307.329 8.66968 308.227 9.66431 308.862 10.9666C309.508 12.2585 309.831 13.8223 309.831 15.6577ZM297.004 15.6577C297.004 17.0112 297.183 18.1853 297.542 19.1799C297.901 20.1746 298.455 20.9436 299.203 21.4871C299.952 22.0305 300.916 22.3022 302.095 22.3022C303.264 22.3022 304.222 22.0305 304.971 21.4871C305.73 20.9436 306.289 20.1746 306.647 19.1799C307.006 18.1853 307.186 17.0112 307.186 15.6577C307.186 14.3145 307.006 13.1558 306.647 12.1816C306.289 11.1973 305.735 10.4385 304.986 9.90527C304.238 9.37207 303.269 9.10547 302.079 9.10547C300.326 9.10547 299.039 9.68481 298.219 10.8435C297.409 12.0022 297.004 13.6069 297.004 15.6577ZM332.549 6.95215C334.405 6.95215 335.804 7.43921 336.748 8.41333C337.691 9.3772 338.163 10.9307 338.163 13.0737V24.1172H335.64V13.1968C335.64 11.833 335.343 10.8127 334.748 10.136C334.164 9.44897 333.292 9.10547 332.134 9.10547C330.503 9.10547 329.319 9.57715 328.581 10.5205C327.842 11.4639 327.473 12.8533 327.473 14.6887V24.1172H324.935V13.1968C324.935 12.2842 324.802 11.5254 324.535 10.9204C324.279 10.3154 323.889 9.86426 323.366 9.56689C322.854 9.25928 322.203 9.10547 321.413 9.10547C320.295 9.10547 319.398 9.33618 318.721 9.79761C318.045 10.259 317.552 10.946 317.245 11.8586C316.948 12.761 316.799 13.8735 316.799 15.1963V24.1172H314.246V7.25977H316.307L316.691 9.6438H316.83C317.168 9.05933 317.594 8.56714 318.106 8.16724C318.619 7.76733 319.193 7.46484 319.829 7.25977C320.465 7.05469 321.141 6.95215 321.859 6.95215C323.141 6.95215 324.212 7.19312 325.074 7.67505C325.945 8.14673 326.576 8.86963 326.966 9.84375H327.104C327.658 8.86963 328.417 8.14673 329.38 7.67505C330.344 7.19312 331.4 6.95215 332.549 6.95215ZM359.573 6.95215C361.573 6.95215 363.085 7.44434 364.11 8.42871C365.136 9.40283 365.648 10.9717 365.648 13.1353V24.1172H363.126V13.3044C363.126 11.8997 362.803 10.8486 362.157 10.1514C361.521 9.4541 360.542 9.10547 359.219 9.10547C357.353 9.10547 356.041 9.63354 355.282 10.6897C354.523 11.7458 354.144 13.2788 354.144 15.2886V24.1172H351.59V7.25977H353.651L354.036 9.68994H354.174C354.533 9.09521 354.99 8.5979 355.543 8.198C356.097 7.78784 356.717 7.48022 357.404 7.27515C358.091 7.05981 358.814 6.95215 359.573 6.95215ZM385.444 15.6577C385.444 17.042 385.264 18.2776 384.905 19.3645C384.546 20.4514 384.029 21.3691 383.352 22.1177C382.675 22.8662 381.855 23.4404 380.891 23.8403C379.937 24.23 378.855 24.4248 377.646 24.4248C376.518 24.4248 375.482 24.23 374.539 23.8403C373.605 23.4404 372.795 22.8662 372.108 22.1177C371.432 21.3691 370.904 20.4514 370.524 19.3645C370.155 18.2776 369.97 17.042 369.97 15.6577C369.97 13.812 370.283 12.2432 370.909 10.9512C371.534 9.64893 372.426 8.65942 373.585 7.98267C374.754 7.29565 376.143 6.95215 377.753 6.95215C379.291 6.95215 380.635 7.29565 381.783 7.98267C382.942 8.66968 383.839 9.66431 384.475 10.9666C385.121 12.2585 385.444 13.8223 385.444 15.6577ZM372.616 15.6577C372.616 17.0112 372.795 18.1853 373.154 19.1799C373.513 20.1746 374.067 20.9436 374.815 21.4871C375.564 22.0305 376.528 22.3022 377.707 22.3022C378.876 22.3022 379.835 22.0305 380.583 21.4871C381.342 20.9436 381.901 20.1746 382.26 19.1799C382.619 18.1853 382.798 17.0112 382.798 15.6577C382.798 14.3145 382.619 13.1558 382.26 12.1816C381.901 11.1973 381.347 10.4385 380.599 9.90527C379.85 9.37207 378.881 9.10547 377.692 9.10547C375.938 9.10547 374.651 9.68481 373.831 10.8435C373.021 12.0022 372.616 13.6069 372.616 15.6577ZM400.763 19.5029C400.763 20.5796 400.491 21.4871 399.948 22.2253C399.415 22.9534 398.646 23.502 397.641 23.8711C396.646 24.2402 395.457 24.4248 394.072 24.4248C392.893 24.4248 391.873 24.3325 391.011 24.1479C390.15 23.9634 389.396 23.7019 388.75 23.3635V21.0103C389.438 21.3486 390.258 21.6562 391.211 21.9331C392.165 22.21 393.139 22.3484 394.134 22.3484C395.59 22.3484 396.646 22.1125 397.302 21.6409C397.958 21.1692 398.287 20.5283 398.287 19.7183C398.287 19.2568 398.153 18.8518 397.887 18.5032C397.63 18.1443 397.195 17.8008 396.579 17.4727C395.964 17.1343 395.113 16.7651 394.026 16.3652C392.949 15.9551 392.016 15.55 391.227 15.1501C390.448 14.74 389.843 14.2427 389.412 13.6582C388.991 13.0737 388.781 12.3149 388.781 11.3818C388.781 9.95654 389.355 8.8645 390.504 8.10571C391.663 7.33667 393.18 6.95215 395.057 6.95215C396.072 6.95215 397.02 7.05469 397.902 7.25977C398.794 7.45459 399.625 7.72119 400.394 8.05957L399.532 10.1052C398.835 9.80786 398.092 9.55664 397.302 9.35156C396.513 9.14648 395.708 9.04395 394.887 9.04395C393.708 9.04395 392.801 9.23877 392.165 9.62842C391.54 10.0181 391.227 10.5513 391.227 11.228C391.227 11.751 391.37 12.1816 391.657 12.52C391.955 12.8584 392.427 13.1763 393.073 13.4736C393.719 13.771 394.57 14.1196 395.626 14.5195C396.682 14.9092 397.594 15.3142 398.364 15.7346C399.133 16.1448 399.722 16.6472 400.132 17.2419C400.553 17.8264 400.763 18.5801 400.763 19.5029ZM415.775 19.5029C415.775 20.5796 415.503 21.4871 414.959 22.2253C414.426 22.9534 413.657 23.502 412.652 23.8711C411.658 24.2402 410.468 24.4248 409.084 24.4248C407.905 24.4248 406.885 24.3325 406.023 24.1479C405.162 23.9634 404.408 23.7019 403.762 23.3635V21.0103C404.449 21.3486 405.27 21.6562 406.223 21.9331C407.177 22.21 408.151 22.3484 409.146 22.3484C410.602 22.3484 411.658 22.1125 412.314 21.6409C412.97 21.1692 413.298 20.5283 413.298 19.7183C413.298 19.2568 413.165 18.8518 412.898 18.5032C412.642 18.1443 412.206 17.8008 411.591 17.4727C410.976 17.1343 410.125 16.7651 409.038 16.3652C407.961 15.9551 407.028 15.55 406.239 15.1501C405.459 14.74 404.854 14.2427 404.424 13.6582C404.003 13.0737 403.793 12.3149 403.793 11.3818C403.793 9.95654 404.367 8.8645 405.516 8.10571C406.674 7.33667 408.192 6.95215 410.068 6.95215C411.083 6.95215 412.032 7.05469 412.914 7.25977C413.806 7.45459 414.636 7.72119 415.406 8.05957L414.544 10.1052C413.847 9.80786 413.104 9.55664 412.314 9.35156C411.524 9.14648 410.719 9.04395 409.899 9.04395C408.72 9.04395 407.812 9.23877 407.177 9.62842C406.551 10.0181 406.239 10.5513 406.239 11.228C406.239 11.751 406.382 12.1816 406.669 12.52C406.967 12.8584 407.438 13.1763 408.084 13.4736C408.73 13.771 409.581 14.1196 410.637 14.5195C411.694 14.9092 412.606 15.3142 413.375 15.7346C414.144 16.1448 414.734 16.6472 415.144 17.2419C415.564 17.8264 415.775 18.5801 415.775 19.5029ZM426.188 6.98291C428.197 6.98291 429.689 7.43408 430.663 8.33643C431.637 9.23877 432.125 10.6794 432.125 12.6584V24.1172H430.263L429.771 21.6255H429.648C429.177 22.2407 428.684 22.7585 428.172 23.179C427.659 23.5891 427.064 23.9019 426.387 24.1172C425.721 24.3223 424.901 24.4248 423.927 24.4248C422.901 24.4248 421.989 24.2454 421.189 23.8865C420.399 23.5276 419.774 22.9841 419.312 22.2561C418.861 21.5281 418.635 20.6052 418.635 19.4875C418.635 17.8059 419.302 16.5139 420.635 15.6116C421.968 14.7092 423.998 14.217 426.726 14.135L429.633 14.012V12.9814C429.633 11.5254 429.32 10.5051 428.695 9.92065C428.069 9.33618 427.187 9.04395 426.049 9.04395C425.167 9.04395 424.326 9.17212 423.527 9.42847C422.727 9.68481 421.968 9.9873 421.25 10.3359L420.466 8.39795C421.225 8.0083 422.096 7.67505 423.081 7.39819C424.065 7.12134 425.101 6.98291 426.188 6.98291ZM429.602 15.8115L427.033 15.9192C424.931 16.0012 423.45 16.3447 422.588 16.9497C421.727 17.5547 421.296 18.4109 421.296 19.5183C421.296 20.4822 421.589 21.1948 422.173 21.6562C422.758 22.1177 423.532 22.3484 424.496 22.3484C425.993 22.3484 427.218 21.9331 428.172 21.1025C429.125 20.272 429.602 19.0261 429.602 17.365V15.8115Z" fill="white"/>
<path d="M5.5356 68.1172V39.7572H11.549V68.1172H5.5356ZM31.3343 46.0228C33.6491 46.0228 35.5113 46.6564 36.9209 47.9238C38.3305 49.1782 39.0353 51.1956 39.0353 53.976V68.1172H33.1189V55.4502C33.1189 53.8984 32.8344 52.728 32.2654 51.9392C31.7093 51.1503 30.8299 50.7559 29.6272 50.7559C27.8168 50.7559 26.5817 51.3702 25.9222 52.5987C25.2627 53.8273 24.9329 55.599 24.9329 57.9138V68.1172H19.0165V46.4301H23.5362L24.3316 49.2041H24.6613C25.1269 48.454 25.7024 47.8462 26.3878 47.3806C27.0861 46.9151 27.8556 46.5724 28.6961 46.3525C29.5497 46.1327 30.429 46.0228 31.3343 46.0228ZM55.0574 63.7914C55.704 63.7914 56.3312 63.7268 56.939 63.5974C57.5597 63.4681 58.174 63.3065 58.7818 63.1125V67.5158C58.1481 67.8004 57.3593 68.0331 56.4152 68.2142C55.4841 68.4082 54.4625 68.5051 53.3503 68.5051C52.0571 68.5051 50.8932 68.2982 49.8587 67.8844C48.837 67.4577 48.0288 66.727 47.4339 65.6924C46.852 64.6449 46.561 63.1901 46.561 61.3279V50.8723H43.7289V48.3699L46.9877 46.3913L48.6948 41.8134H52.4774V46.4301H58.549V50.8723H52.4774V61.3279C52.4774 62.1555 52.7102 62.7762 53.1757 63.1901C53.6542 63.591 54.2814 63.7914 55.0574 63.7914ZM72.9222 46.0228C74.9267 46.0228 76.6531 46.4107 78.1015 47.1867C79.5499 47.9496 80.6685 49.0618 81.4574 50.5231C82.2462 51.9844 82.6406 53.7691 82.6406 55.877V58.7479H68.6546C68.7193 60.4161 69.2172 61.7288 70.1483 62.6857C71.0923 63.6298 72.3985 64.1018 74.0667 64.1018C75.4504 64.1018 76.7178 63.9595 77.8687 63.675C79.0197 63.3905 80.203 62.9638 81.4186 62.3948V66.9727C80.3452 67.5029 79.2201 67.8909 78.0433 68.1366C76.8794 68.3823 75.4634 68.5051 73.7951 68.5051C71.6225 68.5051 69.6957 68.1043 68.0145 67.3025C66.3463 66.5007 65.0337 65.2786 64.0767 63.6362C63.1326 61.9939 62.6606 59.9247 62.6606 57.4288C62.6606 54.8942 63.0874 52.7862 63.9409 51.1051C64.8073 49.411 66.01 48.1436 67.5489 47.303C69.0879 46.4495 70.8789 46.0228 72.9222 46.0228ZM72.961 50.2322C71.8101 50.2322 70.8531 50.6007 70.0901 51.3378C69.34 52.075 68.9068 53.2324 68.7904 54.8101H77.0928C77.0799 53.9307 76.9182 53.1483 76.6078 52.4629C76.3104 51.7775 75.8578 51.2344 75.25 50.8335C74.6551 50.4326 73.8921 50.2322 72.961 50.2322ZM94.1623 68.1172H88.2459V37.9338H94.1623V68.1172ZM107.1 46.4301V68.1172H101.184V46.4301H107.1ZM104.152 37.9338C105.031 37.9338 105.787 38.1407 106.421 38.5545C107.055 38.9554 107.372 39.7119 107.372 40.8241C107.372 41.9233 107.055 42.6863 106.421 43.1131C105.787 43.5269 105.031 43.7338 104.152 43.7338C103.259 43.7338 102.496 43.5269 101.863 43.1131C101.242 42.6863 100.931 41.9233 100.931 40.8241C100.931 39.7119 101.242 38.9554 101.863 38.5545C102.496 38.1407 103.259 37.9338 104.152 37.9338ZM120.465 77.661C117.438 77.661 115.124 77.1308 113.52 76.0704C111.929 75.0229 111.134 73.5487 111.134 71.6476C111.134 70.3415 111.541 69.2487 112.356 68.3694C113.171 67.49 114.367 66.8628 115.945 66.4877C115.337 66.2291 114.807 65.8088 114.354 65.2269C113.902 64.632 113.675 64.0048 113.675 63.3453C113.675 62.5176 113.914 61.8322 114.393 61.2891C114.871 60.733 115.563 60.1898 116.469 59.6596C115.331 59.1682 114.425 58.3794 113.753 57.2931C113.093 56.2068 112.764 54.9265 112.764 53.4522C112.764 51.8745 113.106 50.5361 113.792 49.4368C114.49 48.3247 115.499 47.4776 116.818 46.8957C118.15 46.3137 119.766 46.0228 121.667 46.0228C122.068 46.0228 122.534 46.0486 123.064 46.1004C123.594 46.1521 124.079 46.2103 124.519 46.2749C124.971 46.3396 125.275 46.3913 125.43 46.4301H132.996V49.4368L129.601 50.3097C129.911 50.7882 130.144 51.2991 130.299 51.8422C130.455 52.3853 130.532 52.9608 130.532 53.5686C130.532 55.8964 129.717 57.7133 128.088 59.0195C126.472 60.3127 124.221 60.9593 121.337 60.9593C120.652 60.9205 120.005 60.8688 119.398 60.8041C119.1 61.0369 118.874 61.2826 118.719 61.5412C118.564 61.7999 118.486 62.0715 118.486 62.356C118.486 62.6405 118.602 62.8797 118.835 63.0737C119.081 63.2547 119.443 63.397 119.921 63.5004C120.413 63.591 121.021 63.6362 121.745 63.6362H125.43C127.81 63.6362 129.62 64.147 130.862 65.1687C132.116 66.1903 132.744 67.6904 132.744 69.669C132.744 72.2037 131.683 74.1694 129.562 75.5661C127.454 76.9627 124.422 77.661 120.465 77.661ZM120.717 73.8008C122.126 73.8008 123.335 73.665 124.344 73.3935C125.366 73.1348 126.148 72.7598 126.691 72.2684C127.235 71.7899 127.506 71.2144 127.506 70.5419C127.506 69.9988 127.344 69.5656 127.021 69.2423C126.711 68.9319 126.232 68.7121 125.586 68.5827C124.952 68.4534 124.137 68.3888 123.142 68.3888H120.077C119.352 68.3888 118.699 68.5051 118.117 68.7379C117.548 68.9707 117.096 69.294 116.76 69.7078C116.423 70.1346 116.255 70.626 116.255 71.1821C116.255 71.9968 116.643 72.6369 117.419 73.1025C118.208 73.568 119.307 73.8008 120.717 73.8008ZM121.667 57.3513C122.779 57.3513 123.594 57.0086 124.111 56.3232C124.629 55.6378 124.887 54.7066 124.887 53.5298C124.887 52.2237 124.616 51.2473 124.073 50.6007C123.542 49.9412 122.741 49.6114 121.667 49.6114C120.581 49.6114 119.766 49.9412 119.223 50.6007C118.68 51.2473 118.408 52.2237 118.408 53.5298C118.408 54.7066 118.673 55.6378 119.204 56.3232C119.747 57.0086 120.568 57.3513 121.667 57.3513ZM146.321 46.0228C148.326 46.0228 150.052 46.4107 151.501 47.1867C152.949 47.9496 154.068 49.0618 154.857 50.5231C155.645 51.9844 156.04 53.7691 156.04 55.877V58.7479H142.054C142.119 60.4161 142.616 61.7288 143.548 62.6857C144.492 63.6298 145.798 64.1018 147.466 64.1018C148.85 64.1018 150.117 63.9595 151.268 63.675C152.419 63.3905 153.602 62.9638 154.818 62.3948V66.9727C153.744 67.5029 152.619 67.8909 151.443 68.1366C150.279 68.3823 148.863 68.5051 147.194 68.5051C145.022 68.5051 143.095 68.1043 141.414 67.3025C139.745 66.5007 138.433 65.2786 137.476 63.6362C136.532 61.9939 136.06 59.9247 136.06 57.4288C136.06 54.8942 136.487 52.7862 137.34 51.1051C138.207 49.411 139.409 48.1436 140.948 47.303C142.487 46.4495 144.278 46.0228 146.321 46.0228ZM146.36 50.2322C145.209 50.2322 144.252 50.6007 143.489 51.3378C142.739 52.075 142.306 53.2324 142.19 54.8101H150.492C150.479 53.9307 150.317 53.1483 150.007 52.4629C149.71 51.7775 149.257 51.2344 148.649 50.8335C148.054 50.4326 147.291 50.2322 146.36 50.2322ZM149.522 37.6816C149.897 38.2765 150.382 38.936 150.977 39.6602C151.585 40.3844 152.206 41.0892 152.839 41.7746C153.473 42.46 154.022 43.0419 154.488 43.5204V44.0442H150.57C149.871 43.6303 149.108 43.1389 148.281 42.5699C147.466 41.988 146.716 41.3414 146.03 40.6301C145.332 41.3414 144.589 41.9815 143.8 42.5505C143.011 43.1066 142.274 43.6045 141.588 44.0442H137.651V43.5204C138.142 43.029 138.704 42.4471 139.338 41.7746C139.972 41.0892 140.586 40.3844 141.181 39.6602C141.776 38.936 142.254 38.2765 142.616 37.6816H149.522ZM173.963 46.0228C176.278 46.0228 178.14 46.6564 179.55 47.9238C180.959 49.1782 181.664 51.1956 181.664 53.976V68.1172H175.748V55.4502C175.748 53.8984 175.463 52.728 174.894 51.9392C174.338 51.1503 173.459 50.7559 172.256 50.7559C170.445 50.7559 169.21 51.3702 168.551 52.5987C167.891 53.8273 167.562 55.599 167.562 57.9138V68.1172H161.645V46.4301H166.165L166.96 49.2041H167.29C167.756 48.454 168.331 47.8462 169.016 47.3806C169.715 46.9151 170.484 46.5724 171.325 46.3525C172.178 46.1327 173.058 46.0228 173.963 46.0228ZM197.356 68.5051C195.21 68.5051 193.38 68.1172 191.867 67.3413C190.354 66.5524 189.203 65.3368 188.414 63.6944C187.625 62.0521 187.23 59.9506 187.23 57.39C187.23 54.739 187.677 52.5793 188.569 50.9111C189.474 49.2299 190.722 47.9949 192.313 47.2061C193.916 46.4172 195.772 46.0228 197.88 46.0228C199.38 46.0228 200.673 46.1715 201.76 46.4689C202.859 46.7534 203.816 47.0961 204.631 47.497L202.885 52.075C201.954 51.6999 201.087 51.396 200.285 51.1633C199.484 50.9176 198.682 50.7947 197.88 50.7947C196.845 50.7947 195.985 51.0404 195.3 51.5318C194.615 52.0103 194.104 52.7345 193.768 53.7044C193.431 54.6743 193.263 55.8899 193.263 57.3513C193.263 58.7867 193.444 59.9765 193.806 60.9205C194.169 61.8645 194.692 62.5693 195.378 63.0349C196.063 63.4875 196.897 63.7138 197.88 63.7138C199.109 63.7138 200.201 63.5522 201.158 63.2289C202.115 62.8926 203.046 62.4271 203.952 61.8322V66.8951C203.046 67.4641 202.096 67.8715 201.1 68.1172C200.117 68.3758 198.869 68.5051 197.356 68.5051ZM215.706 46.4301V68.1172H209.79V46.4301H215.706ZM212.758 37.9338C213.637 37.9338 214.393 38.1407 215.027 38.5545C215.661 38.9554 215.978 39.7119 215.978 40.8241C215.978 41.9233 215.661 42.6863 215.027 43.1131C214.393 43.5269 213.637 43.7338 212.758 43.7338C211.865 43.7338 211.102 43.5269 210.469 43.1131C209.848 42.6863 209.537 41.9233 209.537 40.8241C209.537 39.7119 209.848 38.9554 210.469 38.5545C211.102 38.1407 211.865 37.9338 212.758 37.9338ZM231.612 45.984C234.521 45.984 236.752 46.6176 238.304 47.885C239.856 49.1523 240.632 51.0792 240.632 53.6656V68.1172H236.5L235.356 65.1687H235.2C234.58 65.9446 233.946 66.5783 233.299 67.0697C232.653 67.5611 231.909 67.9232 231.069 68.156C230.228 68.3888 229.206 68.5051 228.004 68.5051C226.723 68.5051 225.572 68.2594 224.551 67.768C223.542 67.2766 222.747 66.5265 222.165 65.5178C221.583 64.4962 221.292 63.203 221.292 61.6382C221.292 59.3363 222.1 57.6422 223.717 56.5559C225.333 55.4567 227.758 54.8489 230.991 54.7325L234.754 54.6161V53.6656C234.754 52.5276 234.457 51.6935 233.862 51.1633C233.267 50.633 232.439 50.3679 231.379 50.3679C230.331 50.3679 229.303 50.5167 228.295 50.8141C227.286 51.1115 226.277 51.4866 225.269 51.9392L223.309 47.9432C224.46 47.3354 225.747 46.8569 227.17 46.5077C228.605 46.1586 230.086 45.984 231.612 45.984ZM234.754 58.069L232.465 58.1466C230.551 58.1983 229.219 58.541 228.469 59.1747C227.732 59.8083 227.364 60.6425 227.364 61.677C227.364 62.5823 227.629 63.2289 228.159 63.6168C228.689 63.9919 229.381 64.1794 230.234 64.1794C231.502 64.1794 232.569 63.8043 233.435 63.0543C234.315 62.3042 234.754 61.2373 234.754 59.8536V58.069ZM276.478 68.1172L274.422 61.3667H264.083L262.026 68.1172H255.547L265.557 39.6408H272.909L282.957 68.1172H276.478ZM272.986 56.3232L270.93 49.7278C270.801 49.2881 270.626 48.7256 270.406 48.0402C270.199 47.3418 269.986 46.637 269.766 45.9258C269.559 45.2016 269.391 44.5744 269.262 44.0442C269.133 44.5744 268.951 45.2339 268.719 46.0228C268.499 46.7987 268.285 47.5358 268.079 48.2342C267.872 48.9325 267.723 49.4304 267.632 49.7278L265.596 56.3232H272.986ZM298.979 46.0228C299.276 46.0228 299.619 46.0422 300.007 46.081C300.408 46.1068 300.731 46.1456 300.977 46.1974L300.531 51.7452C300.337 51.6805 300.059 51.6353 299.697 51.6094C299.347 51.5706 299.044 51.5512 298.785 51.5512C298.022 51.5512 297.278 51.6482 296.554 51.8422C295.843 52.0362 295.203 52.353 294.634 52.7927C294.065 53.2195 293.612 53.7885 293.276 54.4997C292.953 55.1981 292.791 56.058 292.791 57.0797V68.1172H286.875V46.4301H291.355L292.228 50.077H292.519C292.946 49.3398 293.476 48.6674 294.11 48.0596C294.757 47.4388 295.487 46.9474 296.302 46.5853C297.13 46.2103 298.022 46.0228 298.979 46.0228ZM314.846 63.7914C315.492 63.7914 316.12 63.7268 316.727 63.5974C317.348 63.4681 317.962 63.3065 318.57 63.1125V67.5158C317.937 67.8004 317.148 68.0331 316.204 68.2142C315.273 68.4082 314.251 68.5051 313.139 68.5051C311.846 68.5051 310.682 68.2982 309.647 67.8844C308.625 67.4577 307.817 66.727 307.222 65.6924C306.64 64.6449 306.349 63.1901 306.349 61.3279V50.8723H303.517V48.3699L306.776 46.3913L308.483 41.8134H312.266V46.4301H318.337V50.8723H312.266V61.3279C312.266 62.1555 312.499 62.7762 312.964 63.1901C313.443 63.591 314.07 63.7914 314.846 63.7914ZM329.685 46.4301V68.1172H323.768V46.4301H329.685ZM326.736 37.9338C327.615 37.9338 328.372 38.1407 329.006 38.5545C329.639 38.9554 329.956 39.7119 329.956 40.8241C329.956 41.9233 329.639 42.6863 329.006 43.1131C328.372 43.5269 327.615 43.7338 326.736 43.7338C325.844 43.7338 325.081 43.5269 324.447 43.1131C323.826 42.6863 323.516 41.9233 323.516 40.8241C323.516 39.7119 323.826 38.9554 324.447 38.5545C325.081 38.1407 325.844 37.9338 326.736 37.9338ZM348.694 50.8723H343.573V68.1172H337.656V50.8723H334.397V48.0208L337.656 46.4301V44.8395C337.656 42.9902 337.967 41.5547 338.587 40.5331C339.221 39.4986 340.107 38.7744 341.245 38.3605C342.396 37.9338 343.754 37.7204 345.319 37.7204C346.47 37.7204 347.517 37.8174 348.461 38.0114C349.405 38.1924 350.175 38.3993 350.769 38.6321L349.256 42.9773C348.804 42.835 348.312 42.7057 347.782 42.5893C347.252 42.4729 346.644 42.4147 345.959 42.4147C345.131 42.4147 344.523 42.6669 344.135 43.1713C343.76 43.6627 343.573 44.2963 343.573 45.0723V46.4301H348.694V50.8723ZM358.005 46.4301V68.1172H352.089V46.4301H358.005ZM355.056 37.9338C355.936 37.9338 356.692 38.1407 357.326 38.5545C357.96 38.9554 358.277 39.7119 358.277 40.8241C358.277 41.9233 357.96 42.6863 357.326 43.1131C356.692 43.5269 355.936 43.7338 355.056 43.7338C354.164 43.7338 353.401 43.5269 352.767 43.1131C352.147 42.6863 351.836 41.9233 351.836 40.8241C351.836 39.7119 352.147 38.9554 352.767 38.5545C353.401 38.1407 354.164 37.9338 355.056 37.9338ZM373.814 68.5051C371.667 68.5051 369.837 68.1172 368.324 67.3413C366.811 66.5524 365.66 65.3368 364.871 63.6944C364.082 62.0521 363.688 59.9506 363.688 57.39C363.688 54.739 364.134 52.5793 365.026 50.9111C365.932 49.2299 367.179 47.9949 368.77 47.2061C370.374 46.4172 372.229 46.0228 374.337 46.0228C375.837 46.0228 377.131 46.1715 378.217 46.4689C379.316 46.7534 380.273 47.0961 381.088 47.497L379.342 52.075C378.411 51.6999 377.545 51.396 376.743 51.1633C375.941 50.9176 375.139 50.7947 374.337 50.7947C373.303 50.7947 372.443 51.0404 371.757 51.5318C371.072 52.0103 370.561 52.7345 370.225 53.7044C369.889 54.6743 369.721 55.8899 369.721 57.3513C369.721 58.7867 369.902 59.9765 370.264 60.9205C370.626 61.8645 371.15 62.5693 371.835 63.0349C372.52 63.4875 373.355 63.7138 374.337 63.7138C375.566 63.7138 376.659 63.5522 377.616 63.2289C378.573 62.8926 379.504 62.4271 380.409 61.8322V66.8951C379.504 67.4641 378.553 67.8715 377.557 68.1172C376.575 68.3758 375.327 68.5051 373.814 68.5051ZM392.163 46.4301V68.1172H386.247V46.4301H392.163ZM389.215 37.9338C390.094 37.9338 390.851 38.1407 391.484 38.5545C392.118 38.9554 392.435 39.7119 392.435 40.8241C392.435 41.9233 392.118 42.6863 391.484 43.1131C390.851 43.5269 390.094 43.7338 389.215 43.7338C388.323 43.7338 387.56 43.5269 386.926 43.1131C386.305 42.6863 385.995 41.9233 385.995 40.8241C385.995 39.7119 386.305 38.9554 386.926 38.5545C387.56 38.1407 388.323 37.9338 389.215 37.9338ZM408.069 45.984C410.979 45.984 413.21 46.6176 414.761 47.885C416.313 49.1523 417.089 51.0792 417.089 53.6656V68.1172H412.957L411.813 65.1687H411.658C411.037 65.9446 410.403 66.5783 409.757 67.0697C409.11 67.5611 408.367 67.9232 407.526 68.156C406.685 68.3888 405.664 68.5051 404.461 68.5051C403.181 68.5051 402.03 68.2594 401.008 67.768C399.999 67.2766 399.204 66.5265 398.622 65.5178C398.04 64.4962 397.749 63.203 397.749 61.6382C397.749 59.3363 398.558 57.6422 400.174 56.5559C401.791 55.4567 404.215 54.8489 407.448 54.7325L411.212 54.6161V53.6656C411.212 52.5276 410.914 51.6935 410.319 51.1633C409.724 50.633 408.897 50.3679 407.836 50.3679C406.789 50.3679 405.761 50.5167 404.752 50.8141C403.743 51.1115 402.735 51.4866 401.726 51.9392L399.767 47.9432C400.918 47.3354 402.204 46.8569 403.627 46.5077C405.062 46.1586 406.543 45.984 408.069 45.984ZM411.212 58.069L408.923 58.1466C407.009 58.1983 405.677 58.541 404.927 59.1747C404.189 59.8083 403.821 60.6425 403.821 61.677C403.821 62.5823 404.086 63.2289 404.616 63.6168C405.146 63.9919 405.838 64.1794 406.692 64.1794C407.959 64.1794 409.026 63.8043 409.892 63.0543C410.772 62.3042 411.212 61.2373 411.212 59.8536V58.069ZM429.911 68.1172H423.994V37.9338H429.911V68.1172ZM13.2296 90.3591C16.09 90.3591 18.283 90.982 19.8085 92.2279C21.3341 93.4738 22.0968 95.368 22.0968 97.9106V112.117H18.0351L16.91 109.219H16.7574C16.1472 109.981 15.5243 110.604 14.8887 111.087C14.253 111.571 13.522 111.926 12.6957 112.155C11.8693 112.384 10.865 112.499 9.68273 112.499C8.42416 112.499 7.29271 112.257 6.2884 111.774C5.29679 111.291 4.51495 110.554 3.94287 109.562C3.37079 108.558 3.08475 107.286 3.08475 105.748C3.08475 103.485 3.87931 101.82 5.46842 100.752C7.05753 99.6713 9.44119 99.0738 12.6194 98.9594L16.3188 98.845V97.9106C16.3188 96.7918 16.0265 95.9718 15.4417 95.4506C14.8569 94.9294 14.0432 94.6688 13.0008 94.6688C11.971 94.6688 10.9604 94.815 9.96877 95.1074C8.97717 95.3998 7.98556 95.7684 6.99396 96.2134L5.06796 92.2851C6.19941 91.6876 7.46434 91.2172 8.86275 90.874C10.2739 90.5307 11.7295 90.3591 13.2296 90.3591ZM16.3188 102.239L14.0687 102.316C12.1872 102.366 10.8777 102.703 10.1404 103.326C9.41576 103.949 9.05345 104.769 9.05345 105.786C9.05345 106.676 9.31406 107.312 9.83529 107.693C10.3565 108.062 11.0367 108.246 11.8757 108.246C13.1216 108.246 14.1704 107.877 15.0221 107.14C15.8866 106.403 16.3188 105.354 16.3188 103.994V102.239ZM39.9648 90.3973C42.3675 90.3973 44.3062 91.3316 45.7809 93.2004C47.2683 95.0692 48.012 97.8089 48.012 101.419C48.012 103.835 47.6624 105.869 46.9632 107.521C46.264 109.161 45.2978 110.401 44.0647 111.24C42.8315 112.079 41.4141 112.499 39.8122 112.499C38.7825 112.499 37.8989 112.371 37.1616 112.117C36.4243 111.85 35.795 111.513 35.2737 111.107C34.7525 110.687 34.3012 110.242 33.9198 109.772H33.6147C33.7164 110.28 33.7927 110.801 33.8435 111.335C33.8944 111.869 33.9198 112.391 33.9198 112.899V121.499H28.1037V90.7977H32.8329L33.6528 93.5628H33.9198C34.3012 92.9907 34.7652 92.4631 35.3119 91.98C35.8585 91.4969 36.5132 91.1155 37.276 90.8358C38.0515 90.5434 38.9478 90.3973 39.9648 90.3973ZM38.096 95.0502C37.079 95.0502 36.2717 95.2599 35.6742 95.6794C35.0767 96.099 34.6381 96.7283 34.3584 97.5673C34.0914 98.4064 33.9452 99.4679 33.9198 100.752V101.381C33.9198 102.754 34.0469 103.917 34.3012 104.871C34.5682 105.824 35.0068 106.549 35.617 107.045C36.2399 107.541 37.0917 107.788 38.1723 107.788C39.0622 107.788 39.7932 107.541 40.3652 107.045C40.9373 106.549 41.3632 105.824 41.6429 104.871C41.9353 103.905 42.0815 102.729 42.0815 101.343C42.0815 99.2581 41.7573 97.6881 41.1089 96.6329C40.4606 95.5777 39.4563 95.0502 38.096 95.0502ZM58.6336 112.117H52.8175V82.4454H58.6336V112.117ZM70.571 90.7977V112.117H64.7549V90.7977H70.571ZM67.6725 82.4454C68.537 82.4454 69.2807 82.6488 69.9036 83.0556C70.5265 83.4497 70.838 84.1934 70.838 85.2867C70.838 86.3673 70.5265 87.1173 69.9036 87.5369C69.2807 87.9437 68.537 88.1471 67.6725 88.1471C66.7953 88.1471 66.0452 87.9437 65.4223 87.5369C64.8121 87.1173 64.507 86.3673 64.507 85.2867C64.507 84.1934 64.8121 83.4497 65.4223 83.0556C66.0452 82.6488 66.7953 82.4454 67.6725 82.4454ZM85.3497 112.499C83.2394 112.499 81.4405 112.117 79.9531 111.354C78.4657 110.579 77.3343 109.384 76.5588 107.769C75.7833 106.155 75.3956 104.089 75.3956 101.572C75.3956 98.9657 75.8341 96.8427 76.7113 95.2027C77.6012 93.55 78.828 92.336 80.3917 91.5605C81.9681 90.785 83.7924 90.3973 85.8646 90.3973C87.3393 90.3973 88.6106 90.5434 89.6785 90.8358C90.7591 91.1155 91.6998 91.4524 92.5007 91.8465L90.7845 96.3469C89.8692 95.9782 89.0174 95.6794 88.2292 95.4506C87.441 95.2091 86.6528 95.0883 85.8646 95.0883C84.8476 95.0883 84.0022 95.3298 83.3284 95.8129C82.6546 96.2833 82.1524 96.9952 81.8219 97.9487C81.4914 98.9022 81.3261 100.097 81.3261 101.534C81.3261 102.945 81.5041 104.114 81.86 105.042C82.216 105.971 82.7309 106.663 83.4047 107.121C84.0784 107.566 84.8984 107.788 85.8646 107.788C87.0723 107.788 88.1466 107.63 89.0873 107.312C90.0281 106.981 90.9434 106.524 91.8333 105.939V110.916C90.9434 111.475 90.009 111.876 89.0301 112.117C88.0639 112.371 86.8371 112.499 85.3497 112.499ZM105.525 90.3591C108.385 90.3591 110.578 90.982 112.104 92.2279C113.63 93.4738 114.392 95.368 114.392 97.9106V112.117H110.331L109.205 109.219H109.053C108.443 109.981 107.82 110.604 107.184 111.087C106.548 111.571 105.817 111.926 104.991 112.155C104.165 112.384 103.16 112.499 101.978 112.499C100.72 112.499 99.5881 112.257 98.5838 111.774C97.5922 111.291 96.8104 110.554 96.2383 109.562C95.6662 108.558 95.3802 107.286 95.3802 105.748C95.3802 103.485 96.1747 101.82 97.7638 100.752C99.353 99.6713 101.737 99.0738 104.915 98.9594L108.614 98.845V97.9106C108.614 96.7918 108.322 95.9718 107.737 95.4506C107.152 94.9294 106.339 94.6688 105.296 94.6688C104.266 94.6688 103.256 94.815 102.264 95.1074C101.273 95.3998 100.281 95.7684 99.2894 96.2134L97.3634 92.2851C98.4948 91.6876 99.7598 91.2172 101.158 90.874C102.569 90.5307 104.025 90.3591 105.525 90.3591ZM108.614 102.239L106.364 102.316C104.483 102.366 103.173 102.703 102.436 103.326C101.711 103.949 101.349 104.769 101.349 105.786C101.349 106.676 101.609 107.312 102.131 107.693C102.652 108.062 103.332 108.246 104.171 108.246C105.417 108.246 106.466 107.877 107.318 107.14C108.182 106.403 108.614 105.354 108.614 103.994V102.239ZM127.15 112.499C124.772 112.499 122.834 111.571 121.333 109.714C119.846 107.846 119.102 105.106 119.102 101.496C119.102 97.847 119.859 95.0883 121.372 93.2195C122.884 91.338 124.861 90.3973 127.302 90.3973C128.319 90.3973 129.215 90.5371 129.991 90.8168C130.766 91.0965 131.434 91.4715 131.993 91.9419C132.565 92.4122 133.048 92.9398 133.443 93.5246H133.633C133.557 93.1178 133.462 92.5203 133.347 91.7321C133.245 90.9312 133.195 90.1112 133.195 89.2722V82.4454H139.03V112.117H134.568L133.443 109.352H133.195C132.826 109.937 132.362 110.471 131.803 110.954C131.256 111.424 130.601 111.799 129.838 112.079C129.076 112.359 128.179 112.499 127.15 112.499ZM129.19 107.865C130.779 107.865 131.898 107.394 132.546 106.454C133.207 105.5 133.557 104.07 133.595 102.163V101.534C133.595 99.4615 133.277 97.8788 132.642 96.7855C132.006 95.6794 130.824 95.1264 129.095 95.1264C127.811 95.1264 126.806 95.6794 126.082 96.7855C125.357 97.8915 124.995 99.487 124.995 101.572C124.995 103.657 125.357 105.227 126.082 106.282C126.819 107.337 127.855 107.865 129.19 107.865ZM153.847 90.3591C156.707 90.3591 158.9 90.982 160.426 92.2279C161.951 93.4738 162.714 95.368 162.714 97.9106V112.117H158.652L157.527 109.219H157.374C156.764 109.981 156.141 110.604 155.506 111.087C154.87 111.571 154.139 111.926 153.313 112.155C152.486 112.384 151.482 112.499 150.3 112.499C149.041 112.499 147.91 112.257 146.905 111.774C145.914 111.291 145.132 110.554 144.56 109.562C143.988 108.558 143.702 107.286 143.702 105.748C143.702 103.485 144.496 101.82 146.085 100.752C147.675 99.6713 150.058 99.0738 153.236 98.9594L156.936 98.845V97.9106C156.936 96.7918 156.643 95.9718 156.059 95.4506C155.474 94.9294 154.66 94.6688 153.618 94.6688C152.588 94.6688 151.577 94.815 150.586 95.1074C149.594 95.3998 148.603 95.7684 147.611 96.2134L145.685 92.2851C146.816 91.6876 148.081 91.2172 149.48 90.874C150.891 90.5307 152.347 90.3591 153.847 90.3591ZM156.936 102.239L154.686 102.316C152.804 102.366 151.495 102.703 150.757 103.326C150.033 103.949 149.67 104.769 149.67 105.786C149.67 106.676 149.931 107.312 150.452 107.693C150.974 108.062 151.654 108.246 152.493 108.246C153.739 108.246 154.787 107.877 155.639 107.14C156.504 106.403 156.936 105.354 156.936 103.994V102.239ZM187.599 90.3591C190.46 90.3591 192.653 90.982 194.178 92.2279C195.704 93.4738 196.467 95.368 196.467 97.9106V112.117H192.405L191.28 109.219H191.127C190.517 109.981 189.894 110.604 189.258 111.087C188.623 111.571 187.892 111.926 187.065 112.155C186.239 112.384 185.235 112.499 184.052 112.499C182.794 112.499 181.662 112.257 180.658 111.774C179.666 111.291 178.885 110.554 178.313 109.562C177.74 108.558 177.454 107.286 177.454 105.748C177.454 103.485 178.249 101.82 179.838 100.752C181.427 99.6713 183.811 99.0738 186.989 98.9594L190.689 98.845V97.9106C190.689 96.7918 190.396 95.9718 189.811 95.4506C189.227 94.9294 188.413 94.6688 187.37 94.6688C186.341 94.6688 185.33 94.815 184.338 95.1074C183.347 95.3998 182.355 95.7684 181.364 96.2134L179.438 92.2851C180.569 91.6876 181.834 91.2172 183.232 90.874C184.644 90.5307 186.099 90.3591 187.599 90.3591ZM190.689 102.239L188.438 102.316C186.557 102.366 185.247 102.703 184.51 103.326C183.785 103.949 183.423 104.769 183.423 105.786C183.423 106.676 183.684 107.312 184.205 107.693C184.726 108.062 185.406 108.246 186.245 108.246C187.491 108.246 188.54 107.877 189.392 107.14C190.256 106.403 190.689 105.354 190.689 103.994V102.239ZM221.848 101.419C221.848 103.199 221.606 104.776 221.123 106.148C220.653 107.521 219.96 108.685 219.045 109.638C218.142 110.579 217.049 111.291 215.765 111.774C214.493 112.257 213.057 112.499 211.455 112.499C209.955 112.499 208.576 112.257 207.317 111.774C206.071 111.291 204.984 110.579 204.056 109.638C203.141 108.685 202.429 107.521 201.92 106.148C201.425 104.776 201.177 103.199 201.177 101.419C201.177 99.0547 201.596 97.0524 202.435 95.4125C203.274 93.7725 204.469 92.5267 206.02 91.6749C207.571 90.8231 209.421 90.3973 211.569 90.3973C213.565 90.3973 215.332 90.8231 216.871 91.6749C218.422 92.5267 219.636 93.7725 220.513 95.4125C221.403 97.0524 221.848 99.0547 221.848 101.419ZM207.107 101.419C207.107 102.818 207.26 103.994 207.565 104.947C207.87 105.901 208.347 106.619 208.995 107.102C209.643 107.585 210.489 107.827 211.531 107.827C212.561 107.827 213.394 107.585 214.029 107.102C214.678 106.619 215.148 105.901 215.441 104.947C215.746 103.994 215.898 102.818 215.898 101.419C215.898 100.008 215.746 98.8386 215.441 97.9106C215.148 96.9698 214.678 96.2642 214.029 95.7939C213.381 95.3235 212.536 95.0883 211.493 95.0883C209.955 95.0883 208.836 95.6159 208.137 96.6711C207.45 97.7262 207.107 99.309 207.107 101.419ZM271.504 84.2379L264.41 112.117H257.679L253.903 97.472C253.827 97.1923 253.725 96.7664 253.598 96.1943C253.471 95.6222 253.338 94.9993 253.198 94.3255C253.058 93.639 252.931 92.997 252.816 92.3995C252.715 91.7893 252.645 91.3062 252.607 90.9503C252.568 91.3062 252.492 91.783 252.378 92.3805C252.276 92.978 252.155 93.6136 252.015 94.2874C251.888 94.9612 251.761 95.5905 251.634 96.1753C251.507 96.76 251.405 97.205 251.329 97.5101L247.572 112.117H240.86L233.747 84.2379H239.563L243.129 99.4552C243.231 99.9128 243.345 100.459 243.472 101.095C243.612 101.731 243.746 102.398 243.873 103.097C244.013 103.784 244.133 104.451 244.235 105.1C244.35 105.735 244.432 106.288 244.483 106.759C244.547 106.276 244.629 105.716 244.731 105.081C244.833 104.432 244.941 103.778 245.055 103.116C245.182 102.443 245.309 101.82 245.437 101.248C245.564 100.676 245.678 100.212 245.78 99.8556L249.842 84.2379H255.429L259.491 99.8556C259.58 100.199 259.681 100.663 259.796 101.248C259.923 101.82 260.05 102.443 260.177 103.116C260.304 103.79 260.419 104.451 260.52 105.1C260.635 105.735 260.717 106.288 260.768 106.759C260.857 106.123 260.978 105.354 261.131 104.451C261.296 103.536 261.467 102.627 261.645 101.724C261.836 100.822 262.001 100.065 262.141 99.4552L265.688 84.2379H271.504ZM280.371 82.4454V88.4903C280.371 89.5455 280.333 90.5498 280.257 91.5033C280.194 92.4567 280.143 93.1305 280.105 93.5246H280.41C280.867 92.7873 281.408 92.1898 282.031 91.7321C282.666 91.2744 283.365 90.9375 284.128 90.7214C284.891 90.5053 285.711 90.3973 286.588 90.3973C288.126 90.3973 289.468 90.6706 290.612 91.2172C291.756 91.7512 292.646 92.5966 293.281 93.7534C293.917 94.8976 294.235 96.385 294.235 98.2157V112.117H288.419V99.6649C288.419 98.1394 288.139 96.9889 287.58 96.2134C287.02 95.4379 286.156 95.0502 284.986 95.0502C283.817 95.0502 282.895 95.3235 282.221 95.8701C281.547 96.4041 281.071 97.1986 280.791 98.2538C280.511 99.2963 280.371 100.574 280.371 102.087V112.117H274.555V82.4454H280.371ZM308.956 90.3591C311.817 90.3591 314.01 90.982 315.535 92.2279C317.061 93.4738 317.824 95.368 317.824 97.9106V112.117H313.762L312.637 109.219H312.484C311.874 109.981 311.251 110.604 310.615 111.087C309.98 111.571 309.249 111.926 308.422 112.155C307.596 112.384 306.592 112.499 305.409 112.499C304.151 112.499 303.019 112.257 302.015 111.774C301.024 111.291 300.242 110.554 299.67 109.562C299.098 108.558 298.811 107.286 298.811 105.748C298.811 103.485 299.606 101.82 301.195 100.752C302.784 99.6713 305.168 99.0738 308.346 98.9594L312.046 98.845V97.9106C312.046 96.7918 311.753 95.9718 311.168 95.4506C310.584 94.9294 309.77 94.6688 308.728 94.6688C307.698 94.6688 306.687 94.815 305.696 95.1074C304.704 95.3998 303.712 95.7684 302.721 96.2134L300.795 92.2851C301.926 91.6876 303.191 91.2172 304.589 90.874C306.001 90.5307 307.456 90.3591 308.956 90.3591ZM312.046 102.239L309.795 102.316C307.914 102.366 306.604 102.703 305.867 103.326C305.143 103.949 304.78 104.769 304.78 105.786C304.78 106.676 305.041 107.312 305.562 107.693C306.083 108.062 306.763 108.246 307.602 108.246C308.848 108.246 309.897 107.877 310.749 107.14C311.613 106.403 312.046 105.354 312.046 103.994V102.239ZM332.812 107.865C333.448 107.865 334.064 107.801 334.662 107.674C335.272 107.547 335.876 107.388 336.473 107.197V111.526C335.85 111.806 335.075 112.035 334.147 112.213C333.232 112.403 332.227 112.499 331.134 112.499C329.863 112.499 328.719 112.295 327.701 111.888C326.697 111.469 325.903 110.751 325.318 109.734C324.746 108.704 324.46 107.274 324.46 105.443V95.1646H321.676V92.7046L324.879 90.7596L326.557 86.2592H330.276V90.7977H336.245V95.1646H330.276V105.443C330.276 106.257 330.505 106.867 330.962 107.274C331.433 107.668 332.049 107.865 332.812 107.865ZM355.676 105.786C355.676 107.235 355.333 108.462 354.646 109.467C353.973 110.458 352.962 111.215 351.614 111.736C350.267 112.244 348.589 112.499 346.58 112.499C345.093 112.499 343.815 112.403 342.747 112.213C341.692 112.022 340.624 111.704 339.544 111.259V106.454C340.7 106.975 341.94 107.407 343.262 107.75C344.597 108.081 345.766 108.246 346.771 108.246C347.902 108.246 348.709 108.081 349.193 107.75C349.688 107.407 349.936 106.962 349.936 106.415C349.936 106.06 349.835 105.742 349.631 105.462C349.44 105.17 349.021 104.845 348.373 104.489C347.724 104.121 346.707 103.644 345.322 103.059C343.987 102.5 342.887 101.934 342.023 101.362C341.171 100.79 340.535 100.116 340.116 99.3408C339.709 98.5526 339.505 97.5546 339.505 96.3469C339.505 94.3764 340.268 92.8953 341.794 91.9037C343.332 90.8994 345.385 90.3973 347.953 90.3973C349.275 90.3973 350.534 90.5307 351.729 90.7977C352.937 91.0647 354.176 91.4906 355.447 92.0754L353.693 96.2706C352.638 95.8129 351.64 95.4379 350.699 95.1455C349.771 94.8531 348.824 94.7069 347.858 94.7069C347.006 94.7069 346.364 94.8213 345.932 95.0502C345.5 95.279 345.283 95.6286 345.283 96.099C345.283 96.4422 345.391 96.7473 345.608 97.0143C345.836 97.2813 346.269 97.58 346.904 97.9106C347.553 98.2284 348.5 98.6415 349.746 99.1501C350.953 99.6459 352.002 100.167 352.892 100.714C353.782 101.248 354.468 101.915 354.952 102.716C355.435 103.504 355.676 104.528 355.676 105.786ZM377.739 112.117L375.718 105.481H365.554L363.533 112.117H357.164L367.003 84.1235H374.231L384.108 112.117H377.739ZM374.307 100.523L372.286 94.0395C372.158 93.6073 371.987 93.0542 371.771 92.3805C371.567 91.694 371.357 91.0011 371.141 90.3019C370.938 89.59 370.773 88.9734 370.646 88.4522C370.518 88.9734 370.34 89.6218 370.112 90.3973C369.896 91.16 369.686 91.8847 369.482 92.5712C369.279 93.2576 369.133 93.7471 369.044 94.0395L367.041 100.523H374.307ZM399.04 90.3973C401.442 90.3973 403.381 91.3316 404.856 93.2004C406.343 95.0692 407.087 97.8089 407.087 101.419C407.087 103.835 406.737 105.869 406.038 107.521C405.339 109.161 404.373 110.401 403.14 111.24C401.907 112.079 400.489 112.499 398.887 112.499C397.857 112.499 396.974 112.371 396.237 112.117C395.499 111.85 394.87 111.513 394.349 111.107C393.827 110.687 393.376 110.242 392.995 109.772H392.69C392.791 110.28 392.868 110.801 392.919 111.335C392.969 111.869 392.995 112.391 392.995 112.899V121.499H387.179V90.7977H391.908L392.728 93.5628H392.995C393.376 92.9907 393.84 92.4631 394.387 91.98C394.934 91.4969 395.588 91.1155 396.351 90.8358C397.126 90.5434 398.023 90.3973 399.04 90.3973ZM397.171 95.0502C396.154 95.0502 395.347 95.2599 394.749 95.6794C394.152 96.099 393.713 96.7283 393.433 97.5673C393.166 98.4064 393.02 99.4679 392.995 100.752V101.381C392.995 102.754 393.122 103.917 393.376 104.871C393.643 105.824 394.082 106.549 394.692 107.045C395.315 107.541 396.167 107.788 397.247 107.788C398.137 107.788 398.868 107.541 399.44 107.045C400.012 106.549 400.438 105.824 400.718 104.871C401.01 103.905 401.156 102.729 401.156 101.343C401.156 99.2581 400.832 97.6881 400.184 96.6329C399.536 95.5777 398.531 95.0502 397.171 95.0502ZM423.754 90.3973C426.156 90.3973 428.095 91.3316 429.57 93.2004C431.057 95.0692 431.801 97.8089 431.801 101.419C431.801 103.835 431.451 105.869 430.752 107.521C430.053 109.161 429.087 110.401 427.853 111.24C426.62 112.079 425.203 112.499 423.601 112.499C422.571 112.499 421.688 112.371 420.95 112.117C420.213 111.85 419.584 111.513 419.063 111.107C418.541 110.687 418.09 110.242 417.709 109.772H417.403C417.505 110.28 417.581 110.801 417.632 111.335C417.683 111.869 417.709 112.391 417.709 112.899V121.499H411.892V90.7977H416.622L417.442 93.5628H417.709C418.09 92.9907 418.554 92.4631 419.101 91.98C419.647 91.4969 420.302 91.1155 421.065 90.8358C421.84 90.5434 422.737 90.3973 423.754 90.3973ZM421.885 95.0502C420.868 95.0502 420.06 95.2599 419.463 95.6794C418.865 96.099 418.427 96.7283 418.147 97.5673C417.88 98.4064 417.734 99.4679 417.709 100.752V101.381C417.709 102.754 417.836 103.917 418.09 104.871C418.357 105.824 418.796 106.549 419.406 107.045C420.029 107.541 420.88 107.788 421.961 107.788C422.851 107.788 423.582 107.541 424.154 107.045C424.726 106.549 425.152 105.824 425.432 104.871C425.724 103.905 425.87 102.729 425.87 101.343C425.87 99.2581 425.546 97.6881 424.898 96.6329C424.249 95.5777 423.245 95.0502 421.885 95.0502Z" fill="url(#paint0_linear_4196_103)"/>
<defs>
<linearGradient id="paint0_linear_4196_103" x1="11.8152" y1="57.1171" x2="217.5" y2="57.1171" gradientUnits="userSpaceOnUse">
<stop stop-color="#B6CFB7"/>
<stop offset="1" stop-color="#E9E3AA"/>
</linearGradient>
</defs>
</svg>
