<svg width="170" height="171" viewBox="0 0 170 171" fill="none" xmlns="http://www.w3.org/2000/svg">
<g filter="url(#filter0_b_2843_46)">
<path d="M0 28.05C0 12.5584 12.5584 0 28.05 0H141.95C157.442 0 170 12.5584 170 28.05V135.94C170 151.431 157.442 163.99 141.95 163.99H100.188C97.2859 163.99 94.5219 165.231 92.5942 167.401C88.5532 171.95 81.4468 171.95 77.4058 167.401C75.4781 165.231 72.7141 163.99 69.8115 163.99H28.05C12.5584 163.99 0 151.431 0 135.94V28.05Z" fill="white" fill-opacity="0.1"/>
<path fill-rule="evenodd" clip-rule="evenodd" d="M141.95 2.55H28.05C13.9667 2.55 2.55 13.9667 2.55 28.05V135.94C2.55 150.023 13.9667 161.44 28.05 161.44H69.8115C73.4428 161.44 76.9005 162.993 79.3122 165.708C82.3388 169.115 87.6612 169.115 90.6878 165.708C93.0995 162.993 96.5572 161.44 100.188 161.44H141.95C156.033 161.44 167.45 150.023 167.45 135.94V28.05C167.45 13.9667 156.033 2.55 141.95 2.55ZM28.05 0C12.5584 0 0 12.5584 0 28.05V135.94C0 151.431 12.5584 163.99 28.05 163.99H69.8115C72.7141 163.99 75.4781 165.231 77.4058 167.401C81.4468 171.95 88.5532 171.95 92.5942 167.401C94.5219 165.231 97.2859 163.99 100.188 163.99H141.95C157.442 163.99 170 151.431 170 135.94V28.05C170 12.5584 157.442 0 141.95 0H28.05Z" fill="#DFE5EC"/>
</g>
<path fill-rule="evenodd" clip-rule="evenodd" d="M72.1329 38.7315C70.4885 38.6285 68.9525 39.0112 68.1753 39.4591L62.7255 42.5812C63.4227 44.7236 62.5175 47.1071 60.4944 48.2234L53.6559 51.9968C51.7381 53.055 49.4475 53.2 47.4115 52.3921L46.3412 51.9674L37.3236 57.1334C35.0475 58.4456 34.6357 61.5607 36.4935 63.4186L95.16 122.085C96.4413 123.367 98.4247 123.625 99.9914 122.714L100.004 122.707L132.687 104.458C134.944 103.141 135.35 100.047 133.507 98.1925L121.759 86.3692C121.442 86.0501 121.443 85.5345 121.762 85.2175C122.081 84.9005 122.597 84.9021 122.914 85.2212L134.662 97.0443C135.855 98.2448 136.379 99.8147 136.287 101.341H136.305V104.117C136.305 106.705 134.94 109.101 132.714 110.421L101.973 128.648C99.0972 130.354 95.4322 129.897 93.0632 127.538L35.8522 70.5723C34.4709 69.1969 33.6943 67.3279 33.6943 65.3785V60.7969H33.6977C33.6294 58.8116 34.6067 56.8192 36.5103 55.7222L36.5121 55.7211L67.362 38.0479C68.4741 37.4074 70.3445 36.9876 72.2347 37.1059C74.1256 37.2243 76.198 37.893 77.5927 39.6106L80.6487 42.6861C80.9657 43.0051 80.9641 43.5207 80.6451 43.8378C80.326 44.1548 79.8104 44.1531 79.4934 43.8341L76.3767 40.6975L76.3493 40.6633C75.3399 39.4014 73.764 38.8336 72.1329 38.7315ZM48.1504 50.9309C49.6988 51.4995 51.4206 51.37 52.869 50.5708L59.7075 46.7974C60.9347 46.1202 61.5369 44.7348 61.2647 43.418L48.1504 50.9309ZM133.5 105.87C133.911 105.631 134.279 105.35 134.602 105.036C134.332 106.685 133.347 108.152 131.883 109.02L101.142 127.248C98.9055 128.574 96.055 128.218 94.2124 126.384L37.0014 69.4181C35.927 68.3484 35.3231 66.8947 35.3231 65.3785V64.5514L35.3418 64.5702L94.0083 123.237C95.8103 125.039 98.5987 125.404 100.803 124.126L133.487 105.877L133.5 105.87Z" fill="url(#paint0_linear_2843_46)"/>
<path fill-rule="evenodd" clip-rule="evenodd" d="M117.024 64.2187L116.97 64.1865L116.914 64.1585C116.273 63.8376 113.245 62.3774 112.621 62.1278L112.602 62.1203C112.343 62.0163 111.749 61.7781 111.071 61.8578C110.219 61.9581 109.625 62.4797 109.234 63.0658L109.213 63.098L109.193 63.1312C109.097 63.2908 108.793 63.6896 108.385 64.2C108.268 64.3457 108.143 64.5005 108.021 64.6513L107.83 64.8877C106.183 64.08 104.925 63.3792 103.813 62.4731C102.754 61.6108 101.776 60.5194 100.753 58.8868C101.163 58.46 101.758 57.7778 102.287 56.6707C102.8 55.6313 102.504 54.7521 102.379 54.3798L102.368 54.3458C102.302 54.1475 102.028 53.5086 101.735 52.8231L101.734 52.8213C101.66 52.6489 101.585 52.4735 101.512 52.3015C101.108 51.3557 100.689 50.3581 100.488 49.8049L100.466 49.7453L100.44 49.6876C100.113 48.9681 99.674 48.2962 98.9647 47.9207C98.601 47.7281 98.2567 47.6627 97.9863 47.6419C97.8599 47.6322 97.7492 47.6323 97.6763 47.6332C97.6221 47.6338 97.5985 47.6344 97.5817 47.6348C97.5655 47.6352 97.5555 47.6354 97.5305 47.6354H96.4331C95.7022 47.6354 94.4985 47.8344 93.5358 48.9896C93.4909 49.0435 93.4343 49.1075 93.3683 49.182C92.6995 49.9371 91.0732 51.7732 91.0732 55.0803C91.0732 56.963 91.7047 58.7002 92.322 59.9649C92.9475 61.2465 93.6177 62.1617 93.8132 62.4225L93.8827 62.5151L93.9146 62.547L93.9241 62.5594C93.9644 62.6124 94.0192 62.6863 94.0976 62.7922L94.0987 62.7937C94.2507 62.999 94.4643 63.2876 94.731 63.6327C95.266 64.3252 96.0176 65.2497 96.9625 66.2523C98.834 68.2381 101.531 70.6023 104.882 72.0428C106.841 72.9374 108.321 73.4644 109.621 73.7052C110.954 73.952 112.021 73.8838 113.117 73.7039C114.022 73.5966 115.125 73.0979 116.012 72.5265C116.904 71.9517 118.01 71.0295 118.474 69.8214C118.801 68.9718 118.976 68.1611 119.03 67.4891C119.057 67.157 119.058 66.8188 119.016 66.5049C118.995 66.3486 118.959 66.1629 118.892 65.9712C118.857 65.8737 118.801 65.734 118.709 65.5817C118.413 64.9995 117.92 64.7068 117.707 64.5853C117.593 64.5197 117.462 64.4531 117.368 64.4051L117.318 64.3795C117.207 64.3223 117.115 64.2731 117.024 64.2187ZM107.407 66.4932C107.956 66.8224 108.285 66.7127 108.724 66.3835C108.83 66.2425 109.026 65.9997 109.254 65.7169C109.738 65.1189 110.366 64.3417 110.589 63.9692C111.028 63.3108 111.467 63.4205 112.016 63.64C112.565 63.8595 115.528 65.2861 116.186 65.6153C116.349 65.7128 116.502 65.7911 116.639 65.8615C116.966 66.0288 117.206 66.1518 117.283 66.3835C117.503 66.603 117.503 67.8101 116.954 69.2367C116.406 70.6633 113.991 71.9802 112.894 72.0899C110.919 72.4192 109.382 72.3094 105.541 70.5536C100.164 68.2488 96.4667 63.255 95.4064 61.8227C95.255 61.6182 95.1574 61.4863 95.1162 61.4452C94.787 61.0063 92.702 58.153 92.702 55.0803C92.702 52.4063 93.9533 50.9836 94.6007 50.2476C94.6706 50.1681 94.7335 50.0965 94.787 50.0323C95.3357 49.3739 95.9941 49.2642 96.4331 49.2642H97.5305C97.5642 49.2642 97.5979 49.2635 97.6317 49.2629C98.0375 49.2551 98.4505 49.2471 98.9571 50.3616C99.2258 51.1005 99.8235 52.4975 100.272 53.5454C100.556 54.2093 100.78 54.7332 100.823 54.8609C100.932 55.1901 101.042 55.5193 100.823 55.9583C100.328 56.9966 99.7892 57.5448 99.4064 57.9342C98.9396 58.409 98.7051 58.6475 99.0668 59.2504C101.481 63.3108 103.786 64.7374 107.407 66.4932Z" fill="black"/>
<path fill-rule="evenodd" clip-rule="evenodd" d="M79.2782 87.0463L82.2613 76.0385C79.434 71.7861 77.7866 66.6816 77.7866 61.1922C77.7866 46.3642 89.807 34.3438 104.635 34.3438C119.463 34.3438 131.483 46.3642 131.483 61.1922C131.483 76.0202 119.463 88.0407 104.635 88.0407C99.1157 88.0407 93.9854 86.3753 89.7192 83.5196L79.2782 87.0463ZM89.9583 81.7197L81.6486 84.5265L84.0266 75.7517L83.6177 75.1367C80.9625 71.1433 79.4154 66.3509 79.4154 61.1922C79.4154 47.2637 90.7066 35.9725 104.635 35.9725C118.563 35.9725 129.855 47.2637 129.855 61.1922C129.855 75.1207 118.563 86.4119 104.635 86.4119C99.4482 86.4119 94.6317 84.8479 90.6252 82.1661L89.9583 81.7197Z" fill="black"/>
<defs>
<filter id="filter0_b_2843_46" x="-32.3" y="-32.3" width="234.6" height="235.412" filterUnits="userSpaceOnUse" color-interpolation-filters="sRGB">
<feFlood flood-opacity="0" result="BackgroundImageFix"/>
<feGaussianBlur in="BackgroundImageFix" stdDeviation="16.15"/>
<feComposite in2="SourceAlpha" operator="in" result="effect1_backgroundBlur_2843_46"/>
<feBlend mode="normal" in="SourceGraphic" in2="effect1_backgroundBlur_2843_46" result="shape"/>
</filter>
<linearGradient id="paint0_linear_2843_46" x1="84.9996" y1="37.0859" x2="134.005" y2="102.627" gradientUnits="userSpaceOnUse">
<stop stop-color="#77B9C2"/>
<stop offset="1" stop-color="#649CCF"/>
</linearGradient>
</defs>
</svg>
