<svg width="170" height="171" viewBox="0 0 170 171" fill="none" xmlns="http://www.w3.org/2000/svg">
<g filter="url(#filter0_b_2843_49)">
<path d="M0 28.05C0 12.5584 12.5584 0 28.05 0H141.95C157.442 0 170 12.5584 170 28.05V135.94C170 151.431 157.442 163.99 141.95 163.99H100.188C97.2859 163.99 94.5219 165.231 92.5942 167.401C88.5532 171.95 81.4468 171.95 77.4058 167.401C75.4781 165.231 72.7141 163.99 69.8115 163.99H28.05C12.5584 163.99 0 151.431 0 135.94V28.05Z" fill="white" fill-opacity="0.1"/>
<path fill-rule="evenodd" clip-rule="evenodd" d="M141.95 2.55H28.05C13.9667 2.55 2.55 13.9667 2.55 28.05V135.94C2.55 150.023 13.9667 161.44 28.05 161.44H69.8115C73.4428 161.44 76.9005 162.993 79.3122 165.708C82.3388 169.115 87.6612 169.115 90.6878 165.708C93.0995 162.993 96.5572 161.44 100.188 161.44H141.95C156.033 161.44 167.45 150.023 167.45 135.94V28.05C167.45 13.9667 156.033 2.55 141.95 2.55ZM28.05 0C12.5584 0 0 12.5584 0 28.05V135.94C0 151.431 12.5584 163.99 28.05 163.99H69.8115C72.7141 163.99 75.4781 165.231 77.4058 167.401C81.4468 171.95 88.5532 171.95 92.5942 167.401C94.5219 165.231 97.2859 163.99 100.188 163.99H141.95C157.442 163.99 170 151.431 170 135.94V28.05C170 12.5584 157.442 0 141.95 0H28.05Z" fill="#DFE5EC"/>
</g>
<path fill-rule="evenodd" clip-rule="evenodd" d="M82.1809 62.6094C82.638 62.6094 83.0086 62.9799 83.0086 63.4371L83.0086 68.7933H86.7626V63.999C86.7626 63.5419 87.1332 63.1713 87.5903 63.1713C88.0474 63.1713 88.418 63.5419 88.418 63.999V68.7933H92.6133C95.2044 68.7933 97.3049 70.8937 97.3049 73.4848V77.2925H102.871C103.328 77.2925 103.698 77.663 103.698 78.1201C103.698 78.5773 103.328 78.9478 102.871 78.9478H97.3049V82.7018L103.432 82.7018C103.889 82.7018 104.26 83.0724 104.26 83.5295C104.26 83.9866 103.889 84.3572 103.432 84.3572L97.3049 84.3572V88.1111H102.871C103.328 88.1111 103.698 88.4817 103.698 88.9388C103.698 89.3959 103.328 89.7665 102.871 89.7665H97.3049V94.3493C97.3049 96.9404 95.2044 99.0408 92.6134 99.0408H88.418V103.833C88.418 104.29 88.0474 104.661 87.5903 104.661C87.1332 104.661 86.7626 104.29 86.7626 103.833V99.0408H83.0086L83.0086 104.395C83.0086 104.852 82.638 105.223 82.1809 105.223C81.7238 105.223 81.3532 104.852 81.3532 104.395L81.3532 99.0408H77.5992V103.833C77.5992 104.29 77.2286 104.661 76.7715 104.661C76.3144 104.661 75.9438 104.29 75.9438 103.833V99.0408H71.7484C69.1574 99.0408 67.0569 96.9404 67.0569 94.3493V89.7665H62.2638C61.8067 89.7665 61.4361 89.3959 61.4361 88.9388C61.4361 88.4817 61.8067 88.1111 62.2638 88.1111H67.0569V84.3572L61.7022 84.3572C61.2451 84.3572 60.8745 83.9866 60.8745 83.5295C60.8745 83.0724 61.2451 82.7018 61.7022 82.7018L67.0569 82.7018V78.9478H62.2638C61.8067 78.9478 61.4361 78.5773 61.4361 78.1201C61.4361 77.663 61.8067 77.2925 62.2638 77.2925H67.0569V73.4848C67.0569 70.8937 69.1574 68.7933 71.7484 68.7933H75.9438V63.999C75.9438 63.5419 76.3144 63.1713 76.7715 63.1713C77.2286 63.1713 77.5992 63.5419 77.5992 63.999V68.7933H81.3532L81.3532 63.4371C81.3532 62.9799 81.7238 62.6094 82.1809 62.6094ZM71.7484 70.4486C70.0716 70.4486 68.7122 71.808 68.7122 73.4848V94.3493C68.7122 96.0261 70.0716 97.3854 71.7484 97.3854H92.6134C94.2902 97.3854 95.6495 96.0261 95.6495 94.3493V73.4848C95.6495 71.808 94.2902 70.4486 92.6133 70.4486H71.7484ZM87.9766 78.0668C88.4337 78.0668 88.8043 78.4374 88.8043 78.8945V88.9404C88.8043 89.3975 88.4337 89.7681 87.9766 89.7681C87.5195 89.7681 87.1489 89.3975 87.1489 88.9404V78.8945C87.1489 78.4374 87.5195 78.0668 87.9766 78.0668ZM77.873 78.7204C78.1999 78.0121 79.2067 78.0121 79.5336 78.7204L83.0141 86.2613C83.0194 86.2722 83.0245 86.2831 83.0293 86.2942L84.0915 88.5956C84.283 89.0106 84.1019 89.5024 83.6868 89.694C83.2718 89.8855 82.78 89.7044 82.5885 89.2893L81.7404 87.4519H75.6662L74.8182 89.2893C74.6266 89.7044 74.1348 89.8855 73.7198 89.694C73.3048 89.5024 73.1236 89.0106 73.3152 88.5956L74.3773 86.2942C74.3822 86.2831 74.3872 86.2722 74.3925 86.2613L77.873 78.7204ZM76.4303 85.7965H80.9764L78.7033 80.8716L76.4303 85.7965Z" fill="black"/>
<path fill-rule="evenodd" clip-rule="evenodd" d="M118.141 55.8102L122.526 73.1475L127.397 90.3548C128.336 93.6702 127.381 97.2332 124.911 99.6352L117.993 106.361C119.828 104.325 120.872 101.642 120.832 98.815L120.618 83.5988L120.832 68.3826C120.889 64.3293 118.719 60.571 115.18 58.5936L101.895 51.1706L88.8242 43.3773C88.5513 43.2145 88.2731 43.0646 87.9905 42.9274L94.0094 44.6311L111.347 49.0165C114.688 49.8615 117.296 52.4698 118.141 55.8102ZM84.2738 41.8753L76.8018 39.7603C73.4864 38.8218 69.9233 39.7765 67.5213 42.247L55.0545 55.0688L51.7861 58.2466L64.4499 51.1706L77.521 43.3773C79.5891 42.1442 81.9599 41.6436 84.2738 41.8753ZM46.7566 63.1366C45.9292 64.7278 45.4872 66.5242 45.5133 68.3826L45.7271 83.5988L45.5299 97.6338L44.6165 94.023L39.7457 76.8157C38.8072 73.5004 39.7619 69.9374 42.2324 67.5354L46.7566 63.1366ZM47.4467 105.212L49.002 111.36C49.847 114.701 52.4553 117.309 55.7958 118.154L73.1335 122.539L77.3965 123.746L64.4499 116.027L51.165 108.604C49.6536 107.759 48.3919 106.59 47.4467 105.212ZM83.1592 125.377L90.3411 127.41C93.6566 128.349 97.2197 127.394 99.6217 124.924L112.088 112.102L116.954 107.371C116.411 107.834 115.818 108.248 115.18 108.604L101.895 116.027L88.8242 123.82C87.0793 124.861 85.119 125.38 83.1592 125.377ZM41.0784 66.3485L53.8838 53.8982L66.3344 41.093C69.1603 38.1866 73.3522 37.0634 77.2527 38.1675L94.4379 43.032L111.753 47.4117C115.683 48.4057 118.752 51.4743 119.746 55.4043L124.126 72.7191L128.99 89.904C130.094 93.8044 128.971 97.9962 126.065 100.822L113.259 113.272L100.809 126.078C97.9826 128.984 93.7908 130.107 89.8903 129.003L72.705 124.139L55.3899 119.759C51.4599 118.765 48.3913 115.696 47.3972 111.766L43.0174 94.4515L38.1529 77.2666C37.0488 73.3661 38.172 69.1744 41.0784 66.3485ZM87.9765 44.7991L101.068 52.6044L114.373 60.0387C117.381 61.7195 119.225 64.914 119.177 68.3594L118.963 83.5988L119.177 98.8383C119.225 102.284 117.381 105.478 114.373 107.159L101.068 114.593L87.9765 122.399C85.017 124.163 81.3283 124.163 78.3688 122.399L65.2776 114.593L51.9725 107.159C48.9645 105.478 47.1201 102.284 47.1685 98.8383L47.3826 83.5988L47.1685 68.3594C47.1201 64.914 48.9645 61.7195 51.9725 60.0387L65.2776 52.6044L78.3688 44.7991C81.3283 43.0346 85.017 43.0346 87.9765 44.7991Z" fill="url(#paint0_linear_2843_49)"/>
<defs>
<filter id="filter0_b_2843_49" x="-32.3" y="-32.3" width="234.6" height="235.412" filterUnits="userSpaceOnUse" color-interpolation-filters="sRGB">
<feFlood flood-opacity="0" result="BackgroundImageFix"/>
<feGaussianBlur in="BackgroundImageFix" stdDeviation="16.15"/>
<feComposite in2="SourceAlpha" operator="in" result="effect1_backgroundBlur_2843_49"/>
<feBlend mode="normal" in="SourceGraphic" in2="effect1_backgroundBlur_2843_49" result="shape"/>
</filter>
<linearGradient id="paint0_linear_2843_49" x1="83.5715" y1="37.75" x2="133.276" y2="97.7333" gradientUnits="userSpaceOnUse">
<stop stop-color="#77B9C2"/>
<stop offset="1" stop-color="#649CCF"/>
</linearGradient>
</defs>
</svg>
