<?xml version="1.0" encoding="utf-8"?>
<!-- Generator: Adobe Illustrator 27.1.1, SVG Export Plug-In . SVG Version: 6.00 Build 0)  -->
<svg version="1.1" id="Camada_1" xmlns="http://www.w3.org/2000/svg" xmlns:xlink="http://www.w3.org/1999/xlink" x="0px" y="0px"
	 viewBox="0 0 34 29" style="enable-background:new 0 0 34 29;" xml:space="preserve">
<style type="text/css">
	.st0{opacity:0.25;enable-background:new    ;}
</style>
<path class="st0" d="M30.3,1c2,0,3,0.9,3,2.6c0,1.2-0.7,2.4-2.2,3.4c-2.7,1.9-4.1,3.9-4.1,5.8c0,1.2,0.8,2.6,2.4,4.3
	c1.6,1.7,2.4,3.5,2.4,5.4c0,1.9-0.6,3.4-1.7,4.5c-1.2,1.1-2.7,1.7-4.6,1.7c-1.9,0-3.6-0.8-4.9-2.5c-1.4-1.7-2.1-3.6-2.1-5.8
	c0-6,1.6-10.9,4.8-14.8c1.5-1.9,2.9-3.1,4.2-3.7C28.8,1.3,29.7,1,30.3,1z M11.7,1c2,0,3,0.9,3,2.6C14.8,4.9,14,6,12.5,7
	c-2.7,1.9-4.1,3.9-4.1,5.8c0,1.2,0.8,2.6,2.4,4.3c1.6,1.7,2.4,3.5,2.4,5.4c0,1.9-0.6,3.4-1.7,4.5c-1.2,1.1-2.7,1.7-4.6,1.7
	c-1.9,0-3.6-0.8-4.9-2.5C0.7,24.4,0,22.5,0,20.3c0-6,1.6-10.9,4.8-14.8C6.3,3.6,7.7,2.4,9,1.8C10.2,1.3,11.1,1,11.7,1z"/>
</svg>
