<?xml version="1.0" encoding="utf-8"?>
<!-- Generator: Adobe Illustrator 27.1.1, SVG Export Plug-In . SVG Version: 6.00 Build 0)  -->
<svg version="1.1" id="Camada_1" xmlns="http://www.w3.org/2000/svg" xmlns:xlink="http://www.w3.org/1999/xlink" x="0px" y="0px"
	 viewBox="0 0 34 29" style="enable-background:new 0 0 34 29;" xml:space="preserve">
<style type="text/css">
	.st0{opacity:0.25;enable-background:new    ;}
</style>
<path class="st0" d="M5.8,1.8C7.1,2.4,8.4,3.6,10,5.5c3.2,3.9,4.8,8.8,4.8,14.8c0,2.2-0.7,4.1-2.1,5.8c-1.3,1.7-3,2.5-4.9,2.5
	c-1.9,0-3.4-0.6-4.6-1.7c-1.1-1.1-1.7-2.6-1.7-4.5c0-1.9,0.8-3.7,2.4-5.4c1.6-1.7,2.4-3.1,2.4-4.3c0-2-1.4-3.9-4.1-5.8
	C0.7,6,0,4.9,0,3.6C0,1.9,1,1,3,1C3.6,1,4.5,1.3,5.8,1.8z M24.4,1.8c1.3,0.6,2.7,1.8,4.2,3.7c3.2,3.9,4.8,8.8,4.8,14.8
	c0,2.2-0.7,4.1-2.1,5.8c-1.3,1.7-3,2.5-4.9,2.5c-1.9,0-3.4-0.6-4.6-1.7c-1.1-1.1-1.7-2.6-1.7-4.5c0-1.9,0.8-3.7,2.4-5.4
	c1.6-1.7,2.4-3.1,2.4-4.3c0-2-1.4-3.9-4.1-5.8c-1.5-1-2.2-2.1-2.2-3.4c0-1.8,1-2.6,3-2.6C22.2,1,23.1,1.3,24.4,1.8z"/>
</svg>
