<svg width="200" height="71" viewBox="0 0 200 71" fill="none" xmlns="http://www.w3.org/2000/svg">
<mask id="mask0_1347_102" style="mask-type:alpha" maskUnits="userSpaceOnUse" x="0" y="0" width="200" height="71">
<path fill-rule="evenodd" clip-rule="evenodd" d="M18.4378 0C8.25488 0 0 8.25982 0 18.4488C0 25.4764 0.0364503 30.4553 0.0736958 35.5429C0.112602 40.8574 0.152377 46.2904 0.152377 54.3008V59.0211C0.152377 65.3281 5.26904 70.441 11.5808 70.441H34.7193C47.3007 70.441 57.4999 60.2493 57.4999 47.6773C57.4999 37.7155 51.0962 29.2482 42.1778 26.1616C44.6394 22.4152 46.0715 17.9311 46.0715 13.1124V12.2992C46.0715 5.50655 40.5682 0 33.7796 0H18.4378ZM33.4558 11.5877H18.4378C14.6508 11.5877 11.5808 14.6595 11.5808 18.4488C11.5808 22.2381 14.6508 25.31 18.4378 25.31H22.3004C29.0329 25.31 34.4907 19.8489 34.4907 13.1124C34.4907 12.5476 34.2894 11.5877 33.4558 11.5877ZM11.7331 54.3008C11.7331 45.4742 16.6865 38.1468 25.1175 36.7324C25.4464 36.6935 25.7732 36.648 26.0979 36.5958C26.7522 36.5231 27.4171 36.4857 28.0908 36.4857H34.7193C40.9048 36.4857 45.9191 41.4964 45.9191 47.6773C45.9191 53.8582 40.9048 58.8688 34.7193 58.8688H13.6953C12.6116 58.8688 11.7331 57.9903 11.7331 56.9067V54.3008Z" fill="url(#paint0_linear_1347_102)"/>
<path d="M77.3826 25.6055L77.3698 25.6204C77.3698 25.2166 77.3744 24.8498 77.3786 24.5078C77.3871 23.8308 77.3943 23.251 77.363 22.6742C77.2148 20.0429 75.6719 18.5519 73.0712 18.4979C71.8382 18.4709 71.1656 18.4709 69.9326 18.4979C67.4195 18.5519 65.7553 20.1036 65.7553 22.5865C65.7284 37.0856 65.7284 51.9636 65.7553 66.4627C65.7553 68.8106 67.3252 70.3219 69.6833 70.4029C71.1993 70.4501 72.1481 70.4568 73.6641 70.4029C75.5304 70.3421 77.0463 68.932 77.2822 67.0564C77.3654 66.3722 77.3699 65.6722 77.3745 64.9796C77.3866 63.1307 77.3934 61.2816 77.4002 59.4325C77.4204 53.9421 77.4406 48.4515 77.5988 42.9632C77.7066 39.0838 79.2765 35.2707 82.6925 33.1994C84.9563 31.8298 87.4896 30.8245 90.0095 30.0081C92.9134 29.0703 93.5063 28.571 93.5198 25.5889C93.5208 25.3597 93.5222 25.1305 93.5235 24.9013L93.5236 24.8885C93.531 23.6039 93.5385 22.3193 93.4929 21.0347C93.3985 18.3697 92.2194 17.2902 89.5446 17.5331C83.8605 18.059 80.8348 21.5838 77.3826 25.6055Z" fill="url(#paint1_linear_1347_102)"/>
<path d="M168.169 23.8953C171.025 20.7375 174.394 18.933 178.296 18.1519C182.928 17.2295 187.519 17.519 191.834 19.4514C197.249 21.8754 198.949 26.6021 199.084 32.1569C199.31 41.1271 199.274 50.1013 199.237 59.0765V59.0772L199.237 59.1076C199.227 61.622 199.216 64.1365 199.212 66.651C199.212 68.7585 197.537 70.2869 195.404 70.3677C194.448 70.4026 193.787 70.3969 192.86 70.3888L192.691 70.3874C192.413 70.385 192.135 70.3826 191.857 70.3812C188.92 70.361 187.408 68.8864 187.381 65.9171C187.356 63.147 187.36 60.3734 187.364 57.6015V57.5945C187.366 56.5552 187.367 55.516 187.367 54.4774V39.6712C187.347 34.1769 185.038 30.6689 180.838 29.7599C175.774 28.6691 171.031 31.1941 169.168 36.116C168.317 38.3649 167.939 40.9033 167.885 43.3205C167.723 50.3836 167.872 64.5233 167.872 64.5233C167.966 68.5363 166.683 70.7986 161.862 70.3946C161.503 70.3637 161.49 70.364 161.257 70.3702C161.204 70.3716 161.14 70.3732 161.058 70.3749H161.058C160.714 70.382 160.369 70.3891 160.025 70.3744C157.992 70.2936 156.541 69.048 156.183 67.0415C156.061 66.3816 156.034 65.7016 156.034 65.035C156.027 51.4609 156.027 37.8868 156.034 24.3128C156.034 20.3267 157.425 18.9329 161.375 18.9329L162.2 18.933C166.231 18.933 167.19 19.6871 168.155 23.9021L168.169 23.8953Z" fill="url(#paint2_linear_1347_102)"/>
<path fill-rule="evenodd" clip-rule="evenodd" d="M122.896 59.3748C116.896 59.0097 110.604 54.3664 109.496 48.5678C109.313 47.6074 110.12 46.8059 111.097 46.8059H111.397C112.933 46.8059 114.573 46.838 116.274 46.8712L116.314 46.872C129.304 47.1259 145.066 47.434 145.066 34.0461C145.066 27.0927 140.623 21.9973 133.694 19.3769C129.038 17.6123 124.981 17.3424 120.069 17.9218C111.318 18.9489 104.57 23.031 100.636 30.8594C96.7295 38.6483 96.6013 46.8059 99.5365 54.845C102.391 62.6668 108.234 67.5851 116.567 69.5735C122.262 70.9298 127.917 70.6006 133.571 69.2443C138.692 68.0131 143.018 65.5309 146.574 61.7451C148.416 59.7896 148.159 57.5906 145.892 56.1882C144.806 55.51 143.679 54.8845 142.539 54.292C139.968 52.9554 138.996 53.0278 136.763 54.924C132.768 58.3082 128.133 59.6909 122.896 59.3748ZM123.673 26.4249C125.005 26.434 125.52 26.4931 126.834 26.6567C130.886 27.1519 133.554 29.6281 133.485 32.7496C133.411 36.0436 130.937 38.4472 126.708 38.6698C122.604 38.885 117.941 38.8854 113.819 38.8858H113.814C112.542 38.8859 111.569 38.886 110.298 38.8924C109.431 38.8924 109.431 38.4926 109.431 38.2745C109.431 31.7131 116.274 26.6567 123.673 26.4249Z" fill="url(#paint3_linear_1347_102)"/>
</mask>
<g mask="url(#mask0_1347_102)">
<rect width="199.353" height="70.4408" fill="url(#paint4_linear_1347_102)"/>
</g>
<defs>
<linearGradient id="paint0_linear_1347_102" x1="99.6322" y1="0" x2="99.6322" y2="70.441" gradientUnits="userSpaceOnUse">
<stop stop-color="#B2C5D6"/>
<stop offset="1" stop-color="#7990A4"/>
</linearGradient>
<linearGradient id="paint1_linear_1347_102" x1="99.6322" y1="0" x2="99.6322" y2="70.441" gradientUnits="userSpaceOnUse">
<stop stop-color="#B2C5D6"/>
<stop offset="1" stop-color="#7990A4"/>
</linearGradient>
<linearGradient id="paint2_linear_1347_102" x1="99.6322" y1="0" x2="99.6322" y2="70.441" gradientUnits="userSpaceOnUse">
<stop stop-color="#B2C5D6"/>
<stop offset="1" stop-color="#7990A4"/>
</linearGradient>
<linearGradient id="paint3_linear_1347_102" x1="99.6322" y1="0" x2="99.6322" y2="70.441" gradientUnits="userSpaceOnUse">
<stop stop-color="#B2C5D6"/>
<stop offset="1" stop-color="#7990A4"/>
</linearGradient>
<linearGradient id="paint4_linear_1347_102" x1="99.6766" y1="0" x2="99.6766" y2="70.4408" gradientUnits="userSpaceOnUse">
<stop stop-color="#B2C5D6"/>
<stop offset="1" stop-color="#7990A4"/>
</linearGradient>
</defs>
</svg>
