<?xml version="1.0" encoding="utf-8"?>
<!-- Generator: Adobe Illustrator 27.1.1, SVG Export Plug-In . SVG Version: 6.00 Build 0)  -->
<svg version="1.1" id="Camada_1" xmlns="http://www.w3.org/2000/svg" xmlns:xlink="http://www.w3.org/1999/xlink" x="0px" y="0px"
	 viewBox="0 0 1016 359" style="enable-background:new 0 0 1016 359;" xml:space="preserve">
<style type="text/css">
	.st0{filter:url(#Adobe_OpacityMaskFilter);}
	.st1{fill:url(#SVGID_00000109715954502073071460000004369874621399042979_);}
	.st2{mask:url(#SVGID_1_);}
	.st3{fill-rule:evenodd;clip-rule:evenodd;}
</style>
<defs>
	<filter id="Adobe_OpacityMaskFilter" filterUnits="userSpaceOnUse" x="0" y="0" width="1015.5" height="359">
		<feFlood  style="flood-color:white;flood-opacity:1" result="back"/>
		<feBlend  in="SourceGraphic" in2="back" mode="normal"/>
	</filter>
</defs>
<mask maskUnits="userSpaceOnUse" x="0" y="0" width="1015.5" height="359" id="SVGID_1_">
	<g class="st0">
		
			<linearGradient id="SVGID_00000018195100713675636180000002984813970152121747_" gradientUnits="userSpaceOnUse" x1="538.9683" y1="300.8377" x2="455.6068" y2="-24.3692" gradientTransform="matrix(1 0 0 -1 0 360)">
			<stop  offset="0" style="stop-color:#F2E6A7"/>
			<stop  offset="0.9434" style="stop-color:#5DABCD"/>
		</linearGradient>
		
			<rect x="0" y="0.9" style="fill:url(#SVGID_00000018195100713675636180000002984813970152121747_);" width="1016" height="358.1"/>
	</g>
</mask>
<g class="st2">
	<path d="M394.3,130.6c17.6-20.5,33-38.5,62-41.2c13.6-1.2,19.6,4.3,20.1,17.8c0.2,6.5,0.2,13.1,0.2,19.6c0,1.2,0,2.4,0,3.6
		c-0.1,15.2-3.1,17.7-17.9,22.5c-12.8,4.2-25.8,9.3-37.3,16.3c-17.4,10.6-25.4,30-26,49.8c-1.1,37.4-0.9,74.8-1.1,112.2
		c0,3.5,0,7.1-0.5,10.6c-1.2,9.6-8.9,16.7-18.4,17.1c-7.7,0.3-12.6,0.2-20.3,0c-12-0.4-20-8.1-20-20.1c-0.1-73.9-0.1-149.7,0-223.6
		c0-12.7,8.5-20.6,21.3-20.8c6.3-0.1,9.7-0.1,16,0c13.3,0.3,21.1,7.9,21.9,21.3c0.2,2.9,0.1,5.9,0.1,9.3
		C394.3,126.6,394.3,128.5,394.3,130.6z"/>
	<path d="M908.7,92.5c-19.9,4-37.1,13.2-51.6,29.3l-0.1,0c-4.9-21.5-9.8-25.3-30.4-25.3l-4.2,0c-20.1,0-27.2,7.1-27.2,27.4
		c0,69.2,0,138.4,0,207.5c0,3.4,0.1,6.9,0.8,10.2c1.8,10.2,9.2,16.6,19.6,17c1.8,0.1,3.5,0,5.3,0h0c2.3,0,1.8-0.1,4.1,0.1
		c24.6,2.1,31.1-9.5,30.6-29.9c0,0-0.8-72.1,0.1-108.1c0.3-12.3,2.2-25.3,6.5-36.7c9.5-25.1,33.7-38,59.5-32.4
		c21.4,4.6,33.2,22.5,33.3,50.5v75.5c0,5.3,0,10.6,0,15.9v0c0,14.1,0,28.3,0.1,42.4c0.1,15.1,7.8,22.6,22.8,22.8c1.4,0,2.8,0,4.2,0
		c5.2,0,8.7,0.1,13.8-0.1c10.9-0.4,19.4-8.2,19.4-18.9c0-12.9,0.1-25.7,0.1-38.6v0c0.2-45.7,0.4-91.5-0.8-137.2
		c-0.7-28.3-9.4-52.4-37-64.8C955.7,89.3,932.3,87.8,908.7,92.5z"/>
	<path class="st3" d="M626.3,302.6c-30.6-1.9-62.6-25.5-68.3-55.1c-0.9-4.9,3.2-9,8.2-9h1.5c7.8,0,16.2,0.2,24.9,0.3
		c66.2,1.3,146.7,2.9,146.7-65.4c0-35.4-22.6-61.4-58-74.8c-23.7-9-44.4-10.4-69.4-7.4c-44.6,5.2-79,26-99,65.9
		c-19.9,39.7-20.6,81.3-5.6,122.2c14.5,39.9,44.3,64.9,86.8,75.1c29,6.9,57.8,5.2,86.7-1.7c26.1-6.3,48.1-18.9,66.3-38.2
		c9.4-10,8.1-21.2-3.5-28.3c-5.5-3.5-11.3-6.6-17.1-9.7c-13.1-6.8-18.1-6.4-29.4,3.2C676.7,297.2,653,304.2,626.3,302.6z
		 M630.3,134.7c6.8,0,9.4,0.3,16.1,1.2c20.6,2.5,34.2,15.1,33.9,31.1c-0.4,16.8-13,29-34.5,30.2c-20.9,1.1-44.7,1.1-65.7,1.1h0
		c-6.5,0-11.4,0-17.9,0c-4.4,0-4.4-2-4.4-3.1C557.7,161.6,592.6,135.9,630.3,134.7z"/>
	<path class="st3" d="M0,94C0,42.1,42.1,0,94,0h78.2c34.6,0,62.6,28.1,62.6,62.7v4.1c0,24.6-7.3,47.4-19.8,66.5
		C260.4,149.1,293,192.2,293,243c0,64.1-52,116-116.1,116H59c-32.2,0-58.2-26.1-58.2-58.2v-24.1C0.8,196.8,0,167.3,0,94z M94,59.1
		h76.5c4.2,0,5.3,4.9,5.3,7.8c0,34.3-27.8,62.2-62.1,62.2H94C74.7,129,59,113.3,59,94C59,74.7,74.7,59.1,94,59.1z M128,187.2
		c-43,7.2-68.2,44.6-68.2,89.5V290c0,5.5,4.5,10,10,10h107.1c31.5,0,57.1-25.5,57.1-57s-25.6-57-57.1-57h-33.8
		c-3.4,0-6.8,0.2-10.2,0.6C131.4,186.8,129.7,187,128,187.2z"/>
</g>
</svg>
