<svg width="1016" height="359" viewBox="0 0 1016 359" fill="none" xmlns="http://www.w3.org/2000/svg">
<mask id="mask0_1324_3" style="mask-type:alpha" maskUnits="userSpaceOnUse" x="0" y="0" width="1016" height="359">
<path fill-rule="evenodd" clip-rule="evenodd" d="M93.9678 0C42.0708 0 0 42.096 0 94.0241C0 129.84 0.185768 155.215 0.375589 181.144C0.573876 208.229 0.776584 235.918 0.776584 276.743V300.8C0.776584 332.943 26.8535 359.001 59.0211 359.001H176.946C241.067 359.001 293.047 307.06 293.047 242.986C293.047 192.216 260.411 149.063 214.958 133.332C227.504 114.238 234.802 91.3856 234.802 66.8271V62.6827C234.802 28.064 206.755 0 172.157 0H93.9678ZM170.507 59.0565H93.9678C74.6673 59.0565 59.0211 74.712 59.0211 94.0241C59.0211 113.336 74.6673 128.992 93.9678 128.992H113.654C147.966 128.992 175.781 101.16 175.781 66.8271C175.781 63.9487 174.755 59.0565 170.507 59.0565ZM59.7977 276.743C59.7977 231.758 85.0425 194.414 128.011 187.206C129.687 187.008 131.353 186.776 133.007 186.51C136.342 186.139 139.731 185.949 143.164 185.949H176.946C208.47 185.949 234.026 211.485 234.026 242.986C234.026 274.487 208.47 300.024 176.946 300.024H69.7977C64.2748 300.024 59.7977 295.547 59.7977 290.024V276.743Z" fill="black"/>
<path d="M394.379 130.498L394.313 130.574C394.314 128.516 394.337 126.646 394.359 124.903C394.402 121.453 394.438 118.498 394.279 115.559C393.524 102.148 385.66 94.5492 372.406 94.2741C366.122 94.1366 362.694 94.1366 356.41 94.2741C343.602 94.5492 335.121 102.458 335.121 115.112C334.983 189.006 334.983 264.831 335.121 338.726C335.121 350.692 343.121 358.394 355.14 358.807C362.866 359.048 367.701 359.082 375.427 358.807C384.939 358.497 392.665 351.311 393.867 341.752C394.291 338.265 394.314 334.697 394.337 331.167C394.399 321.744 394.434 312.321 394.469 302.897C394.572 274.915 394.675 246.932 395.481 218.961C396.03 199.19 404.031 179.756 421.44 169.2C432.978 162.22 445.889 157.096 458.732 152.936C473.531 148.156 476.553 145.612 476.622 130.413C476.627 129.245 476.634 128.077 476.641 126.909L476.641 126.844C476.679 120.297 476.717 113.75 476.484 107.203C476.004 93.6208 469.995 88.1191 456.362 89.357C427.393 92.0375 411.973 110.001 394.379 130.498Z" fill="black"/>
<path d="M857.068 121.782C871.624 105.688 888.795 96.4915 908.684 92.5109C932.29 87.8097 955.689 89.2853 977.677 99.1338C1005.27 111.487 1013.94 135.577 1014.63 163.887C1015.78 209.603 1015.59 255.341 1015.41 301.082V301.086L1015.41 301.241C1015.35 314.055 1015.3 326.871 1015.28 339.686C1015.28 350.426 1006.75 358.216 995.872 358.628C991 358.806 987.633 358.776 982.909 358.735L982.045 358.728C980.629 358.716 979.213 358.704 977.797 358.696C962.828 358.593 955.12 351.078 954.982 335.945C954.857 321.828 954.878 307.692 954.898 293.565V293.529C954.906 288.232 954.914 282.936 954.914 277.643V202.183C954.81 174.182 943.042 156.303 921.638 151.671C895.831 146.112 871.658 158.98 862.161 184.065C857.825 195.526 855.898 208.463 855.623 220.782C854.797 256.779 855.554 328.842 855.554 328.842C856.036 349.294 849.498 360.824 824.929 358.765C823.094 358.607 823.031 358.609 821.844 358.64C821.574 358.647 821.247 358.656 820.828 358.665H820.826C819.073 358.701 817.318 358.737 815.562 358.662C805.204 358.25 797.806 351.902 795.982 341.676C795.363 338.313 795.225 334.847 795.225 331.45C795.191 262.27 795.191 193.09 795.225 123.91C795.225 103.595 802.314 96.4914 822.444 96.4914L826.649 96.4915C847.192 96.4915 852.078 100.335 856.999 121.816L857.068 121.782Z" fill="black"/>
<path fill-rule="evenodd" clip-rule="evenodd" d="M626.339 302.603C595.761 300.742 563.691 277.078 558.046 247.525C557.111 242.63 561.222 238.545 566.206 238.545H567.73C575.559 238.545 583.921 238.709 592.588 238.878L592.791 238.882C658.993 240.176 739.328 241.747 739.328 173.515C739.328 138.077 716.684 112.109 681.367 98.7538C657.638 89.761 636.966 88.3852 611.931 91.3381C567.328 96.5727 532.94 117.377 512.891 157.274C492.98 196.97 492.326 238.545 507.286 279.517C521.832 319.38 551.613 344.446 594.083 354.58C623.107 361.492 651.925 359.815 680.742 352.902C706.843 346.627 728.887 333.977 747.01 314.683C756.398 304.717 755.091 293.509 743.536 286.362C738 282.906 732.257 279.718 726.445 276.698C713.343 269.886 708.391 270.255 697.008 279.919C676.65 297.167 653.025 304.213 626.339 302.603ZM630.298 134.674C637.083 134.721 639.708 135.022 646.406 135.855C667.055 138.379 680.656 150.999 680.305 166.907C679.925 183.696 667.319 195.945 645.763 197.08C624.848 198.177 601.083 198.179 580.074 198.181H580.049C573.567 198.181 568.612 198.182 562.13 198.214C557.714 198.214 557.714 196.177 557.714 195.065C557.714 161.625 592.588 135.855 630.298 134.674Z" fill="black"/>
</mask>
<g mask="url(#mask0_1324_3)">
<rect width="1016" height="359" fill="url(#paint0_linear_1324_3)"/>
</g>
<defs>
<linearGradient id="paint0_linear_1324_3" x1="715.095" y1="70.2878" x2="770.654" y2="519.674" gradientUnits="userSpaceOnUse">
<stop stop-color="#639BCE"/>
<stop offset="0.943353" stop-color="#84BE95"/>
</linearGradient>
</defs>
</svg>
