<?xml version="1.0" encoding="utf-8"?>
<!-- Generator: Adobe Illustrator 27.1.1, SVG Export Plug-In . SVG Version: 6.00 Build 0)  -->
<svg version="1.1" id="Camada_1" xmlns="http://www.w3.org/2000/svg" xmlns:xlink="http://www.w3.org/1999/xlink" x="0px" y="0px"
	 viewBox="0 0 293 359" style="enable-background:new 0 0 293 359;" xml:space="preserve">
<style type="text/css">
	.st0{fill:none;}
	.st1{fill:url(#SVGID_1_);}
</style>
<g>
	<path class="st0" d="M177,185.9h-33.8c-3.5,0-6.9,0.2-10.2,0.6c-1.7,0.3-3.3,0.5-5,0.7c-43,7.2-68.2,44.5-68.2,89.5v13.2
		c0,5.5,4.5,10,10,10H177c31.5,0,57.1-25.5,57.1-57S208.5,185.9,177,185.9z"/>
	
		<linearGradient id="SVGID_1_" gradientUnits="userSpaceOnUse" x1="165.929" y1="814.1038" x2="107.4173" y2="1042.3679" gradientTransform="matrix(1 0 0 1 0 -720)">
		<stop  offset="0" style="stop-color:#F2E6A7"/>
		<stop  offset="0.9434" style="stop-color:#5DABCD"/>
	</linearGradient>
	<path class="st1" d="M214.9,133.3c12.5-19.1,19.8-41.9,19.8-66.5v-4.1c0-34.6-28-62.7-62.6-62.7H94C42.1,0,0,42.1,0,94
		c0,35.8,0.2,61.2,0.4,87.1c0.2,27.1,0.4,54.8,0.4,95.6v24.1C0.8,332.9,26.9,359,59,359h117.9C241,359,293,307.1,293,243
		C293,192.2,260.4,149.1,214.9,133.3z M94,59.1h76.5c4.3,0,5.3,4.8,5.2,7.7c0,34.4-27.8,62.2-62.1,62.2H93.9
		C74.6,129,59,113.3,59,94S74.7,59.1,94,59.1z M177,299.9H69.8c-5.5,0-10-4.5-10-10v-13.2c0-45,25.2-82.3,68.2-89.5
		c1.7-0.2,3.3-0.4,5-0.7c3.3-0.4,6.7-0.6,10.2-0.6H177c31.5,0,57.1,25.5,57.1,57S208.5,299.9,177,299.9z"/>
</g>
</svg>
