<?xml version="1.0" encoding="utf-8"?>
<!-- Generator: Adobe Illustrator 27.1.1, SVG Export Plug-In . SVG Version: 6.00 Build 0)  -->
<svg version="1.1" id="Camada_1" xmlns="http://www.w3.org/2000/svg" xmlns:xlink="http://www.w3.org/1999/xlink" x="0px" y="0px"
	 viewBox="0 0 59.9 71" style="enable-background:new 0 0 59.9 71;" xml:space="preserve">
<style type="text/css">
	.st0{fill:none;}
	.st1{fill:url(#SVGID_1_);}
</style>
<g>
	<path class="st0" d="M34.7,36.5h-6.6c-0.7,0-1.3,0-2,0.1c-0.3,0-0.7,0.1-1,0.1c-8.4,1.4-13.4,8.8-13.4,17.6v2.6c0,1.1,0.9,2,2,2h21
		c6.2,0,11.2-5,11.2-11.2S40.9,36.5,34.7,36.5z"/>
	
		<linearGradient id="SVGID_1_" gradientUnits="userSpaceOnUse" x1="28.75" y1="1008" x2="28.75" y2="1078.4" gradientTransform="matrix(1 0 0 1 0 -1008)">
		<stop  offset="0" style="stop-color:#B2C5D6"/>
		<stop  offset="1" style="stop-color:#7990A4"/>
	</linearGradient>
	<path class="st1" d="M57.5,47.6c0-10-6.4-18.4-15.3-21.5c2.5-3.7,3.9-8.2,3.9-13v-0.8C46.1,5.5,40.6,0,33.8,0H18.4
		C8.3,0,0,8.3,0,18.4c0,7,0,12,0.1,17.1c0,5.3,0.1,10.7,0.1,18.8V59c0,6.3,5.1,11.4,11.4,11.4h23.1C47.3,70.4,57.5,60.2,57.5,47.6z
		 M18.5,11.6h15c0.8,0,1,0.9,1.1,1.6c0,6.7-5.5,12.2-12.2,12.2h-3.9c-3.8,0-6.9-3.1-6.9-6.9S14.7,11.6,18.5,11.6z M34.7,58.9h-21
		c-1.1,0-2-0.9-2-2v-2.6c0-8.8,5-16.2,13.4-17.6c0.3,0,0.7-0.1,1-0.1c0.7-0.1,1.3-0.1,2-0.1h6.6c6.2,0,11.2,5,11.2,11.2
		S40.9,58.9,34.7,58.9z"/>
</g>
</svg>
