<?xml version="1.0" encoding="utf-8"?>
<!-- Generator: Adobe Illustrator 27.1.1, SVG Export Plug-In . SVG Version: 6.00 Build 0)  -->
<svg version="1.1" id="Camada_1" xmlns="http://www.w3.org/2000/svg" xmlns:xlink="http://www.w3.org/1999/xlink" x="0px" y="0px"
	 viewBox="0 0 62.8 76.8" style="enable-background:new 0 0 62.8 76.8;" xml:space="preserve">
<style type="text/css">
	.st0{fill-rule:evenodd;clip-rule:evenodd;}
</style>
<path class="st0" d="M0,20.1C0,9,9,0,20.1,0h16.7c7.4,0,13.4,6,13.4,13.4v0.9c0,5.3-1.6,10.1-4.2,14.2c9.7,3.4,16.7,12.6,16.7,23.5
	c0,13.7-11.1,24.8-24.8,24.8H12.6c-6.9,0-12.5-5.6-12.5-12.5v-5.1C0.2,42.1,0,35.8,0,20.1z M20.1,12.6h16.4c0.9,0,1.1,1,1.1,1.7
	c0,7.3-6,13.3-13.3,13.3h-4.2c-4.1,0-7.5-3.4-7.5-7.5C12.6,16,16,12.6,20.1,12.6z M27.4,40.1c-9.2,1.5-14.6,9.5-14.6,19.2v2.8
	c0,1.2,1,2.1,2.1,2.1h22.9c6.7,0,12.2-5.5,12.2-12.2s-5.5-12.2-12.2-12.2h-7.2c-0.7,0-1.5,0-2.2,0.1C28.1,40,27.8,40,27.4,40.1z"/>
</svg>
