<?xml version="1.0" encoding="utf-8"?>
<!-- Generator: Adobe Illustrator 28.1.0, SVG Export Plug-In . SVG Version: 6.00 Build 0)  -->
<svg version="1.1" id="Layer_1" xmlns="http://www.w3.org/2000/svg" xmlns:xlink="http://www.w3.org/1999/xlink" x="0px" y="0px"
	 viewBox="0 0 212 212" style="enable-background:new 0 0 212 212;" xml:space="preserve">
<style type="text/css">
	.st0{fill:#6A7176;}
	.st1{fill:#FFFFFF;}
</style>
<path class="st0" d="M106.3,0.5C164.7,0.5,212,47.8,212,106.2S164.7,212,106.2,212C47.8,212,0.5,164.7,0.5,106.2S47.8,0.5,106.3,0.5
	z"/>
<g>
	<path class="st1" d="M173.6,171.6c-0.6-0.9-1.3-1.9-2.1-3c-0.8-1-1.6-2.2-2.6-3.3c-1-1.1-2-2.3-3.2-3.5c-1.7-1.8-3.7-3.6-5.9-5.5
		c-3-2.4-6.3-4.8-10.2-7c-1.9-1.1-3.9-2.1-6-3.1c-0.1,0-0.1-0.1-0.2-0.1c-9.8-4.4-22.1-7.5-37.4-7.5s-27.6,3.1-37.4,7.5
		c-0.3,0.2-0.7,0.3-1,0.5c-1.4,0.7-2.8,1.4-4.1,2.1c-0.7,0.4-1.4,0.8-2.1,1.2c-3.4,2-6.5,4.2-9.1,6.4c-2.2,1.8-4.2,3.7-5.9,5.5
		c-1.2,1.2-2.2,2.4-3.2,3.5c-1,1.1-1.8,2.2-2.6,3.3c-0.8,1-1.5,2-2.1,3c-0.6,0.8-1,1.6-1.4,2.3c0,0.1-0.1,0.1-0.1,0.2
		c-0.4,0.7-0.8,1.4-1.1,1.9c-0.6,1.1-0.8,1.7-0.8,1.7v0.4c18.3,17.9,43.3,29,70.9,29c27.7,0,52.8-11.1,71.1-29.1v-0.3
		c0,0-0.6-1.4-2-3.8C174.6,173.2,174.1,172.5,173.6,171.6z"/>
	<path class="st1" d="M106,125.5c2.6,0,5.2-0.3,7.7-0.7c1.2-0.2,2.4-0.5,3.6-0.9c1.8-0.5,3.5-1.2,5.1-2c2.2-1,4.2-2.3,6.2-3.7
		c2.9-2.1,5.4-4.6,7.5-7.5c0.7-1,1.4-1.9,2-3c0.9-1.5,1.7-3.2,2.4-4.8c0.5-1.1,0.9-2.3,1.2-3.5c0.2-0.6,0.3-1.2,0.5-1.8
		c0.3-1.2,0.5-2.4,0.7-3.7c0.3-1.9,0.4-3.8,0.4-5.8c0-2-0.1-3.9-0.4-5.8c-0.2-1.3-0.4-2.5-0.7-3.7c-0.1-0.6-0.3-1.2-0.5-1.8
		c-0.4-1.2-0.8-2.3-1.2-3.5c-0.7-1.7-1.5-3.3-2.4-4.8c-0.6-1-1.3-2-2-3c-2.1-2.9-4.6-5.4-7.5-7.5c-1.9-1.4-4-2.6-6.2-3.7
		c-1.6-0.8-3.3-1.4-5.1-2c-1.2-0.4-2.4-0.7-3.6-0.9c-2.5-0.5-5-0.7-7.7-0.7c-21.2,0-37.3,16.2-37.3,37.3
		C68.7,109.3,84.8,125.5,106,125.5z"/>
</g>
</svg>
